# Alias OBJ Model File
# Exported from SketchUp, (c) 2000-2012 Trimble Navigation Limited
# File units = meters

mtllib modularBuildings_067.mtl

g Mesh1 Group1 Model

usemtl Brick
v 1 0 -1
vt 39.3701 0
vn 1 0 -0
v 1 0.625 -1
vt 39.3701 24.6063
v 1 0.625 -0
vt 0 24.6063
v 1 0 -0
vt 0 0
f 1/1/1 2/2/1 3/3/1 4/4/1 

v 0 0 -1
vn 0 0 -1
v 0 0.625 -1
vt -39.3701 24.6063
vt -39.3701 0
f 5/4/2 6/3/2 2/5/2 1/6/2 

vn -1 0 -0
v 0 0.06 -0.4375
vt -17.2244 2.3622
f 5/6/3 7/7/3 6/5/3

v 0 0.06 -0.125
vt -4.92126 2.3622
f 5/6/3 8/8/3 7/7/3

v 0 0 -0
f 9/4/3 8/8/3 5/6/3

v 0 0.5 -0.125
vt -4.92126 19.685
f 8/8/3 9/4/3 10/9/3

v 0 0.625 -0
f 11/3/3 10/9/3 9/4/3

f 10/9/3 11/3/3 6/5/3

vt 3.33067e-015 39.3701
vn -1.35358e-016 1 1.35358e-016
vt 3.33067e-015 3.33067e-015
vt 39.3701 3.33067e-015
vt 39.3701 39.3701
f 6/10/4 11/11/4 3/12/4 2/13/4 

vn 0 0 1
f 4/1/5 3/2/5 11/3/5 9/4/5 

vn 0 -1 -0
vt 0 39.3701
vt -39.3701 39.3701
f 9/4/6 5/14/6 1/15/6 4/6/6 

v 0 0.5 -0.4375
vt -17.2244 19.685
f 10/9/3 6/5/3 12/16/3

v 0 0.12 -0.4375
vt -17.2244 4.72441
f 12/16/3 6/5/3 13/17/3

f 13/17/3 6/5/3 7/7/3

usemtl FrontColor
vt 0 4.72441
v 0.1 0.12 -0.4375
vt -3.93701 4.72441
v 0.1 0.06 -0.4375
vt -3.93701 2.3622
vt 0 2.3622
f 13/18/2 14/19/2 15/20/2 7/21/2 

usemtl Brick
vt 0 19.685
vt 3.93701 4.72441
v 0.1 0.5 -0.4375
vt 3.93701 19.685
f 12/22/5 13/18/5 14/23/5 16/24/5 

v 0.1 0.12 -0.125
vt 3.93701 4.92126
vn 0 1 -0
vt 3.93701 17.2244
vt 0 17.2244
v -0.05 0.12 -0.4375
vt -1.9685 17.2244
v -0.05 0.12 -0.125
vt -1.9685 4.92126
v 0 0.12 -0.125
vt 0 4.92126
f 17/25/7 14/26/7 13/27/7 18/28/7 19/29/7 20/30/7 

usemtl Glass
v 0.1 0.5 -0.125
vt -4.92126 4.72441
f 21/9/3 16/16/3 14/17/3 17/31/3 

usemtl Brick
vt -3.93701 17.2244
vt -3.93701 4.92126
f 10/30/6 12/27/6 16/32/6 21/33/6 

vt -3.93701 19.685
f 21/34/2 17/19/2 20/18/2 10/22/2 

usemtl FrontColor
v 0.1 0.06 -0.125
vt 3.93701 2.3622
f 8/21/5 22/35/5 17/23/5 20/18/5 

f 15/32/6 22/33/6 8/30/6 7/27/6 

vt 17.2244 4.72441
vt 4.92126 4.72441
vt 4.92126 2.3622
vt 17.2244 2.3622
f 14/36/1 17/37/1 22/38/1 15/39/1 

usemtl Brick
v -0.05 0.06 -0.125
vt 1.9685 4.92126
v -0.05 0.06 -0.4375
vt 1.9685 17.2244
f 7/27/6 8/30/6 23/40/6 24/41/6 

vt -1.9685 4.72441
vt -1.9685 2.3622
f 8/21/5 20/18/5 19/42/5 23/43/5 

f 8/8/3 10/9/3 20/31/3

f 19/31/3 18/17/3 24/7/3 23/8/3 

vt 1.9685 2.3622
vt 1.9685 4.72441
f 13/18/2 7/21/2 24/44/2 18/45/2 

