# Alias OBJ Model File
# Exported from SketchUp, (c) 2000-2012 Trimble Navigation Limited
# File units = meters

mtllib modularBuildings_012.mtl

g Mesh1 Group1 Model

usemtl Green
v -0.0582343 0.205259 -1
vt -39.3701 0.283839
vn -0.245437 0.969413 9.9633e-033
v -0.0861038 0.196324 -1
vt -39.3701 -0.868394
vn -0.364465 0.931217 9.96364e-033
v -0.0861038 0.196324 9.02389e-017
vt 3.55271e-015 -0.868394
v -0.0582343 0.205259 9.02389e-017
vt 3.55271e-015 0.283839
f 1/1/1 2/2/2 3/3/2 4/4/1 

v 0 0.2125 -1
vt 0 8.36614
vn 0 0 -1
v 0 9.02389e-017 -1
vt 0 3.55271e-015
v -0.225 1.80478e-016 -1
vt 8.85827 7.10543e-015
v -0.223075 0.0277368 -1
vt 8.78248 1.092
v -0.217333 0.054999 -1
vt 8.55643 2.16532
v -0.207873 0.0813202 -1
vt 8.18397 3.20158
v -0.194856 0.10625 -1
vt 7.67148 4.18307
v -0.178505 0.129362 -1
vt 7.02774 5.09298
v -0.159099 0.15026 -1
vt 6.26374 5.91576
v -0.136971 0.168588 -1
vt 5.39257 6.63731
v -0.1125 0.18403 -1
vt 4.42913 7.24529
vt 3.38991 7.72931
vt 2.29269 8.08107
v -0.0293684 0.210682 -1
vt 1.15624 8.29457
f 5/5/3 6/6/3 7/7/3 8/8/3 9/9/3 10/10/3 11/11/3 12/12/3 13/13/3 14/14/3 15/15/3 2/16/3 1/17/3 16/18/3 

vt 39.3701 3.55271e-015
vn 1 0 -0
vt 39.3701 8.36614
v 0 0.2125 -0
v 0 0 -0
vt 0 0
f 6/19/4 5/20/4 17/5/4 18/21/4 

usemtl Dark_brick
v 1 0.2125 -1
vt -39.3701 8.36614
v 1 0 -1
vt -39.3701 0
f 19/22/3 20/23/3 6/6/3 5/5/3 

v 1 0.2125 -0
v 1 0 -0
vt 39.3701 0
f 21/5/4 22/21/4 20/24/4 19/20/4 

vn 0 0 1
f 17/5/5 18/21/5 22/24/5 21/20/5 

usemtl Green
vn 3.82972e-016 -2.48344e-016 1
v -0.0293684 0.210682 9.02389e-017
vt -1.15624 8.29457
vt -2.29269 8.08107
vt -3.38991 7.72931
v -0.1125 0.18403 9.02389e-017
vt -4.42913 7.24529
v -0.136971 0.168588 9.02389e-017
vt -5.39257 6.63731
v -0.159099 0.15026 9.02389e-017
vt -6.26374 5.91576
v -0.178505 0.129362 9.02389e-017
vt -7.02774 5.09298
v -0.194856 0.10625 9.02389e-017
vt -7.67148 4.18307
v -0.207873 0.0813202 9.02389e-017
vt -8.18397 3.20158
v -0.217333 0.054999 9.02389e-017
vt -8.55643 2.16532
v -0.223075 0.0277368 9.02389e-017
vt -8.78248 1.092
v -0.225 1.80478e-016 9.02389e-017
vt -8.85827 7.10543e-015
f 18/21/6 17/5/6 23/25/6 4/26/6 3/27/6 24/28/6 25/29/6 26/30/6 27/31/6 28/32/6 29/33/6 30/34/6 31/35/6 32/36/6 

vt -39.3701 0.516893
vn -0.0617839 0.99809 -1.35116e-016
vt -39.3701 -0.641556
vn -0.123445 0.992351 -6.76878e-017
vt 6.0813e-015 -0.641556
vt 0 0.516893
f 5/37/7 16/38/8 23/39/8 17/40/7 

vt -39.3701 0.395084
vt -39.3701 -0.761248
vt 3.55271e-015 -0.761248
vt 3.55271e-015 0.395084
f 16/41/8 1/42/1 4/43/1 23/44/8 

usemtl Dark_brick
vt 39.3701 -1.13243e-015
vn 1.35358e-016 1 -1.35358e-016
vt 39.3701 39.3701
vt -1.13243e-015 39.3701
vt -1.13243e-015 -1.13243e-015
f 21/45/9 19/46/9 5/47/9 17/48/9 

usemtl Green
vt -39.3701 0.190366
vt -39.3701 -0.956043
vn -0.478906 0.877866 3.48365e-032
vt 3.55271e-015 -0.956043
vt 3.55271e-015 0.190366
f 2/49/2 15/50/10 24/51/10 3/52/2 

vt -39.3701 0.120986
vt -39.3701 -1.01825
vn -0.586992 0.809592 3.48384e-032
vt 3.55271e-015 -1.01825
vt 3.55271e-015 0.120986
f 15/53/10 14/54/11 25/55/11 24/56/10 

vt -39.3701 0.0807217
vt -39.3701 -1.05046
vn -0.686801 0.726846 -0
vt 3.55271e-015 -1.05046
vt 3.55271e-015 0.0807217
f 14/57/11 13/58/12 26/59/12 25/60/11 

vt -39.3701 0.0728951
vt -39.3701 -1.04989
vn -0.776281 0.630387 -2.6649e-032
vt 3.55271e-015 -1.04989
vt 3.55271e-015 0.0728951
f 13/61/12 12/62/13 27/63/13 26/64/12 

vt -39.3701 0.0987611
vt -39.3701 -1.01585
vn -0.853322 0.521384 -5.55893e-032
vt 3.55271e-015 -1.01585
vt 3.55271e-015 0.0987611
f 12/65/13 11/66/14 28/67/14 27/68/13 

vt -39.3701 0.157231
vt -39.3701 -0.95
vn -0.915869 0.401477 -2.89402e-032
vt 3.55271e-015 -0.95
vt 3.55271e-015 0.157231
f 11/69/14 10/70/15 29/71/15 28/72/14 

vt -39.3701 0.244754
vt -39.3701 -0.856416
vn -0.962068 0.272809 -0
vt 3.55271e-015 -0.856416
vt 3.55271e-015 0.244754
f 10/73/15 9/74/16 30/75/16 29/76/15 

vt -39.3701 0.355423
vt -39.3701 -0.74144
vn -0.990433 0.137992 3.25719e-032
vt 3.55271e-015 -0.74144
vt 3.55271e-015 0.355423
f 9/77/16 8/78/17 31/79/17 30/80/16 

vt -39.3701 0.481348
vt -39.3701 -0.61328
vn -0.997601 0.0692324 6.49882e-032
vt 3.55271e-015 -0.61328
vt 3.55271e-015 0.481348
f 8/81/17 7/82/18 32/83/18 31/84/17 

vt 8.85827 39.3701
vn -6.01593e-016 -1 -4.51195e-017
vt 2.13729e-030 39.3701
vt 8.85827 -3.55271e-015
f 7/85/19 6/86/19 18/21/19 32/87/19 

usemtl Dark_brick
vt 1.60297e-031 39.3701
vn -4.51195e-017 -1 -4.51195e-017
vt -39.3701 39.3701
vt -39.3701 8.01483e-032
f 6/88/20 20/89/20 22/90/20 18/21/20 

