# Alias OBJ Model File
# Exported from SketchUp, (c) 2000-2012 Trimble Navigation Limited
# File units = meters

mtllib modularBuildings_025.mtl

g Mesh1 Group1 Model

usemtl Brick
v 0 0.2125 -1
vt 0 8.36614
vn 0 0 -1
v 0 0.8375 -1
vt 0 32.9724
v 1 0.8375 -1
vt -39.3701 32.9724
v 1 0.2125 -1
vt -39.3701 8.36614
f 1/1/1 2/2/1 3/3/1 4/4/1 

vn -1 0 -0
v 0 0.290625 -0.90625
vt -35.6791 11.4419
f 1/4/2 5/5/2 2/3/2

v 0 0.290625 -0.71875
vt -28.2972 11.4419
f 1/4/2 6/6/2 5/5/2

v 0 0.2125 -0.625
vt -24.6063 8.36614
f 7/7/2 6/6/2 1/4/2

v 0 0.61875 -0.71875
vt -28.2972 24.3602
f 6/6/2 7/7/2 8/8/2

v 0 0.643014 -0.721944
vt -28.423 25.3155
f 7/7/2 9/9/2 8/8/2

v 0 0.7125 -0.625
vt -24.6063 28.0512
f 10/10/2 9/9/2 7/7/2

v 0 0.665625 -0.73131
vt -28.7917 26.2057
f 10/10/2 11/11/2 9/9/2

v 0 0.685041 -0.746209
vt -29.3783 26.9701
f 10/10/2 12/12/2 11/11/2

v 0 0.69994 -0.765625
vt -30.1427 27.5567
f 10/10/2 13/13/2 12/12/2

f 10/10/2 2/3/2 13/13/2

v 0 0.7125 -0.375
vt -14.7638 28.0512
f 14/14/2 2/3/2 10/10/2

v 0 0.69994 -0.234375
vt -9.22736 27.5567
f 15/15/2 2/3/2 14/14/2

v 0 0.709306 -0.211764
vt -8.33718 27.9254
f 16/16/2 2/3/2 15/15/2

v 0 0.7125 -0.1875
vt -7.38189 28.0512
f 17/17/2 2/3/2 16/16/2

v 0 0.709306 -0.163236
vt -6.4266 27.9254
f 18/18/2 2/3/2 17/17/2

v 0 0.8375 -0
f 18/18/2 19/2/2 2/3/2

v 0 0.69994 -0.140625
vt -5.53642 27.5567
f 20/19/2 19/2/2 18/18/2

v 0 0.685041 -0.121209
vt -4.772 26.9701
f 21/20/2 19/2/2 20/19/2

v 0 0.665625 -0.10631
vt -4.18544 26.2057
f 22/21/2 19/2/2 21/20/2

v 0 0.643014 -0.0969445
vt -3.81671 25.3155
f 23/22/2 19/2/2 22/21/2

v 0 0.2125 -0
f 19/2/2 23/22/2 24/1/2

v 0 0.61875 -0.09375
vt -3.69094 24.3602
f 24/1/2 23/22/2 25/23/2

vt 0 24.6336
vn 0 -0.130526 -0.991445
vt 0 25.5971
vn 0 -0.258819 -0.965926
v 0.1 0.643014 -0.0969445
vt -3.93701 25.5971
v 0.1 0.61875 -0.09375
vt -3.93701 24.6336
f 25/24/3 23/25/4 26/26/4 27/27/3 

vt 0 24.8491
vt 0 25.8126
vn 0 -0.5 -0.866025
v 0.1 0.665625 -0.10631
vt -3.93701 25.8126
vt -3.93701 24.8491
f 23/28/4 22/29/5 28/30/5 26/31/4 

vt 0 23.3383
vt 0 24.3018
vn 0 -0.707107 -0.707107
v 0.1 0.685041 -0.121209
vt -3.93701 24.3018
vt -3.93701 23.3383
f 22/32/5 21/33/6 29/34/6 28/35/5 

vt 0 20.2043
vt 0 21.1678
vn 0 -0.866025 -0.5
v 0.1 0.69994 -0.140625
vt -3.93701 21.1678
vt -3.93701 20.2043
f 21/36/6 20/37/7 30/38/7 29/39/6 

vt 0 15.6605
vt 0 16.624
vn 0 -0.965926 -0.258819
v 0.1 0.709306 -0.163236
vt -3.93701 16.624
vt -3.93701 15.6605
f 20/40/7 18/41/8 31/42/8 30/43/7 

vt 0 10.0166
vt 0 10.9802
vn 0 -1 -0
v 0.1 0.7125 -0.1875
vt -3.93701 10.9802
vt -3.93701 10.0166
f 18/44/8 17/45/9 32/46/9 31/47/8 

vt 0 -3.65732
vt 0 -4.62085
vn 0 -0.965926 0.258819
v 0.1 0.709306 -0.211764
vt 3.93701 -4.62085
vt 3.93701 -3.65732
f 17/48/9 16/49/10 33/50/10 32/51/9 

vt 0 2.98405
vt 0 2.02052
vn 0 -0.866025 0.5
v 0.1 0.69994 -0.234375
vt 3.93701 2.02052
vt 3.93701 2.98405
f 16/52/10 15/53/11 34/54/11 33/55/10 

vt 0 9.45489
v 0 0.685041 -0.253791
vt 0 8.49136
vn 0 -0.707107 0.707107
v 0.1 0.685041 -0.253791
vt 3.93701 8.49136
vt 3.93701 9.45489
f 15/56/11 35/57/12 36/58/12 34/59/11 

vt -9.99178 26.9701
f 15/15/2 14/14/2 35/60/2

v 0 0.665625 -0.26869
vt -10.5783 26.2057
f 35/60/2 14/14/2 37/61/2

v 0 0.643014 -0.278056
vt -10.9471 25.3155
f 37/61/2 14/14/2 38/62/2

v 0 0.61875 -0.28125
vt -11.0728 24.3602
f 38/62/2 14/14/2 39/63/2

v 0 0.290625 -0.28125
vt -11.0728 11.4419
f 39/63/2 14/14/2 40/64/2

v 0 0.2125 -0.375
vt -14.7638 8.36614
f 41/65/2 40/64/2 14/14/2

v 0 0.290625 -0.09375
vt -3.69094 11.4419
f 41/65/2 42/66/2 40/64/2

f 24/1/2 42/66/2 41/65/2

f 42/66/2 24/1/2 25/23/2

vt 0 11.4419
vt 0 24.3602
vt -3.93701 24.3602
v 0.1 0.290625 -0.09375
vt -3.93701 11.4419
f 42/67/1 25/68/1 27/69/1 43/70/1 

usemtl Glass
v 0.1 0.290625 -0.28125
v 0.1 0.665625 -0.26869
v 0.1 0.643014 -0.278056
v 0.1 0.61875 -0.28125
f 44/64/2 43/66/2 27/23/2 26/22/2 28/21/2 29/20/2 30/19/2 31/18/2 32/17/2 33/16/2 34/15/2 36/60/2 45/61/2 46/62/2 47/63/2 

usemtl Brick
vt 0 11.0728
vn 0 1 -2.40637e-016
vt 0 3.69094
vt 3.93701 3.69094
vt 3.93701 11.0728
f 40/71/13 42/72/13 43/73/13 44/74/13 

vn 0 0 1
vt 3.93701 11.4419
vt 3.93701 24.3602
f 39/68/14 40/67/14 44/75/14 47/76/14 

vt 0 23.6701
vn 0 -0.258819 0.965926
vt 0 22.7065
vn 0 -0.130526 0.991445
vt 3.93701 22.7065
vt 3.93701 23.6701
f 38/77/15 39/78/16 47/79/16 46/80/15 

vt 0 20.1628
vn 0 -0.5 0.866025
vt 0 19.1992
vt 3.93701 19.1992
vt 3.93701 20.1628
f 37/81/17 38/82/15 46/83/15 45/84/17 

vt 0 15.3142
vt 0 14.3507
vt 3.93701 14.3507
vt 3.93701 15.3142
f 35/85/12 37/86/17 45/87/17 36/88/12 

usemtl Dark_brick
v 0 0 -0.375
vt -14.7638 0
v 0 0 -0
vt 0 0
f 24/1/2 41/65/2 48/89/2 49/90/2 

v -0.1 0.2125 -0.375
vt -3.93701 8.36614
v -0.1 0.10625 -0.375
vt -3.93701 4.18307
v -0.2 0.10625 -0.375
vt -7.87402 4.18307
v -0.2 0 -0.375
vt -7.87402 0
f 50/91/14 51/92/14 52/93/14 53/94/14 48/90/14 41/1/14 

v -0.1 0.2125 -0.625
v -0.1 0.10625 -0.625
vt -24.6063 4.18307
vt -14.7638 4.18307
f 54/7/2 55/95/2 51/96/2 50/65/2 

v 0 0 -0.625
v -0.2 0 -0.625
vt 7.87402 0
v -0.2 0.10625 -0.625
vt 7.87402 4.18307
vt 3.93701 4.18307
vt 3.93701 8.36614
f 7/1/1 56/90/1 57/97/1 58/98/1 55/99/1 54/100/1 

v 0 0 -1
vt -39.3701 0
vt -24.6063 0
f 59/101/2 56/102/2 7/7/2 1/4/2 

v 1 0 -0
vt 0 14.7638
vt 7.87402 14.7638
vt 7.87402 24.6063
vt 0 24.6063
vt 0 39.3701
v 1 0 -1
vt -39.3701 39.3701
f 60/101/9 49/90/9 48/103/9 53/104/9 57/105/9 56/106/9 59/107/9 61/108/9 

vt 39.3701 0
v 1 0.2125 -0
vt 39.3701 8.36614
f 60/109/14 62/110/14 24/1/14 49/90/14 

vn 1 0 -0
f 61/109/18 4/110/18 62/1/18 60/90/18 

f 59/90/1 1/1/1 4/4/1 61/101/1 

usemtl Brick
vt 39.3701 32.9724
v 1 0.8375 -0
f 4/110/18 3/111/18 63/2/18 62/1/18 

vt -1.19016e-014 39.3701
vn 3.60956e-016 1 3.60956e-016
vt -1.19016e-014 1.19016e-014
vt 39.3701 1.19016e-014
vt 39.3701 39.3701
f 2/112/19 19/113/19 63/114/19 3/115/19 

f 62/110/14 63/111/14 19/2/14 24/1/14 

usemtl Dark_brick
f 53/89/2 52/96/2 58/95/2 57/102/2 

vt -3.93701 14.7638
vn 0 1 -0
vt -3.93701 24.6063
vt -7.87402 24.6063
vt -7.87402 14.7638
f 51/116/20 55/117/20 58/118/20 52/119/20 

v 0.1 0.2125 -0.625
vt 3.93701 24.6063
v 0.1 0.2125 -0.375
vt 3.93701 14.7638
f 64/120/20 7/106/20 54/117/20 50/116/20 41/103/20 65/121/20 

usemtl Brick
vt 0 28.0512
v 0.1 0.7125 -0.625
vt 3.93701 28.0512
f 10/122/14 7/1/14 64/100/14 66/123/14 

usemtl Glass
v 0.1 0.7125 -0.375
f 67/14/2 66/10/2 64/7/2 65/65/2 

usemtl Brick
f 14/103/9 10/106/9 66/117/9 67/116/9 

vt -3.93701 28.0512
f 41/1/1 14/122/1 67/124/1 65/91/1 

v 0 0.709306 -0.788236
vt -31.0329 27.9254
f 13/13/2 2/3/2 68/125/2

v 0 0.7125 -0.8125
vt -31.9882 28.0512
f 68/125/2 2/3/2 69/126/2

v 0 0.709306 -0.836764
vt -32.9435 27.9254
f 69/126/2 2/3/2 70/127/2

v 0 0.69994 -0.859375
vt -33.8337 27.5567
f 70/127/2 2/3/2 71/128/2

v 0 0.685041 -0.878791
vt -34.5981 26.9701
f 71/128/2 2/3/2 72/129/2

v 0 0.665625 -0.89369
vt -35.1846 26.2057
f 72/129/2 2/3/2 73/130/2

v 0 0.643014 -0.903056
vt -35.5534 25.3155
f 73/130/2 2/3/2 74/131/2

v 0 0.61875 -0.90625
vt -35.6791 24.3602
f 74/131/2 2/3/2 75/132/2

f 75/132/2 2/3/2 5/5/2

v 0.1 0.290625 -0.90625
v 0.1 0.61875 -0.90625
f 75/68/14 5/67/14 76/75/14 77/76/14 

vt 0 35.6791
vt 0 28.2972
v 0.1 0.290625 -0.71875
vt 3.93701 28.2972
vt 3.93701 35.6791
f 5/133/20 6/134/20 78/135/20 76/136/20 

v 0.1 0.61875 -0.71875
f 6/67/1 8/68/1 79/69/1 78/70/1 

vt 0 27.8454
vt 0 28.8089
v 0.1 0.643014 -0.721944
vt -3.93701 28.8089
vt -3.93701 27.8454
f 8/137/3 9/138/4 80/139/4 79/140/3 

vt 0 34.2655
vt 0 35.229
v 0.1 0.665625 -0.73131
vt -3.93701 35.229
vt -3.93701 34.2655
f 9/141/4 11/142/5 81/143/5 80/144/4 

vt 0 38.3177
vt 0 39.2812
v 0.1 0.685041 -0.746209
vt -3.93701 39.2812
vt -3.93701 38.3177
f 11/145/5 12/146/6 82/147/6 81/148/5 

vt 0 39.7257
vt 0 40.6893
v 0.1 0.69994 -0.765625
vt -3.93701 40.6893
vt -3.93701 39.7257
f 12/149/6 13/150/7 83/151/7 82/152/6 

vt 0 38.3937
vt 0 39.3573
v 0.1 0.709306 -0.788236
vt -3.93701 39.3573
vt -3.93701 38.3937
f 13/153/7 68/154/8 84/155/8 83/156/7 

vt 0 34.4124
vt 0 35.3759
v 0.1 0.7125 -0.8125
vt -3.93701 35.3759
vt -3.93701 34.4124
f 68/157/8 69/158/9 85/159/9 84/160/8 

vt 0 -28.0531
vt 0 -29.0166
v 0.1 0.709306 -0.836764
vt 3.93701 -29.0166
vt 3.93701 -28.0531
f 69/161/9 70/162/10 86/163/10 85/164/9 

vt 0 -19.7492
vt 0 -20.7127
v 0.1 0.69994 -0.859375
vt 3.93701 -20.7127
vt 3.93701 -19.7492
f 70/165/10 71/166/11 87/167/11 86/168/10 

vt 0 -10.0666
vt 0 -11.0301
v 0.1 0.685041 -0.878791
vt 3.93701 -11.0301
vt 3.93701 -10.0666
f 71/169/11 72/170/12 88/171/12 87/172/11 

vt 0 0.334864
vt 0 -0.628666
v 0.1 0.665625 -0.89369
vt 3.93701 -0.628666
vt 3.93701 0.334864
f 72/173/12 73/174/17 89/175/17 88/176/12 

vt 0 10.7463
vt 0 9.78281
v 0.1 0.643014 -0.903056
vt 3.93701 9.78281
vt 3.93701 10.7463
f 73/177/17 74/178/15 90/179/15 89/180/17 

vt 0 20.4583
vt 0 19.4948
vt 3.93701 19.4948
vt 3.93701 20.4583
f 74/181/15 75/182/16 77/183/16 90/184/15 

usemtl Glass
f 76/5/2 78/6/2 79/8/2 80/9/2 81/11/2 82/12/2 83/13/2 84/125/2 85/126/2 86/127/2 87/128/2 88/129/2 89/130/2 90/131/2 77/132/2 

