# Alias OBJ Model File
# Exported from SketchUp, (c) 2000-2012 Trimble Navigation Limited
# File units = meters

mtllib modularBuildings_002.mtl

g Mesh1 Group1 Model

usemtl Brick
v 0 0.2125 -0.9375
vt -36.9094 8.36614
vn -1 0 -0
v 0 0.10625 -0.9375
vt -36.9094 4.18307
v 0 0.10625 -0.0625
vt -2.46063 4.18307
v 0 0.2125 -0.0625
vt -2.46063 8.36614
f 1/1/1 2/2/1 3/3/1 4/4/1 

vt -26.0989 8.36614
vn -0.707107 0 -0.707107
v 0.0625 0.2125 -1
vt -29.5788 8.36614
v 0.0625 0.10625 -1
vt -29.5788 4.18307
vt -26.0989 4.18307
f 1/5/2 5/6/2 6/7/2 2/8/2 

vt -4.06204e-015 2.46063
vn 4.85533e-016 1 6.77191e-016
v 0.0625 0.2125 -1.44382e-015
vt 2.46063 6.25089e-014
v 0.9375 0.2125 -1.44382e-015
vt 36.9094 6.25089e-014
v 1 0.2125 -0.0625
vt 39.3701 2.46063
v 1 0.2125 -0.9375
vt 39.3701 36.9094
v 0.9375 0.2125 -1
vt 36.9094 39.3701
vt 2.46063 39.3701
vt -4.06204e-015 36.9094
f 4/9/3 7/10/3 8/11/3 9/12/3 10/13/3 11/14/3 5/15/3 1/16/3 

vt 1.73993 8.36614
vn -0.707107 8.1675e-015 0.707107
vt -1.73993 8.36614
vt -1.73993 4.18307
v 0.0625 0.10625 -0
vt 1.73993 4.18307
f 7/17/4 4/18/4 3/19/4 12/20/4 

usemtl FrontColor
vt 2.46063 1.08499e-014
vn -2.19768e-015 1 2.59377e-015
v 0.9375 0.10625 -1.44382e-015
vt 36.9094 6.76933e-014
v 1 0.10625 -0.0625
v 1 0.10625 -0.9375
v 0.9375 0.10625 -1
vt 9.19304e-015 36.9094
vt 9.19304e-015 2.46063
f 12/21/5 13/22/5 14/12/5 15/13/5 16/14/5 6/15/5 2/23/5 3/24/5 

usemtl Dark_brick
v 1 0.10625 -1.44382e-015
vt 39.3701 4.18307
vn 9.78863e-016 -6.79446e-015 1
vt 36.9094 4.18307
vt 2.46063 4.18307
v 0 0.10625 -0
vt 0 4.18307
v 0 0 -1.44382e-015
vt 5.56419e-029 -3.8622e-028
v 1 0 -1.44382e-015
vt 39.3701 -1.24376e-028
f 17/25/6 13/26/6 12/27/6 18/28/6 19/29/6 20/30/6 

vt 39.3701 5.68434e-014
vn 0 1 -0
vt 36.9094 5.68434e-014
f 17/31/7 14/12/7 13/32/7

v 1 0.10625 -1
vn 1 0 -0
vt 5.68434e-014 4.18307
vt 5.68434e-014 0
v 1 0 -1
vt 39.3701 0
f 21/25/8 15/26/8 14/27/8 17/33/8 20/34/8 22/35/8 

vt 39.3701 39.3701
vn 0 1 5.77529e-015
f 21/36/9 16/14/9 15/13/9

v 0 0.10625 -1
vt -3.85379e-014 4.18307
vn -9.78863e-016 -6.79446e-015 -1
vt -39.3701 4.18307
vt -39.3701 2.67498e-013
v 0 0 -1
vt -3.85379e-014 2.67498e-013
f 23/37/10 6/3/10 16/2/10 21/38/10 22/39/10 24/40/10 

vt 0 39.3701
vt 0 36.9094
f 23/41/7 2/42/7 6/15/7

vt -39.3701 0
vt -5.68434e-014 0
f 18/28/1 3/3/1 2/2/1 23/38/1 24/43/1 19/44/1 

vt -2.41585e-014 -2.41585e-014
vn 5.77529e-015 1 -5.77529e-015
vt 2.46063 -2.41585e-014
vt -2.41585e-014 2.46063
f 18/45/11 12/46/11 3/47/11

vt -39.3701 5.68434e-014
vn 0 -1 -0
vt 0 5.68434e-014
vt -39.3701 39.3701
f 20/48/12 19/49/12 24/41/12 22/50/12 

usemtl Brick
vn -8.25042e-016 6.79446e-015 -1
f 11/1/13 16/2/13 6/3/13 5/4/13 

vn 0.707107 4.08375e-015 -0.707107
f 11/17/14 10/18/14 15/19/14 16/20/14 

vt 2.46063 8.36614
vt 36.9094 8.36614
f 9/51/8 14/27/8 15/26/8 10/52/8 

vt 29.5788 8.36614
vn 0.707107 0 0.707107
vt 26.0989 8.36614
vt 26.0989 4.18307
vt 29.5788 4.18307
f 9/53/15 8/54/15 13/55/15 14/56/15 

vn 8.25042e-016 6.79446e-015 1
f 7/51/16 12/27/16 13/26/16 8/52/16 

