# Alias OBJ Model File
# Exported from SketchUp, (c) 2000-2012 Trimble Navigation Limited
# File units = meters

mtllib modularBuildings_027.mtl

g Mesh1 Group1 Model

usemtl Dark_brick
v -0.1 0.10625 -0.375
vt -3.93701 14.7638
vn 0 1 -0
v -0.1 0.10625 -0.625
vt -3.93701 24.6063
v -0.2 0.10625 -0.625
vt -7.87402 24.6063
v -0.2 0.10625 -0.375
vt -7.87402 14.7638
f 1/1/1 2/2/1 3/3/1 4/4/1 

v -0.1 0.2125 -0.625
vt -24.6063 8.36614
vn -1 0 -0
vt -24.6063 4.18307
vt -14.7638 4.18307
v -0.1 0.2125 -0.375
vt -14.7638 8.36614
f 5/5/2 2/6/2 1/7/2 6/8/2 

v 0 0.2125 -0.625
vt 0 8.36614
vn 0 0 -1
v 0 0 -0.625
vt 0 0
v -0.2 0 -0.625
vt 7.87402 0
vt 7.87402 4.18307
vt 3.93701 4.18307
vt 3.93701 8.36614
f 7/9/3 8/10/3 9/11/3 3/12/3 2/13/3 5/14/3 

v 0 0 -1
vt -39.3701 0
vt -24.6063 0
v 0 0.2125 -1
vt -39.3701 8.36614
f 10/15/2 8/16/2 7/5/2 11/17/2 

v 1 0 -0
vn 0 -1 -0
v 0 0 -0
v 0 0 -0.375
vt 0 14.7638
v -0.2 0 -0.375
vt 7.87402 14.7638
vt 7.87402 24.6063
vt 0 24.6063
vt 0 39.3701
v 1 0 -1
vt -39.3701 39.3701
f 12/15/4 13/10/4 14/18/4 15/19/4 9/20/4 8/21/4 10/22/4 16/23/4 

vt 39.3701 0
vn 0 0 1
v 1 0.2125 -0
vt 39.3701 8.36614
v 0 0.2125 -0
f 12/24/5 17/25/5 18/9/5 13/10/5 

vn 1 0 -0
v 1 0.2125 -1
f 16/24/6 19/25/6 17/9/6 12/10/6 

f 10/10/3 11/9/3 19/17/3 16/15/3 

usemtl Brick
v 0 0.8375 -1
vt 0 32.9724
v 1 0.8375 -1
vt -39.3701 32.9724
f 11/9/3 20/26/3 21/27/3 19/17/3 

v 0 0.8375 -0
v 0 0.7125 -0.625
vt -24.6063 28.0512
v 0 0.7125 -0.375
vt -14.7638 28.0512
v 0 0.2125 -0.375
f 18/9/2 22/26/2 20/27/2 11/17/2 7/5/2 23/28/2 24/29/2 25/8/2 

v 1 0.8375 -0
vt 39.3701 32.9724
f 17/25/5 26/30/5 22/26/5 18/9/5 

f 19/25/6 21/30/6 26/26/6 17/9/6 

vt -1.19016e-014 39.3701
vn 3.60956e-016 1 3.60956e-016
vt -1.19016e-014 1.19016e-014
vt 39.3701 1.19016e-014
vt 39.3701 39.3701
f 20/31/7 22/32/7 26/33/7 21/34/7 

vt 0 28.0512
v 0.1 0.2125 -0.625
v 0.1 0.7125 -0.625
vt 3.93701 28.0512
f 23/35/5 7/9/5 27/14/5 28/36/5 

usemtl Dark_brick
vt 3.93701 24.6063
v 0.1 0.2125 -0.375
vt 3.93701 14.7638
f 27/37/1 7/21/1 5/2/1 6/1/1 25/18/1 29/38/1 

vt -3.93701 8.36614
vt -3.93701 4.18307
vt -7.87402 4.18307
vt -7.87402 0
f 6/39/5 1/40/5 4/41/5 15/42/5 14/10/5 25/9/5 

vt -14.7638 0
f 15/43/2 4/7/2 3/6/2 9/16/2 

f 18/9/2 25/8/2 14/43/2 13/10/2 

usemtl Brick
v 0.1 0.7125 -0.375
vt -3.93701 28.0512
f 25/9/3 24/35/3 30/44/3 29/39/3 

f 24/18/4 23/21/4 28/2/4 30/1/4 

usemtl Glass
f 30/29/2 28/28/2 27/5/2 29/8/2 

