# Alias OBJ Model File
# Exported from SketchUp, (c) 2000-2012 Trimble Navigation Limited
# File units = meters

mtllib modularBuildings_011.mtl

g Mesh1 Group1 Model

usemtl Brick
v 0.125 0.2125 -0.875
vt 34.4488 8.36614
vn 1 0 -0
v 0.125 0.2125 -0.125
vt 4.92126 8.36614
v 0.125 0.10625 -0.125
vt 4.92126 4.18307
v 0.125 0.10625 -0.875
vt 34.4488 4.18307
f 1/1/1 2/2/1 3/3/1 4/4/1 

vt 4.92126 34.4488
vn 0 1 -0
v 0 0.2125 -1
vt 0 39.3701
vt 4.92126 4.92126
f 1/5/2 5/6/2 2/7/2

v 1 0.2125 -1
vt 39.3701 39.3701
f 5/6/2 1/5/2 6/8/2

v 0.875 0.2125 -0.875
vt 34.4488 34.4488
f 6/8/2 1/5/2 7/9/2

vn 0 0 1
v 0.875 0.10625 -0.875
f 7/1/3 1/2/3 4/3/3 8/4/3 

v 0.875 0.10625 -0.125
vt 34.4488 4.92126
f 9/10/2 8/9/2 4/5/2 3/7/2 

v 0.875 0.2125 -0.125
vt -4.92126 8.36614
vn -1 0 -0
vt -34.4488 8.36614
vt -34.4488 4.18307
vt -4.92126 4.18307
f 10/11/4 7/12/4 8/13/4 9/14/4 

v 1 0.2125 -0
vt 39.3701 0
f 10/10/2 11/15/2 7/9/2

f 2/7/2 11/15/2 10/10/2

v 0 0.2125 -0
vt 0 0
f 2/7/2 12/16/2 11/15/2

f 12/16/2 2/7/2 5/6/2

v 0 0 -0
vt 0 8.36614
vt -39.3701 8.36614
v 0 0 -1
vt -39.3701 0
f 13/16/4 12/17/4 5/18/4 14/19/4 

v 1 0 -0
vt 39.3701 8.36614
f 15/15/3 11/20/3 12/17/3 13/16/3 

vt 7.59317e-046 1.67187e-014
vn 1 -4.24654e-016 1.92866e-047
v 1 0 -1
vt 39.3701 1.67187e-014
vt 7.59317e-046 8.36614
f 15/21/5 16/22/5 6/20/5 11/23/5 

vn 0 -1 -0
vt -39.3701 39.3701
f 15/19/6 13/16/6 14/6/6 16/24/6 

vn 0 0 -1
f 14/16/7 5/17/7 6/18/7 16/19/7 

f 6/8/2 7/9/2 11/15/2

f 2/11/7 10/12/7 9/13/7 3/14/7 

