# Alias OBJ Model File
# Exported from SketchUp, (c) 2000-2012 Trimble Navigation Limited
# File units = meters

mtllib modularBuildings_079.mtl

g Mesh1 Group1 Model

usemtl Wood
v 0 0 -0
vt 0 0
vn 0 0 1
v 0.05 0 -0
vt 1.9685 0
v 0.05 0.5 -0
vt 1.9685 19.685
v 0 0.5 -0
vt 0 19.685
f 1/1/1 2/2/1 3/3/1 4/4/1 

v 0 0 -0.25
vt 0 9.84252
vn 0 -1 -0
v 0.05 0 -0.25
vt -1.9685 9.84252
vt -1.9685 0
f 5/5/2 6/6/2 2/7/2 1/1/2 

vn 0 0 -1
v 0 0.5 -0.25
v 0.05 0.5 -0.25
vt -1.9685 19.685
f 6/7/3 5/1/3 7/4/3 8/8/3 

vt -9.84252 0
vn -1 0 -0
v 0 0.0542359 -0.195764
vt -7.70725 2.13527
vt -9.84252 19.685
f 5/9/4 9/10/4 7/11/4

v 0 0.0542359 -0.0542359
vt -2.13527 2.13527
f 5/9/4 10/12/4 9/10/4

f 1/1/4 10/12/4 5/9/4

v 0 0.445764 -0.0542359
vt -2.13527 17.5498
f 10/12/4 1/1/4 11/13/4

f 4/4/4 11/13/4 1/1/4

f 11/13/4 4/4/4 7/11/4

vt 1.9685 9.84252
vn 0 1 -0
f 8/14/5 7/5/5 4/1/5 3/2/5 

vn 1 0 -0
vt 9.84252 0
vt 9.84252 19.685
f 2/1/6 6/15/6 8/16/6 3/4/6 

v 0 0.445764 -0.195764
vt -7.70725 17.5498
f 11/13/4 7/11/4 12/17/4

f 12/17/4 7/11/4 9/10/4

vt 0 17.5498
vt 0 2.13527
v 0.025 0.0542359 -0.195764
vt 0.984252 2.13527
v 0.025 0.445764 -0.195764
vt 0.984252 17.5498
f 12/18/1 9/19/1 13/20/1 14/21/1 

vt 0 7.70725
vn 0 1 1.59401e-016
v 0.025 0.0542359 -0.0542359
vt 0.984252 7.70725
f 9/22/7 10/19/7 15/20/7 13/23/7 

v 0.025 0.445764 -0.0542359
vt -0.984252 17.5498
vt -0.984252 2.13527
f 10/19/3 11/18/3 16/24/3 15/25/3 

vt -0.984252 7.70725
f 11/19/2 12/22/2 14/26/2 16/25/2 

f 16/13/4 14/17/4 13/10/4 15/12/4 

