# Alias OBJ Model File
# Exported from SketchUp, (c) 2000-2012 Trimble Navigation Limited
# File units = meters

mtllib modularBuildings_016.mtl

g Mesh1 Group1 Model

usemtl Brick
v 1 0.10625 -0
vt 39.3701 1.58937e-016
vn 0 1 3.79953e-017
v 1 0.10625 -1
vt 39.3701 39.3701
v 0 0.10625 -1
vt 0 39.3701
v 0 0.10625 -0
vt 0 1.58937e-016
f 1/1/1 2/2/1 3/3/1 4/4/1 

v 1 0 -0
vt 0 0
vn 1 0 -0
v 1 0 -1
vt 39.3701 0
vt 39.3701 4.18307
vt 0 4.18307
f 5/5/2 6/6/2 2/7/2 1/8/2 

vt -39.3701 0
vn 0 -1 -0
v 0 0 -0
v 0 0 -1
vt -39.3701 39.3701
f 5/9/3 7/5/3 8/3/3 6/10/3 

vn 0 0 1
f 5/6/4 1/7/4 4/8/4 7/5/4 

vn -1 0 -0
vt -39.3701 4.18307
f 7/5/5 4/8/5 3/11/5 8/9/5 

vn 0 0 -1
f 8/5/6 3/8/6 2/11/6 6/9/6 

