# Alias OBJ Model File
# Exported from SketchUp, (c) 2000-2012 Trimble Navigation Limited
# File units = meters

mtllib modularBuildings_095.mtl

g Mesh1 Group1 Model

usemtl Metal
v 0 0.392066 -0.0741835
vt 8.4811e-031 11.7137
vn 1.57559e-031 -0.707107 -0.707107
v 0 0.410511 -0.0982202
vt 1.12291e-030 12.9065
vn 1.9297e-031 -0.866025 -0.5
v 0.05 0.410511 -0.0982202
vt -1.9685 12.9065
v 0.05 0.392066 -0.0741835
vt -1.9685 11.7137
f 1/1/1 2/2/2 3/3/2 4/4/1 

vt -2.92061 15.4357
vn -1 0 -0
v 0 0.445316 -0.078125
vt -3.07579 17.5321
vt -3.86694 16.1618
f 1/5/3 5/6/3 2/7/3

v 0 0.36803 -0.0557395
vt -2.19447 14.4894
f 6/8/3 5/6/3 1/5/3

v 0 0.420485 -0.0457646
vt -1.80175 16.5545
f 6/8/3 7/9/3 5/6/3

v 0 0.340038 -0.0441451
vt -1.738 13.3873
f 8/10/3 7/9/3 6/8/3

v 0 0.307388 -0.0398466
vt -1.56876 12.1019
f 9/11/3 7/9/3 8/10/3

v 0 0.388125 -0.0209335
vt -0.824155 15.2805
f 7/9/3 9/11/3 10/12/3

v 0 0.0398466 -0.0398466
vt -1.56876 1.56876
f 11/13/3 10/12/3 9/11/3

v 0 0.35044 -0.00532409
vt -0.20961 13.7969
f 11/13/3 12/14/3 10/12/3

v 0 0 -0
vt 0 0
f 13/15/3 12/14/3 11/13/3

v 0 0.31 -0
vt 0 12.2047
f 12/14/3 13/15/3 14/16/3

v 0.05 0 -0
vt 1.9685 0
vn 0 0 1
v 0.05 0.31 -0
vt 1.9685 12.2047
f 15/17/4 16/18/4 14/16/4 13/15/4 

vn 1 0 -0
v 0.05 0.0398466 -0.0398466
vt 1.56876 1.56876
f 15/15/5 17/19/5 16/16/5

v 0.05 0 -0.3125
vt 12.3031 0
f 17/19/5 15/15/5 18/20/5

vt -1.9685 12.3031
vn 0 -1 -0
vt -1.9685 0
v 0 0 -0.3125
vt 0 12.3031
f 18/21/6 15/22/6 13/15/6 19/23/6 

vt -12.3031 0
f 13/15/3 11/13/3 19/24/3

v 0 0.0398466 -0.272653
vt -10.7344 1.56876
f 19/24/3 11/13/3 20/25/3

vt 3.49556e-031 10.7344
vn -2.22822e-031 1 -0
vt 3.49556e-031 1.56876
vt 1.9685 1.56876
v 0.05 0.0398466 -0.272653
vt 1.9685 10.7344
f 20/26/7 11/27/7 17/28/7 21/29/7 

vt -1.28341e-040 1.56876
vn -8.18101e-041 0 -1
vt -1.28341e-040 12.1019
v 0.05 0.307388 -0.0398466
vt -1.9685 12.1019
vt -1.9685 1.56876
f 11/30/8 9/31/8 22/32/8 17/33/8 

vt 4.60199e-032 12.2031
vn 2.90842e-032 -0.130526 -0.991445
vt 5.09843e-032 13.4997
vn 5.76707e-032 -0.258819 -0.965926
v 0.05 0.340038 -0.0441451
vt -1.9685 13.4997
vt -1.9685 12.2031
f 9/34/9 8/35/10 23/36/10 22/37/9 

vt 1.6041e-031 13.0334
vt 2.02541e-031 14.2262
vn 1.11411e-031 -0.5 -0.866025
v 0.05 0.36803 -0.0557395
vt -1.9685 14.2262
vt -1.9685 13.0334
f 8/38/10 6/39/11 24/40/11 23/41/10 

vt 3.75205e-031 12.8311
vt 4.99359e-031 14.0239
vt -1.9685 14.0239
vt -1.9685 12.8311
f 6/42/11 1/43/1 4/44/1 24/45/11 

v 0.05 0.445316 -0.078125
vt 3.07579 17.5321
vt 2.19447 14.4894
vt 2.92061 15.4357
f 25/46/5 24/47/5 4/48/5

v 0.05 0.420485 -0.0457646
vt 1.80175 16.5545
f 26/49/5 24/47/5 25/46/5

vt 1.738 13.3873
f 26/49/5 23/50/5 24/47/5

vt 1.56876 12.1019
f 26/49/5 22/51/5 23/50/5

v 0.05 0.388125 -0.0209335
vt 0.824155 15.2805
f 27/52/5 22/51/5 26/49/5

f 22/51/5 27/52/5 17/19/5

v 0.05 0.35044 -0.00532409
vt 0.20961 13.7969
f 28/53/5 17/19/5 27/52/5

f 16/16/5 17/19/5 28/53/5

vt 1.9685 12.1003
vn 0 0.130526 0.991445
vt 1.9685 13.7062
vn 0 0.258819 0.965926
vt 0 13.7062
vt 0 12.1003
f 16/54/12 28/55/13 12/56/13 14/57/12 

vt 1.9685 12.8269
vt 1.9685 14.4327
vn 0 0.5 0.866025
vt 0 14.4327
vt 0 12.8269
f 28/58/13 27/59/14 10/60/14 12/61/13 

vt 1.9685 12.6246
vt 1.9685 14.2304
vn 0 0.707107 0.707107
vt 0 14.2304
vt 0 12.6246
f 27/62/14 26/63/15 7/64/15 10/65/14 

vt 1.9685 11.5072
vt 1.9685 13.1131
vn 0 0.866025 0.5
vt 0 13.1131
vt 0 11.5072
f 26/66/15 25/67/16 5/68/16 7/69/15 

vt 1.9685 9.55092
v 0.05 0.460926 -0.11581
vt 1.9685 11.1568
vn 0 0.965926 0.258819
v 0 0.460926 -0.11581
vt 0 11.1568
vt 0 9.55092
f 25/70/16 29/71/17 30/72/17 5/73/16 

vt 3.86694 16.1618
vt 4.55943 18.1467
f 25/46/5 3/74/5 29/75/5

f 25/46/5 4/48/5 3/74/5

v 0.05 0.422105 -0.126212
vt 4.96896 16.6183
f 29/75/5 3/74/5 31/76/5

vt 2.08018e-030 9.75745
v 0 0.422105 -0.126212
vt 2.67301e-030 10.9503
vn 2.1523e-031 -0.965926 -0.258819
vt -1.9685 10.9503
vt -1.9685 9.75745
f 2/77/2 32/78/18 31/79/18 3/80/2 

vt -4.55943 18.1467
vt -4.96896 16.6183
f 2/7/3 30/81/3 32/82/3

f 2/7/3 5/6/3 30/81/3

v 0 0.46625 -0.15625
vt -6.15157 18.3563
f 32/82/3 30/81/3 33/83/3

vt 1.9685 6.88904
v 0.05 0.46625 -0.15625
vt 1.9685 8.49492
vn 0 1 -7.45058e-009
vt 0 8.49492
vt 0 6.88904
f 29/84/17 34/85/19 33/86/19 30/87/17 

vt 6.15157 18.3563
f 29/75/5 31/76/5 34/88/5

v 0.05 0.42606 -0.15625
vt 6.15157 16.774
f 34/88/5 31/76/5 35/89/5

vt 8.40999e-030 7.09557
v 0 0.42606 -0.15625
vt 1.04116e-029 8.28839
vn 2.22822e-031 -1 7.45057e-009
vt -1.9685 8.28839
vt -1.9685 7.09557
f 32/90/18 36/91/20 35/92/20 31/93/18 

vt -6.15157 16.774
f 32/82/3 33/83/3 36/94/3

v 0 0.422105 -0.186288
vt -7.33419 16.6183
f 36/94/3 33/83/3 37/95/3

v 0 0.460926 -0.19669
vt -7.74372 18.1467
f 37/95/3 33/83/3 38/96/3

vt -1.9685 -3.70297
v 0.05 0.460926 -0.19669
vt -1.9685 -5.30885
vn 0 0.965926 -0.258819
vt 0 -5.30885
vt 0 -3.70297
f 34/97/19 39/98/21 38/99/21 33/100/19 

v 0.05 0.422105 -0.186288
vt 7.33419 16.6183
vt 7.74372 18.1467
f 34/88/5 40/101/5 39/102/5

f 34/88/5 35/89/5 40/101/5

vt 1.04116e-029 -3.9095
vt 1.24131e-029 -5.10232
vn 2.1523e-031 -0.965926 0.258819
vt 1.9685 -5.10232
vt 1.9685 -3.9095
f 36/103/20 37/104/22 40/105/22 35/106/20 

vt 3.94536e-030 -0.416358
v 0 0.410511 -0.21428
vt 4.53818e-030 -1.60918
vn 1.9297e-031 -0.866025 0.5
v 0.05 0.410511 -0.21428
vt 1.9685 -1.60918
vt 1.9685 -0.416358
f 37/107/22 41/108/23 42/109/23 40/110/22 

vt -8.43621 16.1618
f 37/95/3 38/96/3 41/111/3

v 0 0.445316 -0.234375
vt -9.22736 17.5321
f 41/111/3 38/96/3 43/112/3

vt -1.9685 -0.209827
v 0.05 0.445316 -0.234375
vt -1.9685 -1.81571
vn 0 0.866025 -0.5
vt 0 -1.81571
vt 0 -0.209827
f 39/113/21 44/114/24 43/115/24 38/116/21 

vt 8.43621 16.1618
vt 9.22736 17.5321
f 39/102/5 42/117/5 44/118/5

f 39/102/5 40/101/5 42/117/5

v 0.05 0.392066 -0.238316
vt 9.38254 15.4357
f 44/118/5 42/117/5 45/119/5

vt 2.44977e-030 3.1458
v 0 0.392066 -0.238316
vt 2.72458e-030 1.95298
vn 1.57559e-031 -0.707107 0.707107
vt 1.9685 1.95298
vt 1.9685 3.1458
f 41/120/23 46/121/25 45/122/25 42/123/23 

vt -9.38254 15.4357
f 41/111/3 43/112/3 46/124/3

v 0 0.420485 -0.266735
vt -10.5014 16.5545
f 46/124/3 43/112/3 47/125/3

vt -1.9685 3.35233
v 0.05 0.420485 -0.266735
vt -1.9685 1.74645
vn 0 0.707107 -0.707107
vt 0 1.74645
vt 0 3.35233
f 44/126/24 48/127/26 47/128/26 43/129/24 

vt 10.5014 16.5545
f 44/118/5 45/119/5 48/130/5

v 0.05 0.36803 -0.256761
vt 10.1087 14.4894
f 48/130/5 45/119/5 49/131/5

vt 1.6042e-030 6.53423
v 0 0.36803 -0.256761
vt 1.72836e-030 5.34141
vn 1.11411e-031 -0.5 0.866025
vt 1.9685 5.34141
vt 1.9685 6.53423
f 46/132/25 50/133/27 49/134/27 45/135/25 

vt -10.1087 14.4894
f 46/124/3 47/125/3 50/136/3

v 0 0.340038 -0.268355
vt -10.5652 13.3873
f 50/136/3 47/125/3 51/137/3

v 0 0.388125 -0.291566
vt -11.479 15.2805
f 51/137/3 47/125/3 52/138/3

vt -1.9685 6.74076
v 0.05 0.388125 -0.291566
vt -1.9685 5.13488
vn 0 0.5 -0.866025
vt 0 5.13488
vt 0 6.74076
f 48/139/26 53/140/28 52/141/28 47/142/26 

v 0.05 0.340038 -0.268355
vt 10.5652 13.3873
vt 11.479 15.2805
f 48/130/5 54/143/5 53/144/5

f 48/130/5 49/131/5 54/143/5

vt 9.32992e-031 9.518
vt 9.75122e-031 8.32518
vn 5.76707e-032 -0.258819 0.965926
vt 1.9685 8.32518
vt 1.9685 9.518
f 50/145/27 51/146/29 54/147/29 49/148/27 

vt 3.0993e-031 11.8938
v 0 0.307388 -0.272653
vt 3.14895e-031 10.5973
vn 2.90842e-032 -0.130526 0.991445
v 0.05 0.307388 -0.272653
vt 1.9685 10.5973
vt 1.9685 11.8938
f 51/149/29 55/150/30 56/151/30 54/152/29 

vt -10.7344 12.1019
f 51/137/3 52/138/3 55/153/3

f 55/153/3 52/138/3 20/25/3

f 19/24/3 20/25/3 52/138/3

v 0 0.35044 -0.307176
vt -12.0935 13.7969
f 19/24/3 52/138/3 57/154/3

vt -1.9685 9.72453
v 0.05 0.35044 -0.307176
vt -1.9685 8.11865
vn 0 0.258819 -0.965926
vt 0 8.11865
vt 0 9.72453
f 53/155/28 58/156/31 57/157/31 52/158/28 

vt 12.0935 13.7969
f 53/144/5 18/20/5 58/159/5

vt 10.7344 12.1019
f 56/160/5 18/20/5 53/144/5

vt 10.7344 1.56876
f 21/161/5 18/20/5 56/160/5

f 17/19/5 18/20/5 21/161/5

vt 8.78181e-040 12.1019
vn 8.18101e-041 0 1
vt 8.78181e-040 1.56876
vt 1.9685 12.1019
f 55/162/32 20/163/32 21/28/32 56/164/32 

f 53/144/5 54/143/5 56/160/5

v 0.05 0.31 -0.3125
vt 12.3031 12.2047
f 58/159/5 18/20/5 59/165/5

vt -1.9685 12.2047
vn 0 0 -1
v 0 0.31 -0.3125
f 59/166/33 18/22/33 19/15/33 60/16/33 

vt -12.3031 12.2047
f 19/24/3 57/154/3 60/167/3

vt -1.9685 12.1003
vt -1.9685 10.4944
vn 0 0.130526 -0.991445
vt 0 10.4944
f 58/168/31 59/169/34 60/170/34 57/57/31 

