# Alias OBJ Model File
# Exported from SketchUp, (c) 2000-2012 Trimble Navigation Limited
# File units = meters

mtllib modularBuildings_033.mtl

g Mesh1 Group1 Model

usemtl Glass
v 0.1 0.5 -0.875
vt -34.4488 19.685
vn -1 0 -0
v 0.1 0.12 -0.875
vt -34.4488 4.72441
v 0.1 0.12 -0.5625
vt -22.1457 4.72441
v 0.1 0.5 -0.5625
vt -22.1457 19.685
f 1/1/1 2/2/1 3/3/1 4/4/1 

usemtl Brick
v 0 0.5 -0.875
vt 0 19.685
vn 0 0 1
v 0 0.444444 -0.875
vt 0 17.4978
v 0 0.375 -0.875
vt 0 14.7638
v 0 0.12 -0.875
vt 0 4.72441
vt 3.93701 4.72441
vt 3.93701 19.685
f 5/5/2 6/6/2 7/7/2 8/8/2 2/9/2 1/10/2 

v 0 0.625 -1
vt -39.3701 24.6063
vt -34.4488 17.4978
f 5/1/1 9/11/1 6/12/1

v 0 0.5 -0.5625
f 10/4/1 9/11/1 5/1/1

v 0 0.5 -0.4375
vt -17.2244 19.685
f 11/13/1 9/11/1 10/4/1

v 0 0.5 -0.125
vt -4.92126 19.685
f 12/14/1 9/11/1 11/13/1

v 0 0.625 -0
vt 0 24.6063
f 12/14/1 13/15/1 9/11/1

v 0 0 -0
vt 0 0
f 13/15/1 12/14/1 14/16/1

v 0 0.06 -0.125
vt -4.92126 2.3622
f 15/17/1 14/16/1 12/14/1

v 0 0 -1
vt -39.3701 0
f 14/16/1 15/17/1 16/18/1

v 0 0.06 -0.4375
vt -17.2244 2.3622
f 16/18/1 15/17/1 17/19/1

vt 0 17.2244
vn 0 -1 -0
vt 0 4.92126
v -0.05 0.06 -0.125
vt 1.9685 4.92126
v -0.05 0.06 -0.4375
vt 1.9685 17.2244
f 17/20/3 15/21/3 18/22/3 19/23/3 

vt 0 2.3622
v 0 0.12 -0.125
v -0.05 0.12 -0.125
vt -1.9685 4.72441
vt -1.9685 2.3622
f 15/24/2 20/8/2 21/25/2 18/26/2 

v 0 0.375 -0.125
vt -4.92126 14.7638
vt -4.92126 4.72441
f 15/17/1 22/27/1 20/28/1

v 0 0.444444 -0.125
vt -4.92126 17.4978
f 15/17/1 23/29/1 22/27/1

f 15/17/1 12/14/1 23/29/1

v 0.1 0.5 -0.125
vt -3.93701 19.685
vn 0 0 -1
v 0.1 0.12 -0.125
vt -3.93701 4.72441
f 24/30/4 25/31/4 20/8/4 22/7/4 23/6/4 12/5/4 

usemtl Glass
v 0.1 0.5 -0.4375
v 0.1 0.12 -0.4375
vt -17.2244 4.72441
f 24/14/1 26/13/1 27/32/1 25/28/1 

usemtl Brick
vt -3.93701 17.2244
vt -3.93701 4.92126
f 12/21/3 11/20/3 26/33/3 24/34/3 

usemtl Green
v 0 0.444444 -0.4375
vt 17.2244 17.4978
vn 1 0 -0
vt 17.2244 19.685
vt 4.92126 19.685
vt 4.92126 17.4978
f 28/35/5 11/36/5 12/37/5 23/38/5 

usemtl Brick
vt -17.2244 17.4978
f 11/13/1 10/4/1 28/39/1

v 0 0.375 -0.4375
vt -17.2244 14.7638
f 28/39/1 10/4/1 29/40/1

v 0 0.444444 -0.5625
vt -22.1457 17.4978
f 29/40/1 10/4/1 30/41/1

usemtl Green
vt 34.4488 17.4978
vt 34.4488 19.685
vt 22.1457 19.685
vt 22.1457 17.4978
f 6/42/5 5/43/5 10/44/5 30/45/5 

v -0.12825 0.375 -0.875
vt 5.04921 14.7638
v -0.127153 0.391316 -0.875
vt 5.00602 15.4061
v -0.12388 0.407352 -0.875
vt 4.87716 16.0375
v -0.118488 0.422835 -0.875
vt 4.66486 16.6471
v -0.111068 0.4375 -0.875
vt 4.37275 17.2244
v -0.101748 0.451095 -0.875
vt 4.00581 17.7597
v -0.0906864 0.463388 -0.875
vt 3.57033 18.2436
v -0.0780737 0.474169 -0.875
vt 3.07377 18.6681
v -0.064125 0.483253 -0.875
vt 2.52461 19.0257
v -0.0490792 0.490485 -0.875
vt 1.93225 19.3104
v -0.0331935 0.495741 -0.875
vt 1.30683 19.5174
v -0.01674 0.498931 -0.875
vt 0.659054 19.6429
f 6/6/4 7/7/4 31/46/4 32/47/4 33/48/4 34/49/4 35/50/4 36/51/4 37/52/4 38/53/4 39/54/4 40/55/4 41/56/4 42/57/4 5/5/4 

usemtl Brick
vt -34.4488 14.7638
f 6/12/1 9/11/1 7/58/1

f 7/58/1 9/11/1 8/2/1

v 0 0.06 -0.875
vt -34.4488 2.3622
f 8/2/1 9/11/1 43/59/1

f 16/18/1 43/59/1 9/11/1

v 0 0.06 -0.5625
vt -22.1457 2.3622
f 16/18/1 44/60/1 43/59/1

f 16/18/1 17/19/1 44/60/1

f 44/60/1 17/19/1 29/40/1

v 0 0.12 -0.4375
f 29/40/1 17/19/1 45/32/1

vt 1.9685 2.3622
v -0.05 0.12 -0.4375
vt 1.9685 4.72441
f 45/8/4 17/24/4 19/61/4 46/62/4 

f 46/32/1 19/19/1 18/17/1 21/28/1 

vt 3.93701 4.92126
vn 0 1 -0
vt 3.93701 17.2244
vt -1.9685 17.2244
vt -1.9685 4.92126
f 25/63/6 27/64/6 45/20/6 46/65/6 21/66/6 20/21/6 

vt -4.65826e-013 19.685
vn -2.70445e-014 3.67403e-015 1
vt -4.65826e-013 17.4978
vt -4.65826e-013 14.7638
vt -4.65826e-013 4.72441
f 11/67/7 28/68/7 29/69/7 45/70/7 27/9/7 26/10/7 

usemtl Green
vt 1.55506e-013 17.4978
vn 9.02825e-015 6.20004e-015 -1
vt 1.55506e-013 14.7638
v -0.12825 0.375 -0.4375
v -0.127153 0.391316 -0.4375
v -0.12388 0.407352 -0.4375
v -0.118488 0.422835 -0.4375
v -0.111068 0.4375 -0.4375
v -0.101748 0.451095 -0.4375
v -0.0906864 0.463388 -0.4375
v -0.0780737 0.474169 -0.4375
v -0.064125 0.483253 -0.4375
v -0.0490792 0.490485 -0.4375
v -0.0331935 0.495741 -0.4375
v -0.01674 0.498931 -0.4375
vt 1.55506e-013 19.685
f 28/71/8 29/72/8 47/46/8 48/47/8 49/48/8 50/49/8 51/50/8 52/51/8 53/52/8 54/53/8 55/54/8 56/55/8 57/56/8 58/57/8 11/73/8 

vt 17.2244 14.7638
vt 4.92126 14.7638
f 29/74/5 28/35/5 23/38/5 22/75/5 

v -0.01674 0.498931 -0.125
vt -0.659054 19.6429
v -0.0331935 0.495741 -0.125
vt -1.30683 19.5174
v -0.0490792 0.490485 -0.125
vt -1.93225 19.3104
v -0.064125 0.483253 -0.125
vt -2.52461 19.0257
v -0.0780737 0.474169 -0.125
vt -3.07377 18.6681
v -0.0906864 0.463388 -0.125
vt -3.57033 18.2436
v -0.101748 0.451095 -0.125
vt -4.00581 17.7597
v -0.111068 0.4375 -0.125
vt -4.37275 17.2244
v -0.118488 0.422835 -0.125
vt -4.66486 16.6471
v -0.12388 0.407352 -0.125
vt -4.87716 16.0375
v -0.127153 0.391316 -0.125
vt -5.00602 15.4061
v -0.12825 0.375 -0.125
vt -5.04921 14.7638
f 22/7/2 23/6/2 12/5/2 59/76/2 60/77/2 61/78/2 62/79/2 63/80/2 64/81/2 65/82/2 66/83/2 67/84/2 68/85/2 69/86/2 70/87/2 

vt -17.2244 1.25497
vn -0.0637526 0.997966 -2.87891e-016
vt -17.2244 0.594574
vn -0.1273 0.991864 -3.57089e-016
vt -4.92126 0.594574
vt -4.92126 1.25497
f 11/88/9 58/89/10 59/90/10 12/91/9 

vt -17.2244 3.09159
vt -17.2244 2.43175
vn -0.252735 0.967536 -4.87773e-016
vt -4.92126 2.43175
vt -4.92126 3.09159
f 58/92/10 57/93/11 60/94/11 59/95/10 

vt -17.2244 4.88984
vt -17.2244 4.23109
vn -0.374429 0.927255 -6.00842e-016
vt -4.92126 4.23109
vt -4.92126 4.88984
f 57/96/11 56/97/12 61/98/12 60/99/11 

vt -17.2244 6.62387
vt -17.2244 5.96664
vn -0.490487 0.871448 -5.68589e-016
vt -4.92126 5.96664
vt -4.92126 6.62387
f 56/100/12 55/101/13 62/102/13 61/103/12 

vt -17.2244 8.26722
vt -17.2244 7.61187
vn -0.598998 0.800751 -4.6225e-016
vt -4.92126 7.61187
vt -4.92126 8.26722
f 55/104/13 54/105/14 63/106/14 62/107/13 

vt -17.2244 9.79293
vt -17.2244 9.13968
vn -0.698053 0.716046 -4.13293e-016
vt -4.92126 9.13968
vt -4.92126 9.79293
f 54/108/14 53/109/15 64/110/15 63/111/14 

vt -17.2244 11.1738
vt -17.2244 10.5227
vn -0.785788 0.618496 -3.57471e-016
vt -4.92126 10.5227
vt -4.92126 11.1738
f 53/112/15 52/113/16 65/114/16 64/115/15 

vt -17.2244 12.383
vt -17.2244 11.734
vn -0.860428 0.509571 -2.94516e-016
vt -4.92126 11.734
vt -4.92126 12.383
f 52/116/16 51/117/17 66/118/17 65/119/16 

vt -17.2244 13.395
vt -17.2244 12.7479
vn -0.920368 0.391053 -2.01839e-016
vt -4.92126 12.7479
vt -4.92126 13.395
f 51/120/17 50/121/18 67/122/18 66/123/17 

vt -17.2244 14.1866
vt -17.2244 13.5411
vn -0.964241 0.265026 -1.00041e-016
vt -4.92126 13.5411
vt -4.92126 14.1866
f 50/124/18 49/125/19 68/126/19 67/127/18 

vt -17.2244 14.7383
vt -17.2244 14.094
vn -0.991004 0.13383 -4.59747e-017
vt -4.92126 14.094
vt -4.92126 14.7383
f 49/128/19 48/129/20 69/130/20 68/131/19 

vt -17.2244 15.0355
vt -17.2244 14.3917
vn -0.997747 0.0670961 -3.39566e-017
vt -4.92126 14.3917
vt -4.92126 15.0355
f 48/132/20 47/133/21 70/134/21 69/135/20 

vt 5.04921 17.2244
vn -8.79522e-016 -1 6.4972e-016
vt 1.29851e-014 17.2244
vt 1.29851e-014 4.92126
vt 5.04921 4.92126
f 47/136/22 29/137/22 22/138/22 70/139/22 

usemtl Brick
v 0 0.375 -0.5625
vt -22.1457 14.7638
f 44/60/1 29/40/1 71/140/1

f 71/140/1 29/40/1 30/41/1

usemtl Green
vt 34.4488 14.7638
vt 22.1457 14.7638
f 7/141/5 6/42/5 30/45/5 71/142/5 

usemtl Brick
vn -3.38057e-014 4.59253e-015 -1
v 0 0.12 -0.5625
vt -7.48649e-013 4.72441
vt -7.48649e-013 14.7638
vt -7.48649e-013 17.4978
vt -7.48649e-013 19.685
f 4/30/23 3/31/23 72/143/23 71/144/23 30/145/23 10/146/23 

vt 3.93701 22.1457
vt 3.93701 34.4488
vt 0 34.4488
v -0.05 0.12 -0.875
vt -1.9685 34.4488
v -0.05 0.12 -0.5625
vt -1.9685 22.1457
vt 0 22.1457
f 3/147/6 2/148/6 8/149/6 73/150/6 74/151/6 72/152/6 

v -0.05 0.06 -0.875
f 8/8/4 43/24/4 75/61/4 73/62/4 

v -0.05 0.06 -0.5625
vt 1.9685 22.1457
vt 1.9685 34.4488
f 43/149/3 44/152/3 76/153/3 75/154/3 

f 44/24/2 72/8/2 74/25/2 76/26/2 

f 44/60/1 71/140/1 72/3/1

f 73/2/1 75/59/1 76/60/1 74/3/1 

usemtl Green
vt 2.49921e-013 14.7638
vn 1.12853e-014 7.75005e-015 1
vt 2.49921e-013 17.4978
vt 2.49921e-013 19.685
v -0.01674 0.498931 -0.5625
v -0.0331935 0.495741 -0.5625
v -0.0490792 0.490485 -0.5625
v -0.064125 0.483253 -0.5625
v -0.0780737 0.474169 -0.5625
v -0.0906864 0.463388 -0.5625
v -0.101748 0.451095 -0.5625
v -0.111068 0.4375 -0.5625
v -0.118488 0.422835 -0.5625
v -0.12388 0.407352 -0.5625
v -0.127153 0.391316 -0.5625
v -0.12825 0.375 -0.5625
f 71/155/24 30/156/24 10/157/24 77/76/24 78/77/24 79/78/24 80/79/24 81/80/24 82/81/24 83/82/24 84/83/24 85/84/24 86/85/24 87/86/24 88/87/24 

vt -34.4488 1.25497
vn -0.0637526 0.997966 -2.88339e-016
vt -34.4488 0.594574
vn -0.1273 0.991864 -3.57314e-016
vt -22.1457 0.594574
vt -22.1457 1.25497
f 5/158/25 42/159/26 77/160/26 10/161/25 

vt -34.4488 3.09159
vt -34.4488 2.43175
vt -22.1457 2.43175
vt -22.1457 3.09159
f 42/162/26 41/163/11 78/164/11 77/165/26 

vt -34.4488 4.88984
vt -34.4488 4.23109
vt -22.1457 4.23109
vt -22.1457 4.88984
f 41/166/11 40/167/12 79/168/12 78/169/11 

vt -34.4488 6.62387
vt -34.4488 5.96664
vt -22.1457 5.96664
vt -22.1457 6.62387
f 40/170/12 39/171/13 80/172/13 79/173/12 

vt -34.4488 8.26722
vt -34.4488 7.61187
vt -22.1457 7.61187
vt -22.1457 8.26722
f 39/174/13 38/175/14 81/176/14 80/177/13 

vt -34.4488 9.79293
vt -34.4488 9.13968
vt -22.1457 9.13968
vt -22.1457 9.79293
f 38/178/14 37/179/15 82/180/15 81/181/14 

vt -34.4488 11.1738
vt -34.4488 10.5227
vt -22.1457 10.5227
vt -22.1457 11.1738
f 37/182/15 36/183/16 83/184/16 82/185/15 

vt -34.4488 12.383
vt -34.4488 11.734
vt -22.1457 11.734
vt -22.1457 12.383
f 36/186/16 35/187/17 84/188/17 83/189/16 

vt -34.4488 13.395
vt -34.4488 12.7479
vt -22.1457 12.7479
vt -22.1457 13.395
f 35/190/17 34/191/18 85/192/18 84/193/17 

vt -34.4488 14.1866
vt -34.4488 13.5411
vt -22.1457 13.5411
vt -22.1457 14.1866
f 34/194/18 33/195/19 86/196/19 85/197/18 

vt -34.4488 14.7383
vt -34.4488 14.094
vt -22.1457 14.094
vt -22.1457 14.7383
f 33/198/19 32/199/20 87/200/20 86/201/19 

vt -34.4488 15.0355
vt -34.4488 14.3917
vt -22.1457 14.3917
vt -22.1457 15.0355
f 32/202/20 31/203/21 88/204/21 87/205/20 

vt 5.04921 34.4488
vt 1.29851e-014 34.4488
vt 1.29851e-014 22.1457
vt 5.04921 22.1457
f 31/206/22 7/207/22 71/208/22 88/209/22 

usemtl Brick
vt -3.93701 34.4488
vt -3.93701 22.1457
f 10/152/3 5/149/3 1/210/3 4/211/3 

v 1 0.625 -1
v 1 0 -1
f 16/16/4 9/15/4 89/11/4 90/18/4 

vt 5.55112e-015 39.3701
vn -2.25597e-016 1 2.25597e-016
vt 5.55112e-015 5.55112e-015
v 1 0.625 -0
vt 39.3701 5.55112e-015
vt 39.3701 39.3701
f 9/212/27 13/213/27 91/214/27 89/215/27 

v 1 0 -0
vt 39.3701 0
vt 39.3701 24.6063
f 92/216/2 91/217/2 13/15/2 14/16/2 

f 90/216/5 89/217/5 91/15/5 92/16/5 

vt 0 39.3701
vt -39.3701 39.3701
f 14/16/3 16/218/3 90/219/3 92/18/3 

