# Alias OBJ Model File
# Exported from SketchUp, (c) 2000-2012 Trimble Navigation Limited
# File units = meters

mtllib modularBuildings_080.mtl

g Mesh1 Group1 Model

usemtl Wood
v 0.05 0 -0
vt 0 0
vn 1 0 -0
v 0.05 0.0477417 -0.0477417
vt 1.87959 1.87959
v 0.05 0.38 -0
vt 0 14.9606
f 1/1/1 2/2/1 3/3/1

v 0.05 0 -0.3125
vt 12.3031 0
f 2/2/1 1/1/1 4/4/1

vt -1.9685 12.3031
vn 0 -1 -0
vt -1.9685 0
v 0 0 -0
v 0 0 -0.3125
vt 0 12.3031
f 4/5/2 1/6/2 5/1/2 6/7/2 

vt 1.9685 0
vn 0 0 1
vt 1.9685 14.9606
v 0 0.38 -0
f 1/8/3 3/9/3 7/3/3 5/1/3 

vn 0 1 -0
v 0.05 0.38 -0.3125
vt 1.9685 12.3031
v 0 0.38 -0.3125
f 3/8/4 8/10/4 9/7/4 7/1/4 

v 0.05 0.332258 -0.0477417
vt 1.87959 13.081
vt 12.3031 14.9606
f 3/3/1 10/11/1 8/12/1

f 10/11/1 3/3/1 2/2/1

v 0.05 0.166129 -0.0477417
vt 1.87959 6.54052
f 10/11/1 2/2/1 11/13/1

v 0.05 0.213871 -0.0477417
vt -1.9685 8.42011
vn 0 0 -1
vt -1.9685 6.54052
vt -1.9685 1.87959
v 0 0.0477417 -0.0477417
vt 0 1.87959
v 0 0.332258 -0.0477417
vt 0 13.081
vt -1.9685 13.081
f 12/14/5 11/15/5 2/16/5 13/17/5 14/18/5 10/19/5 

vt 1.87959 8.42011
f 10/11/1 11/13/1 12/20/1

v 0 0.0477417 -0.264758
vt 0 10.4236
vt 1.9685 1.87959
v 0.05 0.0477417 -0.264758
vt 1.9685 10.4236
f 15/21/4 13/17/4 2/22/4 16/23/4 

vt -12.3031 0
vn -1 0 -0
vt -1.87959 1.87959
vt -10.4236 1.87959
f 6/24/6 13/25/6 15/26/6

f 5/1/6 13/25/6 6/24/6

vt -1.87959 13.081
f 13/25/6 5/1/6 14/27/6

f 7/3/6 14/27/6 5/1/6

vt -12.3031 14.9606
f 14/27/6 7/3/6 9/28/6

v 0 0.332258 -0.264758
vt -10.4236 13.081
f 14/27/6 9/28/6 17/29/6

f 17/29/6 9/28/6 15/26/6

f 6/24/6 15/26/6 9/28/6

vt -1.9685 14.9606
f 8/30/5 4/6/5 6/1/5 9/3/5 

v 0.05 0.332258 -0.264758
vt 10.4236 13.081
f 8/12/1 18/31/1 4/4/1

f 8/12/1 10/11/1 18/31/1

vt -1.9685 10.4236
f 14/17/2 17/21/2 18/32/2 10/16/2 

v 0.05 0.166129 -0.264758
vt 1.9685 6.54052
v 0.05 0.213871 -0.264758
vt 1.9685 8.42011
vt 1.9685 13.081
f 19/33/3 20/34/3 18/35/3 17/18/3 15/17/3 16/22/3 

vt 10.4236 6.54052
vt 10.4236 8.42011
f 19/36/1 4/4/1 20/37/1

vt 10.4236 1.87959
f 16/38/1 4/4/1 19/36/1

f 2/2/1 4/4/1 16/38/1

f 20/37/1 4/4/1 18/31/1

