# Alias OBJ Model File
# Exported from SketchUp, (c) 2000-2012 Trimble Navigation Limited
# File units = meters

mtllib modularBuildings_010.mtl

g Mesh1 Group1 Model

usemtl Wood
v -0.223075 0.0277368 -1
vt -39.3701 0.481348
vn -0.990433 0.137992 -0
v -0.225 0 -1
vt -39.3701 -0.61328
vn -0.997601 0.0692324 -0
v -0.225 0 -0.8
vt -31.4961 -0.61328
v -0.223075 0.0277368 -0.8
vt -31.4961 0.481348
f 1/1/1 2/2/2 3/3/2 4/4/1 

usemtl Green
v 0 0.2125 -1
vt 1.20621e-013 8.36614
vn 3.06377e-015 -1.98675e-015 -1
v 0 9.02389e-017 -1
vt 1.20621e-013 8.17713e-014
vt 8.85827 7.82186e-014
vt 8.78248 1.092
v -0.217333 0.054999 -1
vt 8.55643 2.16532
v -0.207873 0.0813202 -1
vt 8.18397 3.20158
v -0.194856 0.10625 -1
vt 7.67148 4.18307
v -0.178505 0.129362 -1
vt 7.02774 5.09298
v -0.159099 0.15026 -1
vt 6.26374 5.91576
v -0.136971 0.168588 -1
vt 5.39257 6.63731
v -0.1125 0.18403 -1
vt 4.42913 7.24529
v -0.0861038 0.196324 -1
vt 3.38991 7.72931
v -0.0582343 0.205259 -1
vt 2.29269 8.08107
v -0.0293684 0.210682 -1
vt 1.15624 8.29457
f 5/5/3 6/6/3 2/7/3 1/8/3 7/9/3 8/10/3 9/11/3 10/12/3 11/13/3 12/14/3 13/15/3 14/16/3 15/17/3 16/18/3 

usemtl Dark_brick
v 1 0.2125 -1
vt -39.3701 8.36614
vn 0 0 -1
v 1 0 -1
vt -39.3701 0
vt 0 3.55271e-015
vt 0 8.36614
f 17/19/4 18/20/4 6/21/4 5/22/4 

v 1 0.2125 -0
vn 1 0 -0
v 1 0 -0
vt 0 0
vt 39.3701 0
vt 39.3701 8.36614
f 19/22/5 20/23/5 18/24/5 17/25/5 

v 0 0.2125 -0
vn 0 0 1
v 0 0 -0
f 21/22/6 22/23/6 20/24/6 19/25/6 

usemtl Green
v 0 0.2125 -0.6
vt 23.622 8.36614
v 0 0.2125 -0.4
vt 15.748 8.36614
v 0 0.2125 -0.2
vt 7.87402 8.36614
v 0 -1.80478e-016 -0.2
vt 7.87402 -7.10543e-015
v 0 -1.80478e-016 -0.4
vt 15.748 -7.10543e-015
v 0 -1.80478e-016 -0.6
vt 23.622 -7.10543e-015
v 0 -1.80478e-016 -0.8
vt 31.4961 -7.10543e-015
vt 39.3701 3.55271e-015
v 0 0.2125 -0.8
vt 31.4961 8.36614
f 23/26/5 24/27/5 25/28/5 21/22/5 22/23/5 26/29/5 27/30/5 28/31/5 29/32/5 6/33/5 5/25/5 30/34/5 

usemtl Dark_brick
vt 39.3701 -1.5099e-015
vn 6.01593e-017 1 -1.80478e-016
vt 39.3701 39.3701
vt -5.03301e-016 39.3701
vt -5.03301e-016 31.4961
vt -5.03301e-016 23.622
vt -5.03301e-016 15.748
vt -5.03301e-016 7.87402
vt -5.03301e-016 -1.5099e-015
f 19/35/7 17/36/7 5/37/7 30/38/7 23/39/7 24/40/7 25/41/7 21/42/7 

usemtl Wood
vt -39.3701 0.516893
vn -0.0617839 0.99809 4.50231e-016
vt -39.3701 -0.641556
vn -0.123445 0.992351 2.25548e-016
v -0.0293684 0.210682 -0.8
vt -31.4961 -0.641556
vt -31.4961 0.516893
f 5/43/8 16/44/9 31/45/9 30/46/8 

vt -39.3701 0.395084
vt -39.3701 -0.761248
vn -0.245437 0.969413 -0
v -0.0582343 0.205259 -0.8
vt -31.4961 -0.761248
vt -31.4961 0.395084
f 16/47/9 15/48/10 32/49/10 31/50/9 

vt -39.3701 0.283839
vt -39.3701 -0.868394
vn -0.364465 0.931217 -0
v -0.0861038 0.196324 -0.8
vt -31.4961 -0.868394
vt -31.4961 0.283839
f 15/51/10 14/52/11 33/53/11 32/54/10 

vt -39.3701 0.190366
vt -39.3701 -0.956043
vn -0.478906 0.877866 -0
v -0.1125 0.18403 -0.8
vt -31.4961 -0.956043
vt -31.4961 0.190366
f 14/55/11 13/56/12 34/57/12 33/58/11 

vt -39.3701 0.120986
vt -39.3701 -1.01825
vn -0.586992 0.809592 -0
v -0.136971 0.168588 -0.8
vt -31.4961 -1.01825
vt -31.4961 0.120986
f 13/59/12 12/60/13 35/61/13 34/62/12 

vt -39.3701 0.0807217
vt -39.3701 -1.05046
vn -0.686801 0.726846 -0
v -0.159099 0.15026 -0.8
vt -31.4961 -1.05046
vt -31.4961 0.0807217
f 12/63/13 11/64/14 36/65/14 35/66/13 

vt -39.3701 0.0728951
vt -39.3701 -1.04989
vn -0.776281 0.630387 -0
v -0.178505 0.129362 -0.8
vt -31.4961 -1.04989
vt -31.4961 0.0728951
f 11/67/14 10/68/15 37/69/15 36/70/14 

vt -39.3701 0.0987611
vt -39.3701 -1.01585
vn -0.853322 0.521384 -0
v -0.194856 0.10625 -0.8
vt -31.4961 -1.01585
vt -31.4961 0.0987611
f 10/71/15 9/72/16 38/73/16 37/74/15 

vt -39.3701 0.157231
vt -39.3701 -0.95
vn -0.915869 0.401477 -0
v -0.207873 0.0813202 -0.8
vt -31.4961 -0.95
vt -31.4961 0.157231
f 9/75/16 8/76/17 39/77/17 38/78/16 

vt -39.3701 0.244754
vt -39.3701 -0.856416
vn -0.962068 0.272809 -0
v -0.217333 0.054999 -0.8
vt -31.4961 -0.856416
vt -31.4961 0.244754
f 8/79/17 7/80/18 40/81/18 39/82/17 

vt -39.3701 0.355423
vt -39.3701 -0.74144
vt -31.4961 -0.74144
vt -31.4961 0.355423
f 7/83/18 1/84/1 4/85/1 40/86/18 

usemtl Green
v -0.217333 0.054999 -0.6
vt -23.622 0.355423
vn -0.962068 0.272809 -1.93864e-016
vn -0.990433 0.137992 -1.3952e-016
v -0.223075 0.0277368 -0.6
vt -23.622 -0.74144
f 41/87/19 40/86/19 4/85/20 42/88/20 

v -0.207873 0.0813202 -0.6
vt -23.622 0.244754
vn -0.915869 0.401477 -2.87055e-016
vt -23.622 -0.856416
f 43/89/21 39/82/21 40/81/19 41/90/19 

v -0.194856 0.10625 -0.6
vt -23.622 0.157231
vn -0.853322 0.521384 -6.01157e-016
vt -23.622 -0.95
f 44/91/22 38/78/22 39/77/21 43/92/21 

v -0.178505 0.129362 -0.6
vt -23.622 0.0987611
vn -0.776281 0.630387 -6.99524e-016
vt -23.622 -1.01585
f 45/93/23 37/74/23 38/73/22 44/94/22 

v -0.159099 0.15026 -0.6
vt -23.622 0.0728951
vn -0.686801 0.726846 -8.30115e-016
vt -23.622 -1.04989
f 46/95/24 36/70/24 37/69/23 45/96/23 

v -0.136971 0.168588 -0.6
vt -23.622 0.0807217
vn -0.586992 0.809592 -9.04783e-016
vt -23.622 -1.05046
f 47/97/25 35/66/25 36/65/24 46/98/24 

v -0.1125 0.18403 -0.6
vt -23.622 0.120986
vn -0.478906 0.877866 -3.82389e-016
vt -23.622 -1.01825
f 48/99/26 34/62/26 35/61/25 47/100/25 

v -0.0861038 0.196324 -0.6
vt -23.622 0.190366
vt -23.622 -0.956043
f 49/101/11 33/58/11 34/57/26 48/102/26 

v -0.0582343 0.205259 -0.6
vt -23.622 0.283839
vt -23.622 -0.868394
f 50/103/10 32/54/10 33/53/11 49/104/11 

v -0.0293684 0.210682 -0.6
vt -23.622 0.395084
vn -0.123445 0.992351 -3.38441e-016
vt -23.622 -0.761248
f 51/105/27 31/50/27 32/49/10 50/106/10 

vt -23.622 0.516893
vn -0.0617839 0.99809 -6.75583e-016
vt -23.622 -0.641556
f 23/107/28 30/46/28 31/45/27 51/108/27 

usemtl Wood
vn -0.123445 0.992351 -0
v -0.0293684 0.210682 -0.4
vt -15.748 -0.641556
vt -15.748 0.516893
vn -0.0617839 0.99809 -0
f 51/108/29 52/109/29 24/110/30 23/107/30 

v -0.0582343 0.205259 -0.4
vt -15.748 -0.761248
vt -15.748 0.395084
f 50/106/10 53/111/10 52/112/29 51/105/29 

v -0.0861038 0.196324 -0.4
vt -15.748 -0.868394
vt -15.748 0.283839
f 49/104/11 54/113/11 53/114/10 50/103/10 

vn -0.478906 0.877866 3.82389e-016
v -0.1125 0.18403 -0.4
vt -15.748 -0.956043
vt -15.748 0.190366
f 48/102/31 55/115/31 54/116/11 49/101/11 

vn -0.586992 0.809592 9.04783e-016
v -0.136971 0.168588 -0.4
vt -15.748 -1.01825
vt -15.748 0.120986
f 47/100/32 56/117/32 55/118/31 48/99/31 

vn -0.686801 0.726846 6.7626e-016
v -0.159099 0.15026 -0.4
vt -15.748 -1.05046
vt -15.748 0.0807217
f 46/98/33 57/119/33 56/120/32 47/97/32 

vn -0.776281 0.630387 4.15061e-016
v -0.178505 0.129362 -0.4
vt -15.748 -1.04989
vt -15.748 0.0728951
f 45/96/34 58/121/34 57/122/33 46/95/33 

vn -0.853322 0.521384 4.7055e-016
v -0.194856 0.10625 -0.4
vt -15.748 -1.01585
vt -15.748 0.0987611
f 44/94/35 59/123/35 58/124/34 45/93/34 

vn -0.915869 0.401477 2.09349e-016
v -0.207873 0.0813202 -0.4
vt -15.748 -0.95
vt -15.748 0.157231
f 43/92/36 60/125/36 59/126/35 44/91/35 

vn -0.962068 0.272809 7.02843e-017
v -0.217333 0.054999 -0.4
vt -15.748 -0.856416
vt -15.748 0.244754
f 41/90/37 61/127/37 60/128/36 43/89/36 

vn -0.990433 0.137992 9.36491e-017
v -0.223075 0.0277368 -0.4
vt -15.748 -0.74144
vt -15.748 0.355423
f 42/88/38 62/129/38 61/130/37 41/87/37 

v -0.225 0 -0.6
vt -23.622 -0.61328
vn -0.997601 0.0692324 4.66139e-017
v -0.225 0 -0.4
vt -15.748 -0.61328
vt -15.748 0.481348
vt -23.622 0.481348
f 63/131/39 64/132/39 62/133/38 42/134/38 

vt -5.69943e-030 23.622
vn -8.02124e-016 -1 -0
vt -5.69943e-030 15.748
vt 8.85827 15.748
vt 8.85827 23.622
f 28/135/40 27/136/40 64/137/40 63/138/40 

usemtl Dark_brick
vt -3.74025e-031 39.3701
vn 1.05279e-016 -1 -3.75996e-017
vt -39.3701 39.3701
vt -39.3701 -1.55844e-031
vt 7.48051e-031 7.87402
vt 7.48051e-031 15.748
vt 7.48051e-031 23.622
vt 7.48051e-031 31.4961
f 6/139/41 18/140/41 20/141/41 22/23/41 26/142/41 27/143/41 28/144/41 29/145/41 

usemtl Wood
v -0.225 0 -0.2
vt 8.85827 7.87402
vn -1.40372e-015 -1 1.57918e-015
vt -9.97401e-030 7.87402
v -0.225 4.51195e-016 -0
vt 8.85827 -8.41557e-030
f 65/146/42 26/147/42 22/23/42 66/148/42 

usemtl Green
vt -5.69943e-030 7.87402
f 26/149/40 65/146/40 64/137/40 27/136/40 

vt -7.87402 -0.61328
v -0.223075 0.0277368 -0.2
vt -7.87402 0.481348
vn -0.990433 0.137992 4.58711e-017
f 65/150/2 67/151/43 62/133/43 64/132/2 

usemtl Wood
vn -0.990433 0.137992 -2.254e-016
vn -0.997601 0.0692324 -1.24965e-016
vt 1.10963e-015 -0.61328
v -0.223075 0.0277368 -0
vt 1.10014e-015 0.481348
f 67/151/44 65/150/45 66/152/45 68/153/44 

v -0.0293684 0.210682 -0
vt -1.15624 8.29457
v -0.0582343 0.205259 -0
vt -2.29269 8.08107
v -0.0861038 0.196324 -0
vt -3.38991 7.72931
v -0.1125 0.18403 -0
vt -4.42913 7.24529
v -0.136971 0.168588 -0
vt -5.39257 6.63731
v -0.159099 0.15026 -0
vt -6.26374 5.91576
v -0.178505 0.129362 -0
vt -7.02774 5.09298
v -0.194856 0.10625 -0
vt -7.67148 4.18307
v -0.207873 0.0813202 -0
vt -8.18397 3.20158
v -0.217333 0.054999 -0
vt -8.55643 2.16532
vt -8.78248 1.092
vt -8.85827 1.77636e-014
f 22/23/6 21/22/6 69/154/6 70/155/6 71/156/6 72/157/6 73/158/6 74/159/6 75/160/6 76/161/6 77/162/6 78/163/6 68/164/6 66/165/6 

vt -7.87402 0.516893
vn -0.0617839 0.99809 -4.50389e-016
v -0.0293684 0.210682 -0.2
vt -7.87402 -0.641556
vn -0.123445 0.992351 -4.47359e-016
vt 8.42867e-015 -0.641556
vt -7.88861e-031 0.516893
f 25/166/46 79/167/47 69/168/47 21/169/46 

usemtl Green
f 79/167/29 25/166/30 24/110/30 52/109/29 

v -0.0582343 0.205259 -0.2
vt -7.87402 -0.761248
vt -7.87402 0.395084
f 80/170/10 79/171/29 52/112/29 53/111/10 

usemtl Wood
vn -0.245437 0.969413 -7.59915e-016
vt 5.4962e-015 -0.761248
vt 2.77181e-015 0.395084
f 79/171/47 80/170/48 70/172/48 69/173/47 

vt -7.87402 0.283839
v -0.0861038 0.196324 -0.2
vt -7.87402 -0.868394
vn -0.364465 0.931217 -1.05053e-015
vt 1.19286e-014 -0.868394
vt 8.06762e-015 0.283839
f 80/174/48 81/175/49 71/176/49 70/177/48 

usemtl Green
f 81/175/11 80/174/10 53/114/10 54/113/11 

v -0.1125 0.18403 -0.2
vt -7.87402 -0.956043
vt -7.87402 0.190366
f 82/178/12 81/179/11 54/116/11 55/115/12 

usemtl Wood
vn -0.478906 0.877866 -1.08594e-015
vt 1.07282e-014 -0.956043
vt 8.21098e-015 0.190366
f 81/179/49 82/178/50 72/180/50 71/181/49 

vt -7.87402 0.120986
v -0.136971 0.168588 -0.2
vt -7.87402 -1.01825
vn -0.586992 0.809592 -1.27011e-015
vt 1.15682e-014 -1.01825
vt 9.50144e-015 0.120986
f 82/182/50 83/183/51 73/184/51 72/185/50 

usemtl Green
f 83/183/13 82/182/12 55/118/12 56/117/13 

v -0.159099 0.15026 -0.2
vt -7.87402 -1.05046
vn -0.686801 0.726846 1.53855e-016
vt -7.87402 0.0807217
f 84/186/52 83/187/13 56/120/13 57/119/52 

usemtl Wood
vn -0.686801 0.726846 -1.31196e-015
vt 1.36505e-014 -1.05046
vt 1.17519e-014 0.0807217
f 83/187/51 84/186/53 74/188/53 73/189/51 

vt -7.87402 0.0728951
v -0.178505 0.129362 -0.2
vt -7.87402 -1.04989
vn -0.776281 0.630387 -1.13785e-015
vt 1.17789e-014 -1.04989
vt 1.04984e-014 0.0728951
f 84/190/53 85/191/54 75/192/54 74/193/53 

usemtl Green
vn -0.776281 0.630387 2.84463e-016
f 85/191/55 84/190/52 57/122/52 58/121/55 

v -0.194856 0.10625 -0.2
vt -7.87402 -1.01585
vn -0.853322 0.521384 1.30606e-016
vt -7.87402 0.0987611
f 86/194/56 85/195/55 58/124/55 59/123/56 

usemtl Wood
vn -0.853322 0.521384 -8.36432e-016
vt 9.79656e-015 -1.01585
vt 8.97449e-015 0.0987611
f 85/195/54 86/194/57 76/196/57 75/197/54 

vt -7.87402 0.157231
v -0.207873 0.0813202 -0.2
vt -7.87402 -0.95
vn -0.915869 0.401477 -5.42286e-016
vt 5.78498e-015 -0.95
vt 5.42272e-015 0.157231
f 86/198/57 87/199/58 77/200/58 76/201/57 

usemtl Green
vn -0.915869 0.401477 7.77065e-017
f 87/199/59 86/198/56 59/126/56 60/125/59 

v -0.217333 0.054999 -0.2
vt -7.87402 -0.856416
vn -0.962068 0.272809 1.2358e-016
vt -7.87402 0.244754
f 88/202/60 87/203/59 60/128/59 61/127/60 

usemtl Wood
vn -0.962068 0.272809 -3.91037e-016
vt 4.14126e-015 -0.856416
vt 3.961e-015 0.244754
f 87/203/58 88/202/61 78/204/61 77/205/58 

vt -7.87402 0.355423
vt -7.87402 -0.74144
vt 2.91476e-015 -0.74144
vt 2.83974e-015 0.355423
f 88/206/61 67/207/44 68/208/44 78/209/61 

usemtl Green
f 67/207/43 88/206/60 61/130/60 62/129/43 

vt 8.85827 31.4961
vt -5.69943e-030 31.4961
f 63/138/40 3/210/40 29/211/40 28/135/40 

vn -0.997601 0.0692324 -4.66139e-017
f 42/134/20 4/4/20 3/3/62 63/131/62 

usemtl Wood
vt 8.85827 39.3701
vn -2.00531e-016 -1 -6.76792e-016
vt 7.12429e-031 39.3701
vt -1.42486e-030 31.4961
f 2/212/63 6/213/63 29/214/63 3/210/63 

