# Alias OBJ Model File
# Exported from SketchUp, (c) 2000-2012 Trimble Navigation Limited
# File units = meters

mtllib modularBuildings_006.mtl

g Mesh1 Group1 Model

usemtl Brick
v 0.125 0.10625 -1
vt -4.92126 4.18307
vn 4.9826e-016 4.42306e-015 -1
v 1 0.10625 -1
vt -39.3701 4.18307
v 1 0 -1
vt -39.3701 -1.74136e-013
v 0 0 -1
vt 1.96166e-014 -1.74136e-013
v 0 0.2125 -1
vt 1.96166e-014 8.36614
v 0.125 0.2125 -1
vt -4.92126 8.36614
f 1/1/1 2/2/1 3/3/1 4/4/1 5/5/1 6/6/1 

vt 4.92126 39.3701
vn 0 1 -0
v 0.125 0.10625 -0.5
vt 4.92126 19.685
v 0.5 0.10625 -0.125
vt 19.685 4.92126
v 1 0.10625 -0.125
vt 39.3701 4.92126
vt 39.3701 39.3701
f 1/7/2 7/8/2 8/9/2 9/10/2 2/11/2 

vt 19.685 4.18307
vn 1 0 -0
vt 39.3701 4.18307
vt 39.3701 8.36614
v 0.125 0.2125 -0.5
vt 19.685 8.36614
f 7/12/3 1/13/3 6/14/3 10/15/3 

v 1 0.2125 -0
vt 39.3701 0
v 1 0.2125 -0.125
v 0.5 0.2125 -0.125
vt 0 39.3701
v 0 0.2125 -0.5
vt 0 19.685
v 0.5 0.2125 -0
vt 19.685 0
f 11/16/2 12/10/2 13/9/2 10/8/2 6/7/2 5/17/2 14/18/2 15/19/2 

v 1 0 -0
vt -2.89188e-015 -3.91254e-014
vn 1 9.93784e-016 -7.34536e-017
vt 39.3701 -3.91254e-014
vt 4.92126 4.18307
vt 4.92126 8.36614
vt -2.89188e-015 8.36614
f 16/20/4 3/21/4 2/13/4 9/22/4 12/23/4 11/24/4 

vt -39.3701 -2.04957e-029
vn -8.31983e-016 -1 6.25723e-016
v 0.5 5.41434e-016 -0
vt -19.685 -2.35859e-029
v 0 1.08287e-015 -0.5
vt 3.54696e-029 19.685
vt -39.3701 39.3701
f 16/25/5 17/26/5 18/27/5 4/17/5 3/28/5 

vn 0 0 1
vt 19.685 2.13163e-014
f 11/14/6 15/15/6 17/29/6 16/16/6 

vt 13.9194 8.36614
vn -0.707107 5.74268e-016 0.707107
vt -13.9194 8.36614
vt -13.9194 5.0626e-014
vt 13.9194 2.93098e-014
f 15/30/7 14/31/7 18/32/7 17/33/7 

vt -39.3701 -3.01735e-030
vn -1 4.24654e-016 -1.80478e-016
vt -19.685 4.26326e-014
vt -19.685 8.36614
vt -39.3701 8.36614
f 4/34/8 18/35/8 14/36/8 5/37/8 

vt -19.685 4.18307
vn 0 0 -1
f 8/38/9 13/36/9 12/37/9 9/2/9 

vt -10.4396 4.18307
vn 0.707107 0 -0.707107
vt 10.4396 4.18307
vt 10.4396 8.36614
vt -10.4396 8.36614
f 8/39/10 7/40/10 10/41/10 13/42/10 

