# Alias OBJ Model File
# Exported from SketchUp, (c) 2000-2012 Trimble Navigation Limited
# File units = meters

mtllib modularBuildings_009.mtl

g Mesh1 Group1 Model

usemtl Brick
v 1 0 -0
vt -39.3701 0
vn 0 -1 -0
v 0 0 -0
vt 0 0
v 0 0 -1
vt 0 39.3701
v 1 0 -1
vt -39.3701 39.3701
f 1/1/1 2/2/1 3/3/1 4/4/1 

vt 39.3701 0
vn 0 0 1
v 1 0.10625 -0
vt 39.3701 4.18307
v 0 0.10625 -0
vt 0 4.18307
f 1/5/2 5/6/2 6/7/2 2/2/2 

vn 1 0 -0
v 1 0.2125 -1
vt 39.3701 8.36614
v 1 0.2125 -0.875
vt 34.4488 8.36614
v 1 0.10625 -0.875
vt 34.4488 4.18307
f 1/2/3 4/5/3 7/8/3 8/9/3 9/10/3 5/7/3 

vn 0 0 -1
v 0 0.2125 -1
vt 0 8.36614
vt -39.3701 8.36614
f 3/2/4 10/11/4 7/12/4 4/1/4 

vn -1 0 -0
v 0 0.10625 -0.875
vt -34.4488 4.18307
v 0 0.2125 -0.875
vt -34.4488 8.36614
f 2/2/5 6/7/5 11/13/5 12/14/5 10/12/5 3/1/5 

vt 39.3701 34.4488
vn 0 1 -5.45631e-017
vt 0 34.4488
vt 0 -2.28241e-016
vt 39.3701 -2.28241e-016
f 9/15/6 11/16/6 6/17/6 5/18/6 

f 8/8/2 12/11/2 11/7/2 9/6/2 

vn 0 1 -0
vt 39.3701 39.3701
f 10/3/7 12/16/7 8/15/7 7/19/7 

