# Alias OBJ Model File
# Exported from SketchUp, (c) 2000-2012 Trimble Navigation Limited
# File units = meters

mtllib modularBuildings_022.mtl

g Mesh1 Group1 Model

usemtl Brick
v 0 0.31 -0.4375
vt 0 12.2047
vn 0 0 1
v 0 1.80478e-016 -0.4375
vt 0 7.10543e-015
v 0.1 1.80478e-016 -0.4375
vt 3.93701 7.10543e-015
v 0.1 0.31 -0.4375
vt 3.93701 12.2047
f 1/1/1 2/2/1 3/3/1 4/4/1 

v 0 1.57918e-016 -0.5625
vt -22.1457 6.21725e-015
vn -1 0 -0
vt -17.2244 7.10543e-015
vt -17.2244 12.2047
v 0 0.35044 -0.432176
vt -17.0148 13.7969
v 0 0.388125 -0.416566
vt -16.4003 15.2805
v 0 0.420485 -0.391735
vt -15.4227 16.5545
v 0 0.445316 -0.359375
vt -14.1486 17.5321
v 0 0.460926 -0.32169
vt -12.665 18.1467
v 0 0.46625 -0.28125
vt -11.0728 18.3563
v 0 0.460926 -0.24081
vt -9.48069 18.1467
v 0 0.445316 -0.203125
vt -7.99705 17.5321
v 0 0.420485 -0.170765
vt -6.72301 16.5545
v 0 0.388125 -0.145934
vt -5.74541 15.2805
v 0 0.35044 -0.130324
vt -5.13087 13.7969
v 0 0.31 -0.125
vt -4.92126 12.2047
v 0 1.80478e-016 -0.125
vt -4.92126 7.10543e-015
v 0 0 -0
vt 0 0
v 0 0.625 -0
vt 0 24.6063
v 0 0.625 -1
vt -39.3701 24.6063
v 0 0 -1
vt -39.3701 0
v 0 1.57918e-016 -0.875
vt -34.4488 6.21725e-015
v 0 0.31 -0.875
vt -34.4488 12.2047
v 0 0.35044 -0.869676
vt -34.2392 13.7969
v 0 0.388125 -0.854066
vt -33.6247 15.2805
v 0 0.420485 -0.829235
vt -32.6471 16.5545
v 0 0.445316 -0.796875
vt -31.373 17.5321
v 0 0.460926 -0.75919
vt -29.8894 18.1467
v 0 0.46625 -0.71875
vt -28.2972 18.3563
v 0 0.460926 -0.67831
vt -26.7051 18.1467
v 0 0.445316 -0.640625
vt -25.2215 17.5321
v 0 0.420485 -0.608265
vt -23.9474 16.5545
v 0 0.388125 -0.583434
vt -22.9698 15.2805
v 0 0.35044 -0.567824
vt -22.3553 13.7969
v 0 0.31 -0.5625
vt -22.1457 12.2047
f 5/5/2 2/6/2 1/7/2 6/8/2 7/9/2 8/10/2 9/11/2 10/12/2 11/13/2 12/14/2 13/15/2 14/16/2 15/17/2 16/18/2 17/19/2 18/20/2 19/21/2 20/22/2 21/23/2 22/24/2 23/25/2 24/26/2 25/27/2 26/28/2 27/29/2 28/30/2 29/31/2 30/32/2 31/33/2 32/34/2 33/35/2 34/36/2 35/37/2 36/38/2 

vt 7.54671e-031 34.4488
vn -1.21383e-016 -1 -6.65924e-018
vt 0 39.3701
v 1 0 -1
vt -39.3701 39.3701
v 1 0 -0
vt -39.3701 3.18237e-032
vt 8.62481e-031 4.92126
v 0.1 1.80478e-016 -0.125
vt -3.93701 4.92126
vt -3.93701 17.2244
vt 8.62481e-031 17.2244
vt 7.54671e-031 22.1457
v 0.1 1.57918e-016 -0.5625
vt -3.93701 22.1457
v 0.1 1.57918e-016 -0.875
vt -3.93701 34.4488
f 23/39/3 22/40/3 37/41/3 38/42/3 19/21/3 18/43/3 39/44/3 3/45/3 2/46/3 5/47/3 40/48/3 41/49/3 

vn 0 0 -1
v 1 0.625 -1
f 22/21/4 21/22/4 42/23/4 37/24/4 

vt 2.22045e-015 39.3701
vn -9.02389e-017 1 9.02389e-017
vt 2.22045e-015 2.22045e-015
v 1 0.625 -0
vt 39.3701 2.22045e-015
vt 39.3701 39.3701
f 21/50/5 20/51/5 43/52/5 42/53/5 

vt 39.3701 0
vt 39.3701 24.6063
f 38/54/1 43/55/1 20/22/1 19/21/1 

vn 1 0 -0
f 37/54/6 42/55/6 43/22/6 38/21/6 

v 0.1 0.31 -0.125
vt -3.93701 12.2047
vt -3.93701 7.10543e-015
f 44/56/4 39/57/4 18/2/4 17/1/4 

usemtl Glass
vt -4.92126 -2.54476e-015
vn -1 -2.45115e-015 1.10241e-023
v 0.1 0.35044 -0.130324
v 0.1 0.388125 -0.145934
v 0.1 0.420485 -0.170765
v 0.1 0.445316 -0.203125
v 0.1 0.460926 -0.24081
v 0.1 0.46625 -0.28125
v 0.1 0.460926 -0.32169
v 0.1 0.445316 -0.359375
v 0.1 0.420485 -0.391735
v 0.1 0.388125 -0.416566
v 0.1 0.35044 -0.432176
vt -17.2244 -2.54476e-015
f 39/58/7 44/19/7 45/18/7 46/17/7 47/16/7 48/15/7 49/14/7 50/13/7 51/12/7 52/11/7 53/10/7 54/9/7 55/8/7 4/7/7 3/59/7 

usemtl Brick
vt -3.77562e-018 12.7427
vn -7.60641e-019 -0.130526 -0.991445
vt -3.93643e-018 14.3485
vn -3.83603e-019 -0.258819 -0.965926
vt -3.93701 14.3485
vt -3.93701 12.7427
f 17/60/8 16/61/9 45/62/9 44/63/8 

vt 0 14.7101
vt 0 16.316
vn 0 -0.5 -0.866025
vt -3.93701 16.316
vt -3.93701 14.7101
f 16/64/9 15/65/10 46/66/10 45/67/9 

vt 0 15.6204
vt 0 17.2263
vn 0 -0.707107 -0.707107
vt -3.93701 17.2263
vt -3.93701 15.6204
f 15/68/10 14/69/11 47/70/11 46/71/10 

vt 0 15.4115
vt 0 17.0174
vn 0 -0.866025 -0.5
vt -3.93701 17.0174
vt -3.93701 15.4115
f 14/72/11 13/73/12 48/74/12 47/75/11 

vt 0 14.0976
vt 0 15.7035
vn 0 -0.965926 -0.258819
vt -3.93701 15.7035
vt -3.93701 14.0976
f 13/76/12 12/77/13 49/78/13 48/79/12 

vt 0 11.7682
vt 0 13.3741
vn 0 -1 7.45058e-009
vt -3.93701 13.3741
vt -3.93701 11.7682
f 12/80/13 11/81/14 50/82/14 49/83/13 

vt 0 -8.58213
vt 0 -10.188
vn 0 -0.965926 0.258819
vt 3.93701 -10.188
vt 3.93701 -8.58213
f 11/84/14 10/85/15 51/86/15 50/87/14 

vt 0 -4.75648
vt 0 -6.36236
vn 0 -0.866025 0.5
vt 3.93701 -6.36236
vt 3.93701 -4.75648
f 10/88/15 9/89/16 52/90/16 51/91/15 

vt 0 -0.551963
vt 0 -2.15785
vn 0 -0.707107 0.707107
vt 3.93701 -2.15785
vt 3.93701 -0.551963
f 9/92/16 8/93/17 53/94/17 52/95/16 

vt 0 3.74489
vt 0 2.139
vn 0 -0.5 0.866025
vt 3.93701 2.139
vt 3.93701 3.74489
f 8/96/17 7/97/18 54/98/18 53/99/17 

vt 0 7.84125
vt 0 6.23536
vn 5.59392e-019 -0.258819 0.965926
vt 3.93701 6.23536
vt 3.93701 7.84125
f 7/100/18 6/101/19 55/102/19 54/103/18 

vt 1.90359e-017 11.458
vt 1.92704e-017 9.85207
vn 1.10921e-018 -0.130526 0.991445
vt 3.93701 9.85207
vt 3.93701 11.458
f 6/104/19 1/105/20 4/106/20 55/107/19 

v 0.1 0.31 -0.5625
vt -3.93701 6.21725e-015
vt 0 6.21725e-015
f 56/56/4 40/108/4 5/109/4 36/1/4 

usemtl Glass
v 0.1 0.35044 -0.567824
v 0.1 0.388125 -0.583434
v 0.1 0.420485 -0.608265
v 0.1 0.445316 -0.640625
v 0.1 0.460926 -0.67831
v 0.1 0.46625 -0.71875
v 0.1 0.460926 -0.75919
v 0.1 0.445316 -0.796875
v 0.1 0.420485 -0.829235
v 0.1 0.388125 -0.854066
v 0.1 0.35044 -0.869676
v 0.1 0.31 -0.875
f 40/5/2 56/38/2 57/37/2 58/36/2 59/35/2 60/34/2 61/33/2 62/32/2 63/31/2 64/30/2 65/29/2 66/28/2 67/27/2 68/26/2 41/25/2 

usemtl Brick
vt 3.96558e-017 14.9909
vn 1.77536e-018 -0.130526 -0.991445
vt 4.00311e-017 16.5968
vn 8.95339e-019 -0.258819 -0.965926
vt -3.93701 16.5968
vt -3.93701 14.9909
f 36/110/21 35/111/22 57/112/22 56/113/21 

vt 0 21.3016
vt 0 22.9075
vt -3.93701 22.9075
vt -3.93701 21.3016
f 35/114/22 34/115/10 58/116/10 57/117/22 

vt 0 26.106
vt 0 27.7119
vt -3.93701 27.7119
vt -3.93701 26.106
f 34/118/10 33/119/11 59/120/11 58/121/10 

vt 0 29.0765
vt 0 30.6824
vt -3.93701 30.6824
vt -3.93701 29.0765
f 33/122/11 32/123/12 60/124/12 59/125/11 

vt 0 30.0108
vt 0 31.6167
vt -3.93701 31.6167
vt -3.93701 30.0108
f 32/126/12 31/127/13 61/128/13 60/129/12 

vt 0 28.8453
vt 0 30.4511
vt -3.93701 30.4511
vt -3.93701 28.8453
f 31/130/13 30/131/14 62/132/14 61/133/13 

vt 0 -25.6592
vt 0 -27.2651
vt 3.93701 -27.2651
vt 3.93701 -25.6592
f 30/134/14 29/135/15 63/136/15 62/137/14 

vt 0 -20.6698
vt 0 -22.2756
vt 3.93701 -22.2756
vt 3.93701 -20.6698
f 29/138/15 28/139/16 64/140/16 63/141/15 

vt 0 -14.217
vt 0 -15.8229
vt 3.93701 -15.8229
vt 3.93701 -14.217
f 28/142/16 27/143/17 65/144/17 64/145/16 

vt 0 -6.74067
vt 0 -8.34655
vt 3.93701 -8.34655
vt 3.93701 -6.74067
f 27/146/17 26/147/18 66/148/18 65/149/17 

vt 0 1.24975
vt 0 -0.356133
vn 2.14411e-031 -0.258819 0.965926
vt 3.93701 -0.356133
vt 3.93701 1.24975
f 26/150/18 25/151/23 67/152/23 66/153/18 

vt 1.46825e-029 9.20972
vt 1.47724e-029 7.60384
vn 4.25153e-031 -0.130526 0.991445
vt 3.93701 7.60384
vt 3.93701 9.20972
f 25/154/23 24/155/24 68/156/24 67/157/23 

vt 3.93701 6.21725e-015
f 68/4/1 24/1/1 23/109/1 41/158/1 

