# Alias OBJ Model File
# Exported from SketchUp, (c) 2000-2012 Trimble Navigation Limited
# File units = meters

mtllib modularBuildings_096.mtl

g Mesh1 Group1 Model

usemtl Metal
v 0.05 0.23044 -0.307176
vt -1.9685 7.41632
vn 0 0.258819 -0.965926
v 0.05 0.19 -0.3125
vt -1.9685 5.81044
vn 0 0.130526 -0.991445
v 0 0.19 -0.3125
vt 0 5.81044
v 0 0.23044 -0.307176
vt 0 7.41632
f 1/1/1 2/2/2 3/3/2 4/4/1 

vt 12.0935 9.07246
vn 1 0 -0
v 0.05 0 -0.3125
vt 12.3031 0
vt 12.3031 7.48031
f 1/5/3 5/6/3 2/7/3

v 0.05 0.268125 -0.291566
vt 11.479 10.5561
f 6/8/3 5/6/3 1/5/3

v 0.05 0.187388 -0.272653
vt 10.7344 7.37749
f 7/9/3 5/6/3 6/8/3

v 0.05 0.0398466 -0.272653
vt 10.7344 1.56876
f 8/10/3 5/6/3 7/9/3

v 0.05 0.0398466 -0.0398466
vt 1.56876 1.56876
f 9/11/3 5/6/3 8/10/3

v 0.05 0 -0
vt 0 0
f 9/11/3 10/12/3 5/6/3

v 0.05 0.19 -0
vt 0 7.48031
f 10/12/3 9/11/3 11/13/3

v 0.05 0.23044 -0.00532409
vt 0.20961 9.07246
f 11/13/3 9/11/3 12/14/3

v 0.05 0.268125 -0.0209335
vt 0.824155 10.5561
f 12/14/3 9/11/3 13/15/3

v 0.05 0.187388 -0.0398466
vt 1.56876 7.37749
f 14/16/3 13/15/3 9/11/3

v 0.05 0.300485 -0.0457646
vt 1.80175 11.8301
f 13/15/3 14/16/3 15/17/3

v 0.05 0.220038 -0.0441451
vt 1.738 8.66293
f 15/17/3 14/16/3 16/18/3

v 0 0.187388 -0.0398466
vt 0 7.51914
vn 0 -0.130526 -0.991445
v 0 0.220038 -0.0441451
vt 0 8.81567
vn 0 -0.258819 -0.965926
vt -1.9685 8.81567
vt -1.9685 7.51914
f 17/19/4 18/20/5 16/21/5 14/22/4 

vt -1.56876 7.37749
vn -1 0 -0
v 0 0.300485 -0.0457646
vt -1.80175 11.8301
vt -1.738 8.66293
f 17/23/6 19/24/6 18/25/6

v 0 0.268125 -0.0209335
vt -0.824155 10.5561
f 19/24/6 17/23/6 20/26/6

v 0 0.0398466 -0.0398466
vt -1.56876 1.56876
f 21/27/6 20/26/6 17/23/6

v 0 0.23044 -0.00532409
vt -0.20961 9.07246
f 21/27/6 22/28/6 20/26/6

v 0 0 -0
f 23/12/6 22/28/6 21/27/6

v 0 0.19 -0
f 22/28/6 23/12/6 24/13/6

vt 1.9685 0
vn 0 0 1
vt 1.9685 7.48031
f 10/29/7 11/30/7 24/13/7 23/12/7 

vt 1.9685 7.41632
vn 0 0.130526 0.991445
vt 1.9685 9.0222
vn 0 0.258819 0.965926
vt 0 9.0222
f 11/31/8 12/32/9 22/33/9 24/4/8 

vt 1.9685 8.46207
vt 1.9685 10.068
vn 0 0.5 0.866025
vt 0 10.068
vt 0 8.46207
f 12/34/9 13/35/10 20/36/10 22/37/9 

vt 1.9685 8.87643
vt 1.9685 10.4823
vn 0 0.707107 0.707107
vt 0 10.4823
vt 0 8.87643
f 13/38/10 15/39/11 19/40/11 20/41/10 

vt 1.9685 8.63116
v 0.05 0.325316 -0.078125
vt 1.9685 10.237
vn 0 0.866025 0.5
v 0 0.325316 -0.078125
vt 0 10.237
vt 0 8.63116
f 15/42/11 25/43/12 26/44/12 19/45/11 

v 0.05 0.24803 -0.0557395
vt 2.19447 9.76495
vt 3.07579 12.8077
f 15/17/3 27/46/3 25/47/3

f 15/17/3 16/18/3 27/46/3

vt 0 8.66861
v 0 0.24803 -0.0557395
vt 0 9.86143
vn -6.51246e-028 -0.5 -0.866025
vt -1.9685 9.86143
vt -1.9685 8.66861
f 18/48/5 28/49/13 27/50/13 16/51/5 

vt -2.19447 9.76495
f 18/25/6 19/24/6 28/52/6

vt -3.07579 12.8077
f 28/52/6 19/24/6 26/53/6

v 0 0.272066 -0.0741835
vt -2.92061 10.7113
f 28/52/6 26/53/6 29/54/6

v 0 0.290511 -0.0982202
vt -3.86694 11.4374
f 29/54/6 26/53/6 30/55/6

v 0 0.340926 -0.11581
vt -4.55943 13.4223
f 30/55/6 26/53/6 31/56/6

vt 1.9685 7.74296
v 0.05 0.340926 -0.11581
vt 1.9685 9.34885
vn 0 0.965926 0.258819
vt 0 9.34885
vt 0 7.74296
f 25/57/12 32/58/14 31/59/14 26/60/12 

v 0.05 0.290511 -0.0982202
vt 3.86694 11.4374
vt 4.55943 13.4223
f 25/47/3 33/61/3 32/62/3

v 0.05 0.272066 -0.0741835
vt 2.92061 10.7113
f 25/47/3 34/63/3 33/61/3

f 25/47/3 27/46/3 34/63/3

vt -3.57196e-027 9.08296
vt -4.75391e-027 10.2758
vn -4.39801e-018 -0.707107 -0.707107
vt -1.9685 10.2758
vt -1.9685 9.08296
f 28/64/13 29/65/15 34/66/15 27/67/13 

vt -4.1839e-017 8.83769
vt -5.53956e-017 10.0305
vn -4.39801e-018 -0.866025 -0.5
vt -1.9685 10.0305
vt -1.9685 8.83769
f 29/68/15 30/69/16 33/70/16 34/71/15 

vt -6.44889e-027 7.9495
v 0 0.302105 -0.126212
vt -8.28673e-027 9.14232
vn -3.21854e-028 -0.965926 -0.258819
v 0.05 0.302105 -0.126212
vt -1.9685 9.14232
vt -1.9685 7.9495
f 30/72/16 35/73/17 36/74/17 33/75/16 

vt -4.96896 11.8939
f 30/55/6 31/56/6 35/76/6

v 0 0.34625 -0.15625
vt -6.15157 13.6319
f 35/76/6 31/56/6 37/77/6

vt 1.9685 6.27238
v 0.05 0.34625 -0.15625
vt 1.9685 7.87827
vn 0 1 -7.45058e-009
vt 0 7.87827
vt 0 6.27238
f 32/78/14 38/79/18 37/80/18 31/81/14 

vt 4.96896 11.8939
vt 6.15157 13.6319
f 32/62/3 36/82/3 38/83/3

f 32/62/3 33/61/3 36/82/3

v 0.05 0.30606 -0.15625
vt 6.15157 12.0496
f 38/83/3 36/82/3 39/84/3

vt 0 6.47891
v 0 0.30606 -0.15625
vt 0 7.67173
vn -1.09778e-028 -1 7.45057e-009
vt -1.9685 7.67173
vt -1.9685 6.47891
f 35/85/17 40/86/19 39/87/19 36/88/17 

vt -6.15157 12.0496
f 35/76/6 37/77/6 40/89/6

v 0 0.302105 -0.186288
vt -7.33419 11.8939
f 40/89/6 37/77/6 41/90/6

v 0 0.340926 -0.19669
vt -7.74372 13.4223
f 41/90/6 37/77/6 42/91/6

vt -1.9685 -4.31963
v 0.05 0.340926 -0.19669
vt -1.9685 -5.92551
vn 0 0.965926 -0.258819
vt 0 -5.92551
vt 0 -4.31963
f 38/92/18 43/93/20 42/94/20 37/95/18 

v 0.05 0.302105 -0.186288
vt 7.33419 11.8939
vt 7.74372 13.4223
f 38/83/3 44/96/3 43/97/3

f 38/83/3 39/84/3 44/96/3

vt -1.0259e-026 -4.52616
vt -1.22312e-026 -5.71898
vn -4.31632e-028 -0.965926 0.258819
vt 1.9685 -5.71898
vt 1.9685 -4.52616
f 40/98/19 41/99/21 44/100/21 39/101/19 

vt -1.22312e-026 -2.22431
v 0 0.290511 -0.21428
vt -1.40691e-026 -3.41713
vn 1.90142e-028 -0.866025 0.5
v 0.05 0.290511 -0.21428
vt 1.9685 -3.41713
vt 1.9685 -2.22431
f 41/102/21 45/103/22 46/104/22 44/105/21 

vt -8.43621 11.4374
f 41/90/6 42/91/6 45/106/6

v 0 0.325316 -0.234375
vt -9.22736 12.8077
f 45/106/6 42/91/6 47/107/6

vt -1.9685 -2.01778
v 0.05 0.325316 -0.234375
vt -1.9685 -3.62366
vn 0 0.866025 -0.5
vt 0 -3.62366
vt 0 -2.01778
f 43/108/20 48/109/23 47/110/23 42/111/20 

vt 8.43621 11.4374
vt 9.22736 12.8077
f 43/97/3 46/112/3 48/113/3

f 43/97/3 44/96/3 46/112/3

v 0.05 0.272066 -0.238316
vt 9.38254 10.7113
f 48/113/3 46/112/3 49/114/3

vt 1.40691e-026 0.269765
v 0 0.272066 -0.238316
vt 1.56473e-026 -0.923055
vn -1.5525e-028 -0.707107 0.707107
vt 1.9685 -0.923055
vt 1.9685 0.269765
f 45/115/22 50/116/24 49/117/24 46/118/22 

vt -9.38254 10.7113
f 45/106/6 47/107/6 50/119/6

v 0 0.300485 -0.266735
vt -10.5014 11.8301
f 50/119/6 47/107/6 51/120/6

vt -1.9685 0.476296
v 0.05 0.300485 -0.266735
vt -1.9685 -1.12959
vn 0 0.707107 -0.707107
vt 0 -1.12959
vt 0 0.476296
f 48/121/23 52/122/25 51/123/25 47/124/23 

vt 10.5014 11.8301
f 48/113/3 49/114/3 52/125/3

v 0.05 0.24803 -0.256761
vt 10.1087 9.76495
f 52/125/3 49/114/3 53/126/3

vt -1.56473e-026 2.7861
v 0 0.24803 -0.256761
vt -1.68582e-026 1.59328
vn 1.19836e-028 -0.5 0.866025
vt 1.9685 1.59328
vt 1.9685 2.7861
f 50/127/24 54/128/26 53/129/26 49/130/24 

vt -10.1087 9.76495
f 50/119/6 51/120/6 54/131/6

v 0 0.220038 -0.268355
vt -10.5652 8.66293
f 54/131/6 51/120/6 55/132/6

v 0 0.268125 -0.291566
vt -11.479 10.5561
f 55/132/6 51/120/6 56/133/6

vt -1.9685 2.99263
vt -1.9685 1.38675
vn 0 0.5 -0.866025
vt 0 1.38675
vt 0 2.99263
f 52/134/25 6/135/27 56/136/27 51/137/25 

v 0.05 0.220038 -0.268355
vt 10.5652 8.66293
f 52/125/3 57/138/3 6/8/3

f 52/125/3 53/126/3 57/138/3

vt 1.70765e-026 5.15321
vt 1.78476e-026 3.96039
vn -4.67675e-029 -0.258819 0.965926
vt 1.9685 3.96039
vt 1.9685 5.15321
f 54/139/26 55/140/28 57/141/28 53/142/26 

vt -1.76195e-026 7.20979
v 0 0.187388 -0.272653
vt -1.79017e-026 5.91326
vn -1.65343e-027 -0.130526 0.991445
vt 1.9685 5.91326
vt 1.9685 7.20979
f 55/143/28 58/144/29 7/145/29 57/146/28 

vt -10.7344 7.37749
f 55/132/6 56/133/6 58/147/6

v 0 0.0398466 -0.272653
vt -10.7344 1.56876
f 58/147/6 56/133/6 59/148/6

v 0 0 -0.3125
vt -12.3031 0
f 60/149/6 59/148/6 56/133/6

f 60/149/6 21/27/6 59/148/6

f 23/12/6 21/27/6 60/149/6

vt -1.9685 12.3031
vn 0 -1 -0
vt -1.9685 0
vt 0 12.3031
f 5/150/30 10/151/30 23/12/30 60/152/30 

vt -1.9685 7.48031
vn 0 0 -1
f 2/153/31 5/151/31 60/12/31 3/13/31 

vt -12.0935 9.07246
vt -12.3031 7.48031
f 60/149/6 4/154/6 3/155/6

f 60/149/6 56/133/6 4/154/6

vt -1.9685 5.35975
vt -1.9685 3.75386
vt 0 3.75386
vt 0 5.35975
f 6/156/27 1/157/1 4/158/1 56/159/27 

vt 3.49556e-031 10.7344
vn -2.22822e-031 1 -0
vt 3.49556e-031 1.56876
vt 1.9685 1.56876
vt 1.9685 10.7344
f 59/160/32 21/161/32 9/162/32 8/163/32 

vt 0 1.56876
vt 0 7.37749
vt -1.9685 7.37749
vt -1.9685 1.56876
f 21/164/31 17/165/31 14/166/31 9/167/31 

vt 1.9685 7.37749
f 58/165/7 59/164/7 8/162/7 7/168/7 

f 6/8/3 57/138/3 7/9/3

