# Alias OBJ Model File
# Exported from SketchUp, (c) 2000-2012 Trimble Navigation Limited
# File units = meters

mtllib modularBuildings_038.mtl

g Mesh1 Group1 Model

usemtl Brick
v 0.360485 0.5025 -0.139515
vt -14.1923 5.4927
vn 4.35712e-016 -1 -4.35712e-016
v 0.139515 0.5025 -0.360485
vt -5.4927 14.1923
v 0.210225 0.5025 -0.431196
vt -8.27658 16.9762
v 0.431196 0.5025 -0.210225
vt -16.9762 8.27658
f 1/1/1 2/2/1 3/3/1 4/4/1 

v 0 5.86553e-016 -0.5
vt -13.9194 2.00414e-014
vn -0.707107 -2.19209e-016 0.707107
v 0.139515 4.28635e-016 -0.360485
vt -6.15157 1.38241e-014
vt -6.15157 19.7835
vt 6.15157 19.7835
v 0.360485 4.06075e-016 -0.139515
vt 6.15157 1.29359e-014
v 0.5 4.51195e-017 -0
vt 13.9194 -1.27491e-015
v 0.5 0.625 -0
vt 13.9194 24.6063
v 0 0.625 -0.5
vt -13.9194 24.6063
f 5/5/2 6/6/2 2/7/2 1/8/2 7/9/2 8/10/2 9/11/2 10/12/2 

v 1 0 -0
vt -39.3701 -2.6873e-030
vn -3.88131e-016 -1 1.75862e-016
vt -19.685 -1.65605e-030
v 0.431196 4.06075e-016 -0.210225
v 0.210225 4.28635e-016 -0.431196
vt 8.96298e-030 19.685
v 0 0 -1
vt 0 39.3701
v 1 0 -1
vt -39.3701 39.3701
f 11/13/3 8/14/3 7/1/3 12/4/3 13/3/3 6/2/3 5/15/3 14/16/3 15/17/3 

vt 19.685 24.6063
vn 0 0 1
vt 19.685 1.77636e-015
vt 39.3701 0
v 1 0.625 -0
vt 39.3701 24.6063
f 9/18/4 8/19/4 11/20/4 16/21/4 

vn 1 0 -0
v 1 0.625 -1
vt 0 24.6063
vt 0 0
f 15/20/5 17/21/5 16/22/5 11/23/5 

vn 0 0 -1
v 0 0.625 -1
vt -39.3701 24.6063
vt -39.3701 0
f 14/23/6 18/22/6 17/24/6 15/25/6 

vt -39.3701 -4.10359e-030
vn -1 2.88765e-016 -3.60956e-016
vt -19.685 2.30926e-014
vt -19.685 24.6063
f 14/26/7 5/27/7 10/28/7 18/24/7 

vt -8.88178e-015 39.3701
vn 3.60956e-016 1 7.21911e-016
vt -8.88178e-015 19.685
vt 19.685 1.77636e-014
vt 39.3701 1.77636e-014
vt 39.3701 39.3701
f 18/29/8 10/30/8 9/31/8 16/32/8 17/33/8 

vt -13.9194 1.6007e-014
vn -0.707107 3.2093e-018 -0.707107
vt -13.9194 19.7835
vt -17.8564 19.7835
vt -17.8564 1.6007e-014
f 7/34/9 1/35/9 4/36/9 12/37/9 

usemtl Glass
vn -0.707107 -6.1619e-016 0.707107
vt -6.15157 5.87244e-015
vt 6.15157 4.98426e-015
f 4/8/10 3/7/10 13/38/10 12/39/10 

usemtl Brick
vt 13.9194 19.7835
vn 0.707107 5.10279e-016 0.707107
vt 13.9194 2.00144e-014
vt 17.8564 2.00144e-014
vt 17.8564 19.7835
f 2/40/11 6/41/11 13/42/11 3/43/11 

