# Alias OBJ Model File
# Exported from SketchUp, (c) 2000-2012 Trimble Navigation Limited
# File units = meters

mtllib modularBuildings_070.mtl

g Mesh1 Group1 Model

usemtl Brick
v 1 0 -1
vt -39.3701 0
vn 0 0 -1
v 0.1 0 -1
vt -3.93701 0
v 0.1 0.5 -1
vt -3.93701 19.685
v 0 0.5 -1
vt 0 19.685
v 0 0.625 -1
vt 0 24.6063
v 1 0.625 -1
vt -39.3701 24.6063
f 1/1/1 2/2/1 3/3/1 4/4/1 5/5/1 6/6/1 

v 1 0 -0
vn 0 -1 -0
v 0.1 0 -2.88765e-015
vt -3.93701 1.13687e-013
vt -3.93701 39.3701
vt -39.3701 39.3701
f 7/1/2 8/7/2 2/8/2 1/9/2 

vt 39.3701 -2.29075e-029
vn -1.35468e-015 -4.29511e-016 1
v 1 0.625 -0
vt 39.3701 24.6063
v 0 0.625 -0
v 0 0.5 -2.88765e-015
vt -1.54009e-028 19.685
v 0.1 0.5 -2.88765e-015
vt 3.93701 19.685
vt 3.93701 -5.11205e-029
f 7/10/3 9/11/3 10/5/3 11/12/3 12/13/3 8/14/3 

vt 39.3701 0
vn 1 0 -0
vt 0 0
f 1/15/4 6/11/4 9/5/4 7/16/4 

vt 0 39.3701
vn 0 1 -0
vt 39.3701 39.3701
f 5/17/5 10/16/5 9/15/5 6/18/5 

vt -39.3701 19.685
vn -1 0 -0
vt -1.13687e-013 19.685
f 4/19/6 11/20/6 10/5/6 5/6/6 

vn 0 -1 -1.80478e-016
vt -3.93701 1.1724e-013
vt 0 1.1724e-013
f 4/17/7 3/8/7 12/21/7 11/22/7 

usemtl Glass
vt -1.13687e-013 0
f 3/19/6 2/1/6 8/23/6 12/20/6 

