# Alias OBJ Model File
# Exported from SketchUp, (c) 2000-2012 Trimble Navigation Limited
# File units = meters

mtllib modularBuildings_085.mtl

g Mesh1 Group1 Model

usemtl Wood
v 0.05 0 -0
vt 1.9685 0
vn 0 0 1
v 0.05 0.5 -0
vt 1.9685 19.685
v 0 0.5 -0
vt 0 19.685
v 0 0 -0
vt 0 0
f 1/1/1 2/2/1 3/3/1 4/4/1 

vt 0 -7.10543e-016
vn 1 3.60956e-016 -0
v 0.05 0.0477417 -0.0477417
vt 1.87959 1.87959
f 1/5/2 5/6/2 2/3/2

v 0.05 0 -0.3125
vt 12.3031 -7.10543e-016
f 5/6/2 1/5/2 6/7/2

vt -1.9685 12.3031
vn 0 -1 -0
vt -1.9685 0
v 0 0 -0.3125
vt 0 12.3031
f 6/8/3 1/9/3 4/4/3 7/10/3 

vn -1 -3.60956e-016 -0
v 0 0.0477417 -0.0477417
vt -1.87959 1.87959
vt -12.3031 0
f 4/4/4 8/11/4 7/12/4

v 0 0.452258 -0.0477417
vt -1.87959 17.8054
f 8/11/4 4/4/4 9/13/4

f 3/3/4 9/13/4 4/4/4

v 0 0.5 -0.3125
vt -12.3031 19.685
f 9/13/4 3/3/4 10/14/4

vn 0 1 -0
v 0.05 0.5 -0.3125
vt 1.9685 12.3031
f 2/1/5 11/15/5 10/10/5 3/4/5 

v 0.05 0.452258 -0.0477417
vt 1.87959 17.8054
vt 12.3031 19.685
f 2/3/2 12/16/2 11/17/2

f 12/16/2 2/3/2 5/6/2

v 0.05 0.166129 -0.0477417
vt 1.87959 6.54052
f 12/16/2 5/6/2 13/18/2

v 0.05 0.213871 -0.0477417
vt -1.9685 8.42011
vn 0 0 -1
vt -1.9685 6.54052
vt -1.9685 1.87959
vt 0 1.87959
vt 0 17.8054
vt -1.9685 17.8054
f 14/19/6 13/20/6 5/21/6 8/22/6 9/23/6 12/24/6 

vt 1.87959 8.42011
f 12/16/2 13/18/2 14/25/2

v 0 0.0477417 -0.264758
vt 0 10.4236
vt 1.9685 1.87959
v 0.05 0.0477417 -0.264758
vt 1.9685 10.4236
f 15/26/5 8/22/5 5/27/5 16/28/5 

vt -10.4236 1.87959
f 7/12/4 8/11/4 15/29/4

f 7/12/4 15/29/4 10/14/4

v 0 0.452258 -0.264758
vt -10.4236 17.8054
f 17/30/4 10/14/4 15/29/4

f 9/13/4 10/14/4 17/30/4

v 0.05 0.452258 -0.264758
vt -1.9685 10.4236
f 9/22/3 17/26/3 18/31/3 12/21/3 

v 0.05 0.166129 -0.264758
vt 1.9685 6.54052
v 0.05 0.213871 -0.264758
vt 1.9685 8.42011
vt 1.9685 17.8054
f 19/32/1 20/33/1 18/34/1 17/23/1 15/22/1 16/27/1 

vt 10.4236 6.54052
vt 10.4236 8.42011
f 19/35/2 6/7/2 20/36/2

vt 10.4236 1.87959
f 16/37/2 6/7/2 19/35/2

f 5/6/2 6/7/2 16/37/2

vt 10.4236 17.8054
f 20/36/2 6/7/2 18/38/2

f 11/17/2 18/38/2 6/7/2

f 11/17/2 12/16/2 18/38/2

vt -1.9685 19.685
f 11/39/6 6/9/6 7/4/6 10/3/6 

