# Alias OBJ Model File
# Exported from SketchUp, (c) 2000-2012 Trimble Navigation Limited
# File units = meters

mtllib modularBuildings_074.mtl

g Mesh1 Group1 Model

usemtl Metal
v 0.05 0.5 -0.25
vt 1.9685 9.84252
vn 0 1 -0
v 0 0.5 -0.25
vt 0 9.84252
v 0 0.5 -0
vt 0 0
v 0.05 0.5 -0
vt 1.9685 0
f 1/1/1 2/2/1 3/3/1 4/4/1 

v 0.05 0 -0.25
vt -1.9685 0
vn 0 0 -1
v 0 0 -0.25
vt 0 19.685
vt -1.9685 19.685
f 5/5/2 6/3/2 2/6/2 1/7/2 

vn 0 -1 -0
vt -1.9685 9.84252
v 0.05 0 -0
v 0 0 -0
f 6/2/3 5/8/3 7/5/3 8/3/3 

vn 1 0 -0
vt 9.84252 0
vt 9.84252 19.685
f 7/3/4 5/9/4 1/10/4 4/6/4 

vn 0 0 1
vt 1.9685 19.685
f 8/3/5 7/4/5 4/11/5 3/6/5 

vn -1 0 -0
v 0 0.445764 -0.0542359
vt -2.13527 17.5498
f 3/6/6 9/12/6 8/3/6

vt -9.84252 19.685
f 9/12/6 3/6/6 2/13/6

v 0 0.445764 -0.195764
vt -7.70725 17.5498
f 9/12/6 2/13/6 10/14/6

v 0 0.25 -0.195764
vt -7.70725 9.84252
f 10/14/6 2/13/6 11/15/6

vt -9.84252 0
f 6/16/6 11/15/6 2/13/6

v 0 0.25 -0.0542359
vt -2.13527 9.84252
f 6/16/6 12/17/6 11/15/6

f 8/3/6 12/17/6 6/16/6

f 12/17/6 8/3/6 9/12/6

vt 0 17.5498
v 0.025 0.445764 -0.0542359
vt -0.984252 17.5498
v 0.025 0.25 -0.0542359
vt -0.984252 9.84252
f 12/2/2 9/18/2 13/19/2 14/20/2 

vt 0 2.13527
vt 0 7.70725
v 0.025 0.445764 -0.195764
vt -0.984252 7.70725
vt -0.984252 2.13527
f 9/21/3 10/22/3 15/23/3 13/24/3 

v 0.025 0.25 -0.195764
vt 0.984252 9.84252
vt 0.984252 17.5498
f 10/18/5 11/2/5 16/25/5 15/26/5 

vn 0 1 1.59401e-016
vt 0.984252 2.13527
vt 0.984252 7.70725
f 11/22/7 12/21/7 14/27/7 16/28/7 

usemtl Glass
f 13/12/6 15/14/6 16/15/6 14/17/6 

