# Alias OBJ Model File
# Exported from SketchUp, (c) 2000-2012 Trimble Navigation Limited
# File units = meters

mtllib modularBuildings_041.mtl

g Mesh1 Group1 Model

usemtl Brick
v 0 0.625 -0
vt 0 24.6063
vn -1 0 -0
v 0 0.5 -0.125
vt -4.92126 19.685
v 0 0 -0
vt 0 0
f 1/1/1 2/2/1 3/3/1

v 0 0.625 -1
vt -39.3701 24.6063
f 2/2/1 1/1/1 4/4/1

vt 0 39.3701
vn 0 1 -0
v 1 0.625 -0
vt 39.3701 0
v 1 0.625 -1
vt 39.3701 39.3701
f 4/5/2 1/3/2 5/6/2 6/7/2 

v 1 0 -0
vn 0 0 1
vt 39.3701 24.6063
f 7/6/3 5/8/3 1/1/3 3/3/3 

v 1 0 -1
vn 1 0 -0
f 8/6/4 6/8/4 5/1/4 7/3/4 

v 0 0 -1
vn 0 0 -1
vt -39.3701 0
f 9/3/5 4/1/5 6/4/5 8/9/5 

v 0 0.06 -0.875
vt -34.4488 2.3622
f 9/9/1 10/10/1 4/4/1

v 0 0.06 -0.125
vt -4.92126 2.3622
f 9/9/1 11/11/1 10/10/1

f 3/3/1 11/11/1 9/9/1

f 11/11/1 3/3/1 2/2/1

v 3.60956e-016 0.12 -0.125
vt -4.92126 4.72441
f 11/11/1 2/2/1 12/12/1

v 0.1 0.12 -0.125
vt -3.93701 4.72441
vt -1.42109e-014 4.72441
vt 0 19.685
v 0.1 0.5 -0.125
vt -3.93701 19.685
f 13/13/5 12/14/5 2/15/5 14/16/5 

vt 3.93701 4.92126
vn 1.67587e-015 1 -6.8288e-033
v 0.1 0.12 -0.875
vt 3.93701 34.4488
v 3.60956e-016 0.12 -0.875
vt 6.29338e-015 34.4488
v -0.05 0.12 -0.875
vt -1.9685 34.4488
v -0.05 0.12 -0.125
vt -1.9685 4.92126
vt 6.29338e-015 4.92126
f 13/17/6 15/18/6 16/19/6 17/20/6 18/21/6 12/22/6 

usemtl Glass
v 0.1 0.5 -0.875
vt -34.4488 19.685
vt -34.4488 4.72441
f 19/23/1 15/24/1 13/12/1 14/2/1 

usemtl Brick
v 0 0.5 -0.875
vt 1.42109e-014 4.72441
vt 3.93701 4.72441
vt 3.93701 19.685
f 20/15/3 16/25/3 15/26/3 19/27/3 

f 20/23/1 4/4/1 16/24/1

f 2/2/1 4/4/1 20/23/1

vt 0 34.4488
vn 0 -1 -2.40637e-016
vt -3.93701 34.4488
vt -3.93701 4.92126
vt 0 4.92126
f 20/28/7 19/29/7 14/30/7 2/31/7 

f 16/24/1 4/4/1 10/10/1

vt 0 2.3622
v -0.05 0.06 -0.875
vt 1.9685 2.3622
vt 1.9685 4.72441
f 16/14/5 10/32/5 21/33/5 17/34/5 

vt 1.43885e-014 34.4488
vn -6.09113e-015 -1 2.25737e-044
vt 1.43885e-014 4.92126
v -0.05 0.06 -0.125
vt 1.9685 4.92126
vt 1.9685 34.4488
f 10/35/8 11/36/8 22/37/8 21/38/8 

vt -1.9685 4.72441
vt -1.9685 2.3622
f 11/32/3 12/25/3 18/39/3 22/40/3 

vn -1 6.01593e-015 -0
f 17/24/9 21/10/9 22/11/9 18/12/9 

vn 0 -1 -0
vt -39.3701 39.3701
f 7/9/10 3/3/10 9/5/10 8/41/10 

