# Alias OBJ Model File
# Exported from SketchUp, (c) 2000-2012 Trimble Navigation Limited
# File units = meters

mtllib modularBuildings_049.mtl

g Mesh1 Group1 Model

usemtl Brick
v 0 0.625 -1
vt -3.76924e-015 39.3701
vn 1.53182e-016 1 8.88976e-016
v 0 0.625 -0.5
vt -3.76924e-015 19.685
v 0.139515 0.625 -0.360485
vt 5.4927 14.1923
v 0.210225 0.625 -0.431196
vt 8.27658 16.9762
v 0.431196 0.625 -0.210225
vt 16.9762 8.27658
v 0.360485 0.625 -0.139515
vt 14.1923 5.4927
v 0.5 0.625 -0
vt 19.685 2.18744e-014
v 1 0.625 -0
vt 39.3701 2.18744e-014
v 1 0.625 -1
vt 39.3701 39.3701
f 1/1/1 2/2/1 3/3/1 4/4/1 5/5/1 6/6/1 7/7/1 8/8/1 9/9/1 

v 0 0 -1
vt -39.3701 -4.10359e-030
vn -1 2.88765e-016 -3.60956e-016
v 0 5.86553e-016 -0.5
vt -19.685 2.30926e-014
vt -19.685 24.6063
vt -39.3701 24.6063
f 10/10/2 11/11/2 2/12/2 1/13/2 

v 1 0 -0
vt -39.3701 -2.78438e-030
vn -3.9247e-016 -1 1.802e-016
v 0.5 4.51195e-017 -0
vt -19.685 -1.71229e-030
v 0.360485 4.17355e-016 -0.139515
vt -14.1923 5.4927
v 0.431196 4.17355e-016 -0.210225
vt -16.9762 8.27658
v 0.210225 4.39915e-016 -0.431196
vt -8.27658 16.9762
v 0.139515 4.39915e-016 -0.360485
vt -5.4927 14.1923
vt 9.06317e-030 19.685
vt 0 39.3701
v 1 0 -1
vt -39.3701 39.3701
f 12/14/3 13/15/3 14/16/3 15/17/3 16/18/3 17/19/3 11/20/3 10/21/3 18/22/3 

vt 19.685 24.6063
vn 0 0 1
vt 19.685 1.77636e-015
vt 39.3701 0
vt 39.3701 24.6063
f 7/23/4 13/24/4 12/25/4 8/26/4 

vt 13.9194 24.6063
vn -0.707107 3.98312e-016 0.707107
vt 6.15157 24.6063
vt 6.15157 2.19756e-014
vt 13.9194 7.32064e-015
f 7/27/5 6/28/5 14/29/5 13/30/5 

vt -13.9194 1.64313e-014
vn -0.707107 0 -0.707107
vt -13.9194 24.6063
vt -17.8564 24.6063
vt -17.8564 1.64313e-014
f 14/31/6 6/32/6 5/33/6 15/34/6 

usemtl Glass
vn -0.707107 -6.1619e-016 0.707107
vt -6.15157 24.6063
vt -6.15157 6.31652e-015
vt 6.15157 5.42835e-015
f 5/28/7 4/35/7 16/36/7 15/37/7 

usemtl Brick
vn 0.707107 8.1737e-016 0.707107
vt 13.9194 2.23476e-014
vt 17.8564 2.23476e-014
vt 17.8564 24.6063
f 3/27/8 17/38/8 16/39/8 4/40/8 

vt -6.15157 5.99991e-015
vn -0.707107 -8.13221e-016 0.707107
vt -13.9194 1.17731e-014
f 17/41/9 3/35/9 2/32/9 11/42/9 

vn 1 0 -0
vt 0 24.6063
vt 0 0
f 18/25/10 9/26/10 8/43/10 12/44/10 

vn 0 0 -1
vt -39.3701 0
f 10/44/11 1/43/11 9/13/11 18/45/11 

