# Alias OBJ Model File
# Exported from SketchUp, (c) 2000-2012 Trimble Navigation Limited
# File units = meters

mtllib modularBuildings_051.mtl

g Mesh1 Group1 Model

usemtl Roof
v -1.04564 0.0527096 -1.04564
vt -41.167 28.5172
vn -0.755965 -0.654612 1.12648e-008
v -1 0 -1
vt -39.3701 25.7721
v -1 0 1.49013e-008
vt -5.71812e-014 25.7721
v -1.04564 0.0527096 1.62615e-008
vt 2.67769e-008 28.5172
f 1/1/1 2/2/1 3/3/1 4/4/1 

vt 39.3701 25.7721
vn -1.12648e-008 -0.654612 -0.755965
vt 41.167 28.5172
v -1.62614e-008 0.0527096 -1.04564
vt 2.67736e-008 28.5172
v -1.49013e-008 0 -1
vt 8.32095e-014 25.7721
f 2/5/2 1/6/2 5/7/2 6/8/2 

vt 41.167 -29.9554
vn -9.6778e-009 0.760394 -0.649462
v -0.5 0.51875 -0.5
vt 19.685 -1.70427
v -3.46517e-014 0.51875 -0.5
vt -2.9333e-007 -1.70427
vt 2.67736e-008 -29.9554
f 1/9/3 7/10/3 8/11/3 5/12/3 

vt -19.685 -1.70427
vn -0.649462 0.760394 9.6778e-009
vt -41.167 -29.9554
vt 2.67769e-008 -29.9554
v -0.5 0.51875 5.77529e-014
f 7/13/4 1/14/4 4/15/4 9/11/4 

usemtl Brick
v 0 0 -0
vt 0 0
vn 2.0136e-008 1.23795e-008 1
v 1.04804e-008 0.0916937 -1.04805e-008
vt 4.12616e-007 3.60999
vt -19.685 20.4232
vt -41.167 2.07518
vt -39.3701 2.55132e-015
f 10/16/5 11/17/5 9/18/5 4/19/5 3/20/5 

vt 4.12618e-007 3.60999
vn 1 -1.23796e-008 -2.01359e-008
vt 39.3701 2.55129e-015
vt 41.167 2.07518
vt 19.685 20.4232
f 11/21/6 10/16/6 6/22/6 5/23/6 8/24/6 

vt 39.3701 -5.86664e-007
vn 0 -1 -0
vt 39.3701 39.3701
vt 5.86664e-007 39.3701
f 3/25/7 2/26/7 6/27/7 10/16/7 

usemtl Roof
vt -19.685 28.2325
vn 9.6778e-009 0.760394 0.649462
vt 4.12616e-007 2.34455
vt 2.9333e-007 28.2325
f 7/28/8 11/29/8 8/30/8

vt 4.12618e-007 2.34455
vn 0.649462 0.760394 -9.67781e-009
vt 19.685 28.2325
f 11/31/9 7/32/9 9/30/9

