# Alias OBJ Model File
# Exported from SketchUp, (c) 2000-2012 Trimble Navigation Limited
# File units = meters

mtllib modularBuildings_093.mtl

g Mesh1 Group1 Model

usemtl Wood
v 0.05 0.394416 -0.160041
vt -1.9685 8.48364
vn 0 0.707107 -0.707107
v 0.05 0.375 -0.17494
vt -1.9685 7.52011
vn 0 0.5 -0.866025
v 0 0.375 -0.17494
vt 0 7.52011
v 0 0.394416 -0.160041
vt 0 8.48364
f 1/1/1 2/2/2 3/3/2 4/4/1 

vt 6.30084 15.5282
vn 1 0 -0
v 0.05 0 -0.1875
vt 7.38189 0
vt 6.8874 14.7638
f 1/5/3 5/6/3 2/7/3

v 0.05 0.409315 -0.140625
vt 5.53642 16.1148
f 6/8/3 5/6/3 1/5/3

v 0.05 0.324996 -0.139758
vt 5.5023 12.7951
f 7/9/3 5/6/3 6/8/3

v 0.05 0.0477417 -0.139758
vt 5.5023 1.87959
f 8/10/3 5/6/3 7/9/3

v 0.05 0.0477417 -0.0477417
vt 1.87959 1.87959
f 9/11/3 5/6/3 8/10/3

v 0.05 0 -0
vt 0 0
f 9/11/3 10/12/3 5/6/3

v 0.05 0.328125 -0
vt 0 12.9183
f 10/12/3 9/11/3 11/13/3

v 0.05 0.352389 -0.00319445
vt 0.125766 13.8736
f 11/13/3 9/11/3 12/14/3

v 0.05 0.375 -0.0125601
vt 0.494493 14.7638
f 12/14/3 9/11/3 13/15/3

v 0.05 0.394416 -0.0274587
vt 1.08105 15.5282
f 13/15/3 9/11/3 14/16/3

v 0.05 0.409315 -0.046875
vt 1.84547 16.1148
f 14/16/3 9/11/3 15/17/3

v 0.05 0.324996 -0.0477417
vt 1.87959 12.7951
f 15/17/3 9/11/3 16/18/3

v 0 0.0477417 -0.0477417
vt 0 1.87959
vn 0 5.20758e-015 -1
v 0 0.324996 -0.0477417
vt 0 12.7951
vt -1.9685 12.7951
vt -1.9685 1.87959
f 17/19/4 18/20/4 16/21/4 9/22/4 

vt -1.87959 1.87959
vn -1 0 -0
v 0 0.409315 -0.046875
vt -1.84547 16.1148
vt -1.87959 12.7951
f 17/23/5 19/24/5 18/25/5

v 0 0.394416 -0.0274587
vt -1.08105 15.5282
f 17/23/5 20/26/5 19/24/5

v 0 0.375 -0.0125601
vt -0.494493 14.7638
f 17/23/5 21/27/5 20/26/5

v 0 0.352389 -0.00319445
vt -0.125766 13.8736
f 17/23/5 22/28/5 21/27/5

v 0 0 -0
f 23/12/5 22/28/5 17/23/5

v 0 0.328125 -0
f 22/28/5 23/12/5 24/13/5

vt 1.9685 0
vn 0 0 1
vt 1.9685 12.9183
f 10/29/6 11/30/6 24/13/6 23/12/6 

vt 1.9685 12.8078
vn 0 0.130526 0.991445
vt 1.9685 13.7713
vn 0 0.258819 0.965926
vt 0 13.7713
vt 0 12.8078
f 11/31/7 12/32/8 22/33/8 24/34/7 

vt 1.9685 12.8657
vt 1.9685 13.8292
vn 0 0.5 0.866025
vt 0 13.8292
vt 0 12.8657
f 12/35/8 13/36/9 21/37/9 22/38/8 

vt 1.9685 12.0139
vt 1.9685 12.9775
vn 0 0.707107 0.707107
vt 0 12.9775
vt 0 12.0139
f 13/39/9 14/40/10 20/41/10 21/42/9 

vt 1.9685 10.3106
vt 1.9685 11.2742
vn 0 0.866025 0.5
vt 0 11.2742
vt 0 10.3106
f 14/43/10 15/44/11 19/45/11 20/46/10 

vt 1.9685 7.87185
v 0.05 0.418681 -0.0694857
vt 1.9685 8.83538
vn 0 0.965926 0.258819
v 0 0.418681 -0.0694857
vt 0 8.83538
vt 0 7.87185
f 15/47/11 25/48/12 26/49/12 19/50/11 

v 0.05 0.339926 -0.0497073
vt 1.95698 13.3829
vt 2.73566 16.4835
f 15/17/3 27/51/3 25/52/3

f 27/51/3 15/17/3 16/18/3

vt 0 12.931
vn 0 -0.130526 -0.991445
v 0 0.339926 -0.0497073
vt 0 13.5239
vn 0 -0.258819 -0.965926
vt -1.9685 13.5239
vt -1.9685 12.931
f 18/53/13 28/54/14 27/55/14 16/56/13 

vt -1.95698 13.3829
f 19/24/5 28/57/5 18/25/5

vt -2.73566 16.4835
f 28/57/5 19/24/5 26/58/5

v 0 0.350923 -0.0542624
vt -2.13632 13.8159
f 28/57/5 26/58/5 29/59/5

v 0 0.360366 -0.0615085
vt -2.4216 14.1877
f 29/59/5 26/58/5 30/60/5

v 0 0.367613 -0.0709518
vt -2.79338 14.4729
f 30/60/5 26/58/5 31/61/5

v 0 0.421875 -0.09375
vt -3.69094 16.6093
f 31/61/5 26/58/5 32/62/5

vt 1.9685 4.86378
v 0.05 0.421875 -0.09375
vt 1.9685 5.82731
vn 0 1 -0
vt 0 5.82731
vt 0 4.86378
f 25/63/12 33/64/15 32/65/15 26/66/12 

v 0.05 0.367613 -0.0709518
vt 2.79338 14.4729
vt 3.69094 16.6093
f 25/52/3 34/67/3 33/68/3

v 0.05 0.360366 -0.0615085
vt 2.4216 14.1877
f 25/52/3 35/69/3 34/67/3

v 0.05 0.350923 -0.0542624
vt 2.13632 13.8159
f 25/52/3 36/70/3 35/69/3

f 25/52/3 27/51/3 36/70/3

vt 0 13.1131
vt 0 13.5817
vn 0 -0.5 -0.866025
vt -1.9685 13.5817
vt -1.9685 13.1131
f 28/71/14 29/72/16 36/73/16 27/74/14 

vt 0 12.2614
vt 0 12.73
vn 0 -0.707107 -0.707107
vt -1.9685 12.73
vt -1.9685 12.2614
f 29/75/16 30/76/17 35/77/17 36/78/16 

vt 0 10.5581
vt 0 11.0267
vn 0 -0.866025 -0.5
vt -1.9685 11.0267
vt -1.9685 10.5581
f 30/79/17 31/80/18 34/81/18 35/82/17 

vt 0 8.1193
v 0 0.372168 -0.0819488
vt 0 8.58792
vn 0 -0.965926 -0.258819
v 0.05 0.372168 -0.0819488
vt -1.9685 8.58792
vt -1.9685 8.1193
f 31/83/18 37/84/19 38/85/19 34/86/18 

vt -3.22633 14.6523
f 31/61/5 32/62/5 37/87/5

v 0 0.373721 -0.09375
vt -3.69094 14.7134
f 37/87/5 32/62/5 39/88/5

v 0 0.418681 -0.118014
vt -4.64623 16.4835
f 39/88/5 32/62/5 40/89/5

vt -1.9685 -1.49143
v 0.05 0.418681 -0.118014
vt -1.9685 -2.45496
vn 0 0.965926 -0.258819
vt 0 -2.45496
vt 0 -1.49143
f 33/90/15 41/91/20 40/92/20 32/93/15 

v 0.05 0.372168 -0.105551
vt 4.15556 14.6523
vt 4.64623 16.4835
f 33/68/3 42/94/3 41/95/3

v 0.05 0.373721 -0.09375
vt 3.69094 14.7134
f 33/68/3 43/96/3 42/94/3

vt 3.22633 14.6523
f 33/68/3 38/97/3 43/96/3

f 33/68/3 34/67/3 38/97/3

vt 0 5.11123
vt 0 5.57986
vn 0 -1 -4.5632e-015
vt -1.9685 5.57986
vt -1.9685 5.11123
f 37/98/19 39/99/21 43/100/21 38/101/19 

vt 0 -1.73888
v 0 0.372168 -0.105551
vt 0 -2.2075
vn 0 -0.965926 0.258819
vt 1.9685 -2.2075
vt 1.9685 -1.73888
f 39/102/21 44/103/22 42/104/22 43/105/21 

vt -4.15556 14.6523
f 39/88/5 40/89/5 44/106/5

v 0 0.367613 -0.116548
vt -4.58851 14.4729
f 44/106/5 40/89/5 45/107/5

v 0 0.360366 -0.125991
vt -4.96029 14.1877
f 45/107/5 40/89/5 46/108/5

v 0 0.409315 -0.140625
vt -5.53642 16.1148
f 46/108/5 40/89/5 47/109/5

vt -1.9685 2.0154
vt -1.9685 1.05187
vn 0 0.866025 -0.5
vt 0 1.05187
vt 0 2.0154
f 41/110/20 6/111/23 47/112/23 40/113/20 

v 0.05 0.360366 -0.125991
vt 4.96029 14.1877
f 41/95/3 48/114/3 6/8/3

v 0.05 0.367613 -0.116548
vt 4.58851 14.4729
f 41/95/3 49/115/3 48/114/3

f 41/95/3 42/94/3 49/115/3

vt 0 1.76795
vt 0 1.29932
vn 0 -0.866025 0.5
vt 1.9685 1.29932
vt 1.9685 1.76795
f 44/116/22 45/117/24 49/118/24 42/119/22 

vt 0 5.17026
vt 0 4.70163
vn 0 -0.707107 0.707107
vt 1.9685 4.70163
vt 1.9685 5.17026
f 45/120/24 46/121/25 48/122/25 49/123/24 

vt 0 8.23619
v 0 0.350923 -0.133238
vt 0 7.76757
vn 0 -0.5 0.866025
v 0.05 0.350923 -0.133238
vt 1.9685 7.76757
vt 1.9685 8.23619
f 46/124/25 50/125/26 51/126/26 48/127/25 

vt -5.24557 13.8159
f 46/108/5 47/109/5 50/128/5

v 0 0.339926 -0.137793
vt -5.42491 13.3829
f 50/128/5 47/109/5 52/129/5

v 0 0.324996 -0.139758
vt -5.5023 12.7951
f 52/129/5 47/109/5 53/130/5

v 0 0.0477417 -0.139758
vt -5.5023 1.87959
f 53/130/5 47/109/5 54/131/5

v 0 0 -0.1875
vt -7.38189 0
f 55/132/5 54/131/5 47/109/5

f 55/132/5 17/23/5 54/131/5

f 23/12/5 17/23/5 55/132/5

vt -1.9685 7.38189
vn 0 -1 -0
vt -1.9685 0
vt 0 7.38189
f 5/133/27 10/134/27 23/12/27 55/135/27 

v 0.05 0.328125 -0.1875
vt -1.9685 12.9183
vn 0 0 -1
v 0 0.328125 -0.1875
f 56/136/28 5/134/28 55/12/28 57/13/28 

v 0.05 0.352389 -0.184306
vt 7.25612 13.8736
vt 7.38189 12.9183
f 58/137/3 5/6/3 56/138/3

f 2/7/3 5/6/3 58/137/3

vt -1.9685 11.0043
vt -1.9685 10.0407
vn 0 0.258819 -0.965926
v 0 0.352389 -0.184306
vt 0 10.0407
vt 0 11.0043
f 2/139/2 58/140/29 59/141/29 3/142/2 

vt -1.9685 12.8078
vt -1.9685 11.8443
vn 0 0.130526 -0.991445
vt 0 11.8443
f 58/143/29 56/144/30 57/145/30 59/34/29 

vt -7.25612 13.8736
vt -7.38189 12.9183
f 55/132/5 59/146/5 57/147/5

vt -6.8874 14.7638
f 55/132/5 3/148/5 59/146/5

vt -6.30084 15.5282
f 55/132/5 4/149/5 3/148/5

f 55/132/5 47/109/5 4/149/5

vt -1.9685 5.41771
vt -1.9685 4.45418
vt 0 4.45418
vt 0 5.41771
f 6/150/23 1/151/1 4/152/1 47/153/23 

vt 0 5.5023
vt 1.9685 1.87959
vt 1.9685 5.5023
f 54/154/15 17/19/15 9/155/15 8/156/15 

vt 1.9685 12.7951
f 53/20/6 54/19/6 8/155/6 7/157/6 

vt 0 12.5603
vn 0 -0.258819 0.965926
vt 0 11.9675
vn 0 -0.130526 0.991445
vt 1.9685 11.9675
v 0.05 0.339926 -0.137793
vt 1.9685 12.5603
f 52/158/31 53/159/32 7/160/32 60/161/31 

vt 5.42491 13.3829
f 6/8/3 60/162/3 7/9/3

vt 5.24557 13.8159
f 6/8/3 51/163/3 60/162/3

f 6/8/3 48/114/3 51/163/3

vt 0 10.7568
vt 0 10.2882
vt 1.9685 10.2882
vt 1.9685 10.7568
f 50/164/26 52/165/31 60/166/31 51/167/26 

