# Alias OBJ Model File
# Exported from SketchUp, (c) 2000-2012 Trimble Navigation Limited
# File units = meters

mtllib modularBuildings_023.mtl

g Mesh1 Group1 Model

usemtl Brick
v 0 0 -0.625
vt 0 0
vn 0 0 -1
v 0 0.5 -0.625
vt 0 19.685
v 0.1 0.5 -0.625
vt -3.93701 19.685
v 0.1 0 -0.625
vt -3.93701 0
f 1/1/1 2/2/1 3/3/1 4/4/1 

v 0 0.625 -0
vt 0 24.6063
vn -1 0 -0
v 0 0.625 -1
vt -39.3701 24.6063
v 0 0 -1
vt -39.3701 0
v 0 0 -0.875
vt -34.4488 0
v 0 0.5 -0.875
vt -34.4488 19.685
vt -24.6063 19.685
vt -24.6063 0
v 0 0 -0.5
vt -19.685 0
v 0 0.5 -0.5
vt -19.685 19.685
v 0 0.5 -0.125
vt -4.92126 19.685
v 0 0 -0.125
vt -4.92126 0
v 0 0 -0
f 5/5/2 6/6/2 7/7/2 8/8/2 9/9/2 2/10/2 1/11/2 10/12/2 11/13/2 12/14/2 13/15/2 14/1/2 

vt -1.11022e-015 1.11022e-015
vn 4.51195e-017 1 4.51195e-017
v 1 0.625 -0
vt 39.3701 1.11022e-015
v 1 0.625 -1
vt 39.3701 39.3701
vt -1.11022e-015 39.3701
f 5/16/3 15/17/3 16/18/3 6/19/3 

v 1 0 -0
vt 39.3701 0
vn 0 0 1
vt 39.3701 24.6063
f 17/20/4 15/21/4 5/5/4 14/1/4 

v 1 0 -1
vn 1 0 -0
f 18/20/5 16/21/5 15/5/5 17/1/5 

f 7/1/1 6/5/1 16/6/1 18/7/1 

vn 0 -1 -0
vt 0 4.92126
v 0.1 0 -0.125
vt -3.93701 4.92126
v 0.1 0 -0.5
vt -3.93701 24.6063
v 0.1 0 -0.875
vt -3.93701 34.4488
vt 0 34.4488
vt 0 39.3701
vt -39.3701 39.3701
f 17/7/6 14/1/6 13/22/6 19/23/6 20/3/6 10/2/6 1/5/6 4/24/6 21/25/6 8/26/6 7/27/6 18/28/6 

v 0.1 0.5 -0.125
f 13/1/1 12/2/1 22/3/1 19/4/1 

v 0.1 0.5 -0.5
f 12/22/6 11/2/6 23/3/6 22/23/6 

vt 3.93701 0
vt 3.93701 19.685
f 11/2/4 10/1/4 20/29/4 23/30/4 

usemtl Glass
f 23/13/2 20/12/2 19/15/2 22/14/2 

v 0.1 0.5 -0.875
f 3/10/2 24/9/2 21/8/2 4/11/2 

usemtl Brick
f 2/5/6 9/26/6 24/25/6 3/24/6 

f 9/2/4 8/1/4 21/29/4 24/30/4 

