# Alias OBJ Model File
# Exported from SketchUp, (c) 2000-2012 Trimble Navigation Limited
# File units = meters

mtllib modularBuildings_014.mtl

g Mesh1 Group1 Model

usemtl Dark_brick
v 1 0 -0
vt -39.3701 2.26116e-031
vn -1.85634e-016 -1 -3.09391e-017
v 0.5 0 -0
vt -19.685 1.13058e-031
v 0 5.41434e-016 -0.5
vt 3.95703e-030 19.685
v 1.80478e-016 0 -1
vt -7.10543e-015 39.3701
v 1 0 -1
vt -39.3701 39.3701
f 1/1/1 2/2/1 3/3/1 4/4/1 5/5/1 

v 0.5 0.2125 -0
vt 19.685 8.36614
vn 0 0 1
vt 19.685 0
vt 39.3701 0
v 1 0.2125 -0
vt 39.3701 8.36614
f 6/6/2 2/7/2 1/8/2 7/9/2 

vt 13.9194 8.36614
vn -0.707107 5.74268e-016 0.707107
v 1.80478e-016 0.2125 -0.5
vt -13.9194 8.36614
vt -13.9194 2.93098e-014
vt 13.9194 7.99348e-015
f 6/10/3 8/11/3 3/12/3 2/13/3 

v 1.80478e-016 0.2125 -1
vt 4.08562e-015 39.3701
vn 3.60956e-016 1 7.21911e-016
vt 4.08562e-015 19.685
vt 19.685 6.03961e-015
vt 39.3701 6.03961e-015
v 1 0.2125 -1
vt 39.3701 39.3701
f 9/14/4 8/15/4 6/16/4 7/17/4 10/18/4 

vt -39.3701 -4.2039e-045
vn -1 4.24654e-016 -1.80478e-016
vt -19.685 2.13163e-014
vt -19.685 8.36614
vt -39.3701 8.36614
f 4/19/5 3/20/5 8/21/5 9/22/5 

vt -7.10543e-015 0
vn 0 0 -1
vt -7.10543e-015 8.36614
vt -39.3701 0
f 4/23/6 9/24/6 10/22/6 5/25/6 

vn 1 0 -0
vt 0 8.36614
vt 0 0
f 5/8/7 10/9/7 7/26/7 1/27/7 

