# Alias OBJ Model File
# Exported from SketchUp, (c) 2000-2012 Trimble Navigation Limited
# File units = meters

mtllib modularBuildings_090.mtl

g Mesh1 Group1 Model

usemtl Wood
v 0 0.0477417 -0.702258
vt 0 27.648
vn 0 1 -0
v 0 0.0477417 -0.0477417
vt 0 1.87959
v 0.05 0.0477417 -0.0477417
vt 1.9685 1.87959
v 0.05 0.0477417 -0.702258
vt 1.9685 27.648
f 1/1/1 2/2/1 3/3/1 4/4/1 

v 0 0 -0.75
vt -29.5276 0
vn -1 0 7.21911e-016
vt -1.87959 1.87959
vt -27.648 1.87959
f 5/5/2 2/6/2 1/7/2

v 0 0 -0
vt 0 0
f 6/8/2 2/6/2 5/5/2

v 0 0.332258 -0.0477417
vt -1.87959 13.081
f 2/6/2 6/8/2 7/9/2

v 0 0.38 -0
vt 0 14.9606
f 8/10/2 7/9/2 6/8/2

v 0 0.38 -0.75
vt -29.5276 14.9606
f 7/9/2 8/10/2 9/11/2

v 0.05 0.38 -0
vt 1.9685 0
v 0.05 0.38 -0.75
vt 1.9685 29.5276
vt 0 29.5276
f 10/12/1 11/13/1 9/14/1 8/8/1 

vt -1.42109e-015 14.9606
vn 1 0 -7.21911e-016
v 0.05 0.332258 -0.0477417
vt 1.87959 13.081
vt 29.5276 14.9606
f 10/15/3 12/16/3 11/17/3

vt 1.87959 1.87959
f 12/16/3 10/15/3 3/18/3

v 0.05 0 -0
vt -1.42109e-015 0
f 13/19/3 3/18/3 10/15/3

v 0.05 0 -0.75
vt 29.5276 0
f 3/18/3 13/19/3 14/20/3

vt -1.9685 29.5276
vn 0 -1 -0
vt -1.9685 0
f 14/21/4 13/22/4 6/8/4 5/14/4 

vn 0 0 1
vt 1.9685 14.9606
f 13/12/5 10/23/5 8/10/5 6/8/5 

vt -1.9685 14.9606
vn 0 0 -1
f 11/24/6 14/22/6 5/8/6 9/10/6 

v 0.05 0.332258 -0.702258
vt 27.648 13.081
f 11/17/3 15/25/3 14/20/3

f 11/17/3 12/16/3 15/25/3

v 0 0.332258 -0.702258
vt -1.9685 27.648
vt -1.9685 1.87959
f 7/2/4 16/1/4 15/26/4 12/27/4 

vt -27.648 13.081
f 7/9/2 9/11/2 16/28/2

f 16/28/2 9/11/2 1/7/2

f 5/5/2 1/7/2 9/11/2

v 0.05 0.166129 -0.702258
vt 1.9685 6.54052
v 0.05 0.213871 -0.702258
vt 1.9685 8.42011
vt 1.9685 13.081
vt 0 13.081
f 17/29/5 18/30/5 15/31/5 16/32/5 1/2/5 4/3/5 

vt 27.648 6.54052
vt 27.648 8.42011
f 17/33/3 14/20/3 18/34/3

vt 27.648 1.87959
f 4/35/3 14/20/3 17/33/3

f 3/18/3 14/20/3 4/35/3

f 18/34/3 14/20/3 15/25/3

v 0.05 0.213871 -0.0477417
vt -1.9685 8.42011
v 0.05 0.166129 -0.0477417
vt -1.9685 6.54052
vt -1.9685 13.081
f 19/36/6 20/37/6 3/27/6 2/2/6 7/32/6 12/38/6 

vt 1.87959 6.54052
vt 1.87959 8.42011
f 12/16/3 20/39/3 19/40/3

f 12/16/3 3/18/3 20/39/3

