# Alias OBJ Model File
# Exported from SketchUp, (c) 2000-2012 Trimble Navigation Limited
# File units = meters

mtllib modularBuildings_004.mtl

g Mesh1 Group1 Model

usemtl Dark_brick
v 1 0 -0
vt -39.3701 0
vn 0 -1 -0
v 0 0 -0
vt 0 0
v 0 0 -1
vt 0 39.3701
v 1 0 -1
vt -39.3701 39.3701
f 1/1/1 2/2/1 3/3/1 4/4/1 

vt 39.3701 -1.87665e-016
vn 5.0646e-017 0.0937035 0.9956
v 0.99 0.10625 -0.01
vt 38.9764 4.20156
v 0.01 0.10625 -0.01
vt 0.393701 4.20156
f 1/5/2 5/6/2 6/7/2 2/2/2 

vt 2.0148e-015 -3.68912
vn 0.9956 0.0937035 5.09507e-017
vt 39.3701 -3.68912
v 0.99 0.10625 -0.99
vt 38.9764 0.512441
vt 0.393701 0.512441
f 1/8/3 4/9/3 7/10/3 5/11/3 

vt -7.44617e-018 -3.68912
vn -1.88301e-019 0.0937035 -0.9956
v 0.01 0.10625 -0.99
vt -0.393701 0.512441
vt -38.9764 0.512441
vt -39.3701 -3.68912
f 3/12/4 8/13/4 7/14/4 4/15/4 

vt -0.393701 4.20156
vn -0.9956 0.0937035 -6.12833e-019
vt -38.9764 4.20156
vt -39.3701 -2.2708e-018
f 6/16/5 8/17/5 3/18/5 2/2/5 

v 0 0.2125 -0
vt -2.40741e-035 8.32933
vn -0.9956 -0.0937035 -1.74606e-019
v 0 0.2125 -1
vt -39.3701 8.32933
vt -38.9764 4.12777
vt -0.393701 4.12777
f 9/19/6 10/20/6 8/21/6 6/22/6 

vt -4.52971e-015 39.3701
vn 5.41434e-016 1 5.41434e-016
vt -4.52971e-015 4.52971e-015
v 1 0.2125 -0
vt 39.3701 4.52971e-015
v 1 0.2125 -1
vt 39.3701 39.3701
f 10/23/7 9/24/7 11/25/7 12/26/7 

vt 38.9764 4.12777
vn -1.02442e-016 -0.0937035 0.9956
vt 39.3701 8.32933
vt 1.2326e-032 8.32933
vt 0.393701 4.12777
f 5/27/8 11/28/8 9/29/8 6/30/8 

vt 0.393701 7.81689
vn 0.9956 -0.0937035 -1.02281e-016
vt 38.9764 7.81689
vt 39.3701 12.0184
vt -4.04462e-015 12.0184
f 5/31/9 7/32/9 12/33/9 11/34/9 

vt -0.393701 38.9764
vn -5.52483e-016 -1 -5.52483e-016
vt -38.9764 38.9764
vt -38.9764 0.393701
vt -0.393701 0.393701
f 8/35/10 7/36/10 5/37/10 6/38/10 

vt -0.393701 7.81689
vn -1.88301e-019 -0.0937035 -0.9956
vt -7.44617e-018 12.0184
vt -39.3701 12.0184
vt -38.9764 7.81689
f 8/39/11 10/40/11 12/41/11 7/42/11 

