# Alias OBJ Model File
# Exported from SketchUp, (c) 2000-2012 Trimble Navigation Limited
# File units = meters

mtllib modularBuildings_061.mtl

g Mesh1 Group1 Model

usemtl Brick
v 0 0.625 -0
vt 0 24.6063
vn 0 0 1
v 0 0 -0
vt 0 0
v 1 0 -0
vt 39.3701 0
v 1 0.625 -0
vt 39.3701 24.6063
f 1/1/1 2/2/1 3/3/1 4/4/1 

vn -1 0 -0
v 0 0.5 -0.5625
vt -22.1457 19.685
f 1/1/2 5/5/2 2/2/2

v 0 0.625 -1
vt -39.3701 24.6063
f 5/5/2 1/1/2 6/6/2

vt 3.33067e-015 39.3701
vn -1.35358e-016 1 -1.35358e-016
vt 3.33067e-015 -3.33067e-015
vt 39.3701 -3.33067e-015
v 1 0.625 -1
vt 39.3701 39.3701
f 6/7/3 1/8/3 4/9/3 7/10/3 

vn 1 0 -0
v 1 0 -1
f 4/1/4 3/2/4 8/3/4 7/4/4 

vn 0 -1 -0
v 0 0 -1
vt 0 39.3701
vt -39.3701 39.3701
vt -39.3701 0
f 2/2/5 9/11/5 8/12/5 3/13/5 

v 0 0.12 -0.5625
vt -22.1457 4.72441
f 2/2/2 10/14/2 9/13/2

f 10/14/2 2/2/2 5/5/2

vt 0 4.72441
vn 0 0 -1
vt 0 19.685
v 0.1 0.5 -0.5625
vt -3.93701 19.685
v 0.1 0.12 -0.5625
vt -3.93701 4.72441
f 10/15/6 5/16/6 11/17/6 12/18/6 

vt 0 22.1457
v 0 0.5 -0.875
vt 0 34.4488
v 0.1 0.5 -0.875
vt -3.93701 34.4488
vt -3.93701 22.1457
f 5/19/5 13/20/5 14/21/5 11/22/5 

vt -34.4488 19.685
f 5/5/2 6/6/2 13/23/2

v 0 0.12 -0.875
vt -34.4488 4.72441
f 13/23/2 6/6/2 15/24/2

f 9/13/2 15/24/2 6/6/2

f 9/13/2 10/14/2 15/24/2

vt 3.93701 22.1457
vn 0 1 -0
v 0.1 0.12 -0.875
vt 3.93701 34.4488
f 12/25/7 16/26/7 15/20/7 10/19/7 

usemtl Glass
f 11/5/2 14/23/2 16/24/2 12/14/2 

usemtl Brick
vt 3.93701 4.72441
vt 3.93701 19.685
f 16/27/1 14/28/1 13/16/1 15/15/1 

f 7/6/6 8/13/6 9/2/6 6/1/6 

