# Alias OBJ Model File
# Exported from SketchUp, (c) 2000-2012 Trimble Navigation Limited
# File units = meters

mtllib modularBuildings_039.mtl

g Mesh1 Group1 Model

usemtl Brick
v 0.360485 0.06 -0.139515
vt 13.9194 2.3622
vn 0.707107 0 0.707107
v 0.360485 0.1225 -0.139515
vt 13.9194 4.82283
v 0.32513 0.1225 -0.104159
vt 11.9509 4.82283
v 0.32513 0.06 -0.104159
vt 11.9509 2.3622
f 1/1/1 2/2/1 3/3/1 4/4/1 

vt 6.15157 2.3622
vn -0.707107 3.98312e-016 0.707107
v 0.360485 0.5025 -0.139515
vt 6.15157 19.7835
vt 6.15157 4.82283
f 1/5/2 5/6/2 2/7/2

v 0.5 4.51195e-017 -0
vt 13.9194 7.32064e-015
f 1/5/2 6/8/2 5/6/2

v 0 5.86553e-016 -0.5
vt -13.9194 2.86369e-014
f 6/8/2 1/5/2 7/9/2

v 0.139515 0.06 -0.360485
vt -6.15157 2.3622
f 7/9/2 1/5/2 8/10/2

vt -5.4927 14.1923
vn 3.84665e-016 -1 -4.86759e-016
vt -14.1923 5.4927
vt -12.8004 4.10076
v 0.104159 0.06 -0.32513
vt -4.10076 12.8004
f 8/11/3 1/12/3 4/13/3 9/14/3 

usemtl FrontColor
v 0.210225 0.06 -0.431196
vt -8.27658 16.9762
v 0.431196 0.06 -0.210225
vt -16.9762 8.27658
f 1/12/3 8/11/3 10/15/3 11/16/3 

v 0.139515 0.1225 -0.360485
vt -13.9194 4.82283
vn -0.707107 7.21911e-017 -0.707107
v 0.210225 0.1225 -0.431196
vt -17.8564 4.82283
vt -17.8564 2.3622
vt -13.9194 2.3622
f 12/17/4 13/18/4 10/19/4 8/20/4 

usemtl Brick
v 0.139515 0.5025 -0.360485
vt 13.9194 19.7835
vn 0.707107 6.71669e-016 0.707107
vt 17.8564 4.82283
v 0.210225 0.5025 -0.431196
vt 17.8564 19.7835
f 14/21/5 12/2/5 13/22/5 15/23/5 

vt -6.15157 19.7835
v 7.21911e-016 0.625 -0.5
vt -13.9194 24.6063
vt -6.15157 4.82283
f 14/24/2 16/25/2 12/26/2

f 5/6/2 16/25/2 14/24/2

v 0.5 0.625 -0
vt 13.9194 24.6063
f 5/6/2 17/27/2 16/25/2

f 17/27/2 5/6/2 6/8/2

vt 19.685 24.6063
vn 0 0 1
vt 19.685 1.77636e-015
v 1 0 -0
vt 39.3701 0
v 1 0.625 -0
vt 39.3701 24.6063
f 17/28/6 6/29/6 18/30/6 19/31/6 

vt -39.3701 1.41061e-031
vn -1.98526e-016 -1 -1.80478e-017
vt -19.685 1.0259e-031
vt 4.58448e-030 19.685
v 7.21911e-016 0 -1
vt -2.84217e-014 39.3701
v 1 0 -1
vt -39.3701 39.3701
f 18/32/7 6/33/7 7/34/7 20/35/7 21/36/7 

vt -39.3701 4.10359e-030
vn -1 2.88765e-016 -3.60956e-016
vt -19.685 2.30926e-014
vt -19.685 24.6063
v 7.21911e-016 0.625 -1
vt -39.3701 24.6063
f 20/37/8 7/38/8 16/39/8 22/40/8 

f 7/9/2 8/10/2 16/25/2

f 12/26/2 16/25/2 8/10/2

vn -0.707107 0 -0.707107
vt -11.9509 2.3622
v 0.104159 0.1225 -0.32513
vt -11.9509 4.82283
f 12/17/9 8/20/9 9/41/9 23/42/9 

vn -0.707107 -6.1619e-016 0.707107
f 3/7/10 23/26/10 9/10/10 4/5/10 

vt 14.1923 5.4927
vn -3.84665e-016 1 4.86759e-016
v 0.431196 0.1225 -0.210225
vt 16.9762 8.27658
vt 8.27658 16.9762
vt 5.4927 14.1923
vt 4.10076 12.8004
vt 12.8004 4.10076
f 2/43/11 24/44/11 13/45/11 12/46/11 23/47/11 3/48/11 

usemtl FrontColor
vn 0.707107 -7.21911e-017 0.707107
vt 17.8564 2.3622
f 24/22/12 2/2/12 1/1/12 11/49/12 

usemtl Brick
vt -13.9194 19.7835
v 0.431196 0.5025 -0.210225
vt -17.8564 19.7835
f 2/17/9 5/50/9 25/51/9 24/18/9 

vn 4.35712e-016 -1 -4.35712e-016
f 5/12/13 14/11/13 15/15/13 25/16/13 

usemtl Glass
f 25/6/10 15/24/10 13/26/10 24/7/10 

usemtl FrontColor
vn 0.707107 6.1619e-016 -0.707107
f 13/7/14 24/26/14 11/10/14 10/5/14 

usemtl Brick
vt 1.95399e-014 39.3701
vn 3.60956e-016 1 7.21911e-016
vt 1.95399e-014 19.685
vt 19.685 1.77636e-014
vt 39.3701 1.77636e-014
v 1 0.625 -1
vt 39.3701 39.3701
f 22/52/15 16/53/15 17/54/15 19/55/15 26/56/15 

vn 1 0 -0
vt 0 24.6063
vt 0 0
f 21/30/16 26/31/16 19/57/16 18/58/16 

vt -2.84217e-014 0
vn 0 0 -1
vt -2.84217e-014 24.6063
vt -39.3701 0
f 20/59/17 22/60/17 26/40/17 21/61/17 

