# Alias OBJ Model File
# Exported from SketchUp, (c) 2000-2012 Trimble Navigation Limited
# File units = meters

mtllib modularBuildings_099.mtl

g Mesh1 Group1 Model

usemtl Metal
v 0 0 -0.3125
vt -12.3031 0
vn -1 0 -0
v 0 1.60738e-016 -0.272653
vt -10.7344 6.32827e-015
v 0 0.307388 -0.272653
vt -10.7344 12.1019
v 0 0.340038 -0.268355
vt -10.5652 13.3873
v 0 0.36803 -0.256761
vt -10.1087 14.4894
v 0 0.392066 -0.238316
vt -9.38254 15.4357
v 0 0.410511 -0.21428
vt -8.43621 16.1618
v 0 0.422105 -0.186288
vt -7.33419 16.6183
v 0 0.42606 -0.15625
vt -6.15157 16.774
v 0 0.422105 -0.126212
vt -4.96896 16.6183
v 0 0.410511 -0.0982202
vt -3.86694 16.1618
v 0 0.392066 -0.0741835
vt -2.92061 15.4357
v 0 0.36803 -0.0557395
vt -2.19447 14.4894
v 0 0.340038 -0.0441451
vt -1.738 13.3873
v 0 0.307388 -0.0398466
vt -1.56876 12.1019
v 0 1.60738e-016 -0.0398466
vt -1.56876 6.32827e-015
v 0 0 -0
vt 0 0
v 0 0.31 -0
vt 0 12.2047
v 0 0.35044 -0.00532409
vt -0.20961 13.7969
v 0 0.388125 -0.0209335
vt -0.824155 15.2805
v 0 0.420485 -0.0457646
vt -1.80175 16.5545
v 0 0.445316 -0.078125
vt -3.07579 17.5321
v 0 0.460926 -0.11581
vt -4.55943 18.1467
v 0 0.46625 -0.15625
vt -6.15157 18.3563
v 0 0.460926 -0.19669
vt -7.74372 18.1467
v 0 0.445316 -0.234375
vt -9.22736 17.5321
v 0 0.420485 -0.266735
vt -10.5014 16.5545
v 0 0.388125 -0.291566
vt -11.479 15.2805
v 0 0.35044 -0.307176
vt -12.0935 13.7969
v 0 0.31 -0.3125
vt -12.3031 12.2047
f 1/1/1 2/2/1 3/3/1 4/4/1 5/5/1 6/6/1 7/7/1 8/8/1 9/9/1 10/10/1 11/11/1 12/12/1 13/13/1 14/14/1 15/15/1 16/16/1 17/17/1 18/18/1 19/19/1 20/20/1 21/21/1 22/22/1 23/23/1 24/24/1 25/25/1 26/26/1 27/27/1 28/28/1 29/29/1 30/30/1 

v 0.05 0 -0.3125
vt -1.9685 12.3031
vn -6.97825e-032 -1 4.03392e-015
v 0.05 1.60738e-016 -0.272653
vt -1.9685 10.7344
vt 4.41602e-046 10.7344
vt 0 12.3031
f 31/31/2 32/32/2 2/33/2 1/34/2 

v 0.05 0 -0
vt 9.53495e-024 7.48982e-016
vn 1 -3.80483e-016 4.84376e-024
v 0.05 1.60738e-016 -0.0398466
vt 1.56876 7.07725e-015
v 0.05 0.307388 -0.0398466
vt 1.56876 12.1019
v 0.05 0.340038 -0.0441451
vt 1.738 13.3873
v 0.05 0.36803 -0.0557395
vt 2.19447 14.4894
v 0.05 0.392066 -0.0741835
vt 2.92061 15.4357
v 0.05 0.410511 -0.0982202
vt 3.86694 16.1618
v 0.05 0.422105 -0.126212
vt 4.96896 16.6183
v 0.05 0.42606 -0.15625
vt 6.15157 16.774
v 0.05 0.422105 -0.186288
vt 7.33419 16.6183
v 0.05 0.410511 -0.21428
vt 8.43621 16.1618
v 0.05 0.392066 -0.238316
vt 9.38254 15.4357
v 0.05 0.36803 -0.256761
vt 10.1087 14.4894
v 0.05 0.340038 -0.268355
vt 10.5652 13.3873
v 0.05 0.307388 -0.272653
vt 10.7344 12.1019
vt 10.7344 7.07725e-015
vt 12.3031 7.48982e-016
v 0.05 0.31 -0.3125
vt 12.3031 12.2047
v 0.05 0.35044 -0.307176
vt 12.0935 13.7969
v 0.05 0.388125 -0.291566
vt 11.479 15.2805
v 0.05 0.420485 -0.266735
vt 10.5014 16.5545
v 0.05 0.445316 -0.234375
vt 9.22736 17.5321
v 0.05 0.460926 -0.19669
vt 7.74372 18.1467
v 0.05 0.46625 -0.15625
vt 6.15157 18.3563
v 0.05 0.460926 -0.11581
vt 4.55943 18.1467
v 0.05 0.445316 -0.078125
vt 3.07579 17.5321
v 0.05 0.420485 -0.0457646
vt 1.80175 16.5545
v 0.05 0.388125 -0.0209335
vt 0.824155 15.2805
v 0.05 0.35044 -0.00532409
vt 0.20961 13.7969
v 0.05 0.31 -0
vt 9.53495e-024 12.2047
f 33/35/3 34/36/3 35/37/3 36/38/3 37/39/3 38/40/3 39/41/3 40/42/3 41/43/3 42/44/3 43/45/3 44/46/3 45/47/3 46/48/3 47/49/3 32/50/3 31/51/3 48/52/3 49/53/3 50/54/3 51/55/3 52/56/3 53/57/3 54/58/3 55/59/3 56/60/3 57/61/3 58/62/3 59/63/3 60/64/3 

vn -6.97825e-032 -1 -4.03392e-015
vt 4.41602e-046 1.56876
vt -1.9685 1.56876
vt -1.9685 5.54128e-046
f 17/17/4 16/65/4 34/66/4 33/67/4 

vt 0 6.32827e-015
vn 0 0 -1
vt 0 12.1019
vt -1.9685 12.1019
vt -1.9685 6.32827e-015
f 16/68/5 15/69/5 35/70/5 34/71/5 

vt 4.60199e-032 12.2031
vn 2.90842e-032 -0.130526 -0.991445
vt 5.09843e-032 13.4997
vn 5.76707e-032 -0.258819 -0.965926
vt -1.9685 13.4997
vt -1.9685 12.2031
f 15/72/6 14/73/7 36/74/7 35/75/6 

vt 1.6041e-031 13.0334
vt 2.02541e-031 14.2262
vn 1.11411e-031 -0.5 -0.866025
vt -1.9685 14.2262
vt -1.9685 13.0334
f 14/76/7 13/77/8 37/78/8 36/79/7 

vt 3.75205e-031 12.8311
vt 4.99359e-031 14.0239
vn 1.57559e-031 -0.707107 -0.707107
vt -1.9685 14.0239
vt -1.9685 12.8311
f 13/80/8 12/81/9 38/82/9 37/83/8 

vt 8.4811e-031 11.7137
vt 1.12291e-030 12.9065
vn 1.9297e-031 -0.866025 -0.5
vt -1.9685 12.9065
vt -1.9685 11.7137
f 12/84/9 11/85/10 39/86/10 38/87/9 

vt 2.08018e-030 9.75745
vt 2.67301e-030 10.9503
vn 2.1523e-031 -0.965926 -0.258819
vt -1.9685 10.9503
vt -1.9685 9.75745
f 11/88/10 10/89/11 40/90/11 39/91/10 

vt 8.40999e-030 7.09557
vt 1.04116e-029 8.28839
vn 2.22822e-031 -1 7.45057e-009
vt -1.9685 8.28839
vt -1.9685 7.09557
f 10/92/11 9/93/12 41/94/12 40/95/11 

vt 1.04116e-029 -3.9095
vt 1.24131e-029 -5.10232
vn 2.1523e-031 -0.965926 0.258819
vt 1.9685 -5.10232
vt 1.9685 -3.9095
f 9/96/12 8/97/13 42/98/13 41/99/12 

vt 3.94536e-030 -0.416358
vt 4.53818e-030 -1.60918
vn 1.9297e-031 -0.866025 0.5
vt 1.9685 -1.60918
vt 1.9685 -0.416358
f 8/100/13 7/101/14 43/102/14 42/103/13 

vt 2.44977e-030 3.1458
vt 2.72458e-030 1.95298
vn 1.57559e-031 -0.707107 0.707107
vt 1.9685 1.95298
vt 1.9685 3.1458
f 7/104/14 6/105/15 44/106/15 43/107/14 

vt 1.6042e-030 6.53423
vt 1.72836e-030 5.34141
vn 1.11411e-031 -0.5 0.866025
vt 1.9685 5.34141
vt 1.9685 6.53423
f 6/108/15 5/109/16 45/110/16 44/111/15 

vt 9.32992e-031 9.518
vt 9.75122e-031 8.32518
vn 5.76707e-032 -0.258819 0.965926
vt 1.9685 8.32518
vt 1.9685 9.518
f 5/112/16 4/113/17 46/114/17 45/115/16 

vt 3.0993e-031 11.8938
vt 3.14895e-031 10.5973
vn 2.90842e-032 -0.130526 0.991445
vt 1.9685 10.5973
vt 1.9685 11.8938
f 4/116/17 3/117/18 47/118/18 46/119/17 

vn 0 0 1
vt 1.9685 6.32827e-015
vt 1.9685 12.1019
f 3/69/19 2/68/19 32/120/19 47/121/19 

vt 1.9685 0
vt 1.9685 12.2047
f 33/122/19 60/123/19 18/18/19 17/17/19 

vt 1.9685 12.1003
vn 0 0.130526 0.991445
vt 1.9685 13.7062
vn 0 0.258819 0.965926
vt 0 13.7062
vt 0 12.1003
f 60/124/20 59/125/21 19/126/21 18/127/20 

vt 1.9685 12.8269
vt 1.9685 14.4327
vn 0 0.5 0.866025
vt 0 14.4327
vt 0 12.8269
f 59/128/21 58/129/22 20/130/22 19/131/21 

vt 1.9685 12.6246
vt 1.9685 14.2304
vn 0 0.707107 0.707107
vt 0 14.2304
vt 0 12.6246
f 58/132/22 57/133/23 21/134/23 20/135/22 

vt 1.9685 11.5072
vt 1.9685 13.1131
vn 0 0.866025 0.5
vt 0 13.1131
vt 0 11.5072
f 57/136/23 56/137/24 22/138/24 21/139/23 

vt 1.9685 9.55092
vt 1.9685 11.1568
vn 0 0.965926 0.258819
vt 0 11.1568
vt 0 9.55092
f 56/140/24 55/141/25 23/142/25 22/143/24 

vt 1.9685 6.88904
vt 1.9685 8.49492
vn 0 1 -7.45058e-009
vt 0 8.49492
vt 0 6.88904
f 55/144/25 54/145/26 24/146/26 23/147/25 

vt -1.9685 -3.70297
vt -1.9685 -5.30885
vn 0 0.965926 -0.258819
vt 0 -5.30885
vt 0 -3.70297
f 54/148/26 53/149/27 25/150/27 24/151/26 

vt -1.9685 -0.209827
vt -1.9685 -1.81571
vn 0 0.866025 -0.5
vt 0 -1.81571
vt 0 -0.209827
f 53/152/27 52/153/28 26/154/28 25/155/27 

vt -1.9685 3.35233
vt -1.9685 1.74645
vn 0 0.707107 -0.707107
vt 0 1.74645
vt 0 3.35233
f 52/156/28 51/157/29 27/158/29 26/159/28 

vt -1.9685 6.74076
vt -1.9685 5.13488
vn 0 0.5 -0.866025
vt 0 5.13488
vt 0 6.74076
f 51/160/29 50/161/30 28/162/30 27/163/29 

vt -1.9685 9.72453
vt -1.9685 8.11865
vn 0 0.258819 -0.965926
vt 0 8.11865
vt 0 9.72453
f 50/164/30 49/165/31 29/166/31 28/167/30 

vt -1.9685 12.1003
vt -1.9685 10.4944
vn 0 0.130526 -0.991445
vt 0 10.4944
f 49/168/31 48/169/32 30/170/32 29/127/31 

vt -1.9685 12.2047
vt -1.9685 0
f 48/171/5 31/172/5 1/17/5 30/18/5 

