# Alias OBJ Model File
# Exported from SketchUp, (c) 2000-2012 Trimble Navigation Limited
# File units = meters

mtllib modularBuildings_075.mtl

g Mesh1 Group1 Model

usemtl Wood
v 0 0.445764 -0.0542359
vt 0 2.13527
vn 0 -1 -0
v 0 0.445764 -0.195764
vt 0 7.70725
v 0.025 0.445764 -0.195764
vt -0.984252 7.70725
v 0.025 0.445764 -0.0542359
vt -0.984252 2.13527
f 1/1/1 2/2/1 3/3/1 4/4/1 

vt -2.13527 17.5498
vn -1 0 -0
v 0 0.5 -0.25
vt -9.84252 19.685
vt -7.70725 17.5498
f 1/5/2 5/6/2 2/7/2

v 0 0.5 -0
vt 0 19.685
f 1/5/2 6/8/2 5/6/2

v 0 0 -0
vt 0 0
f 6/8/2 1/5/2 7/9/2

v 0 0.25 -0.0542359
vt -2.13527 9.84252
f 8/10/2 7/9/2 1/5/2

v 0 0 -0.25
vt -9.84252 0
f 7/9/2 8/10/2 9/11/2

v 0 0.25 -0.195764
vt -7.70725 9.84252
f 9/11/2 8/10/2 10/12/2

vn 0 1 1.59401e-016
v 0.025 0.25 -0.0542359
vt 0.984252 2.13527
v 0.025 0.25 -0.195764
vt 0.984252 7.70725
f 10/2/3 8/1/3 11/13/3 12/14/3 

vt 0 9.84252
vn 0 0 -1
vt 0 17.5498
vt -0.984252 17.5498
vt -0.984252 9.84252
f 8/15/4 1/16/4 4/17/4 11/18/4 

usemtl Glass
f 4/5/2 3/7/2 12/12/2 11/10/2 

usemtl Wood
vn 0 0 1
vt 0.984252 9.84252
vt 0.984252 17.5498
f 2/16/5 10/15/5 12/19/5 3/20/5 

f 2/7/2 5/6/2 10/12/2

f 9/11/2 10/12/2 5/6/2

v 0.05 0 -0.25
vt -1.9685 0
v 0.05 0.5 -0.25
vt -1.9685 19.685
f 13/21/4 9/9/4 5/8/4 14/22/4 

vt -1.9685 9.84252
v 0.05 0 -0
f 9/15/1 13/23/1 15/21/1 7/9/1 

vn 1 0 -0
vt 9.84252 0
vt 9.84252 19.685
v 0.05 0.5 -0
f 15/9/6 13/24/6 14/25/6 16/8/6 

vt 1.9685 9.84252
vn 0 1 -0
vt 1.9685 0
f 14/26/7 5/15/7 6/9/7 16/27/7 

vt 1.9685 19.685
f 7/9/5 15/27/5 16/28/5 6/8/5 

