# Alias OBJ Model File
# Exported from SketchUp, (c) 2000-2012 Trimble Navigation Limited
# File units = meters

mtllib modularBuildings_068.mtl

g Mesh1 Group1 Model

usemtl Brick
v 0 0 -1
vt 0 0
vn 0 0 -1
v 0 0.625 -1
vt 0 24.6063
v 1 0.625 -1
vt -39.3701 24.6063
v 1 0 -1
vt -39.3701 0
f 1/1/1 2/2/1 3/3/1 4/4/1 

vn -1 0 -0
v 0 0.12 -0.4375
vt -17.2244 4.72441
f 1/4/2 5/5/2 2/3/2

v 0 0.12 -0.125
vt -4.92126 4.72441
f 1/4/2 6/6/2 5/5/2

v 0 0 -0
f 7/1/2 6/6/2 1/4/2

v 0 0.5 -0.125
vt -4.92126 19.685
f 6/6/2 7/1/2 8/7/2

v 0 0.625 -0
f 9/2/2 8/7/2 7/1/2

f 8/7/2 9/2/2 2/3/2

vt 3.33067e-015 39.3701
vn -1.35358e-016 1 1.35358e-016
vt 3.33067e-015 3.33067e-015
v 1 0.625 -0
vt 39.3701 3.33067e-015
vt 39.3701 39.3701
f 2/8/3 9/9/3 10/10/3 3/11/3 

v 1 0 -0
vt 39.3701 0
vn 0 0 1
vt 39.3701 24.6063
f 11/12/4 10/13/4 9/2/4 7/1/4 

vn 1 0 -0
f 4/12/5 3/13/5 10/2/5 11/1/5 

vn 0 -1 -0
vt 0 39.3701
vt -39.3701 39.3701
f 7/1/6 1/14/6 4/15/6 11/4/6 

v 0 0.5 -0.4375
vt -17.2244 19.685
f 8/7/2 2/3/2 12/16/2

f 12/16/2 2/3/2 5/5/2

vt 0 19.685
vt 0 4.72441
v 0.1 0.12 -0.4375
vt 3.93701 4.72441
v 0.1 0.5 -0.4375
vt 3.93701 19.685
f 12/17/4 5/18/4 13/19/4 14/20/4 

v 0.1 0.12 -0.125
vt 3.93701 4.92126
vn 0 1 -0
vt 3.93701 17.2244
vt 0 17.2244
vt 0 4.92126
f 15/21/7 13/22/7 5/23/7 6/24/7 

usemtl Glass
v 0.1 0.5 -0.125
f 16/7/2 14/16/2 13/5/2 15/6/2 

usemtl Brick
vt -3.93701 17.2244
vt -3.93701 4.92126
f 8/24/6 12/23/6 14/25/6 16/26/6 

vt -3.93701 19.685
vt -3.93701 4.72441
f 16/27/1 15/28/1 6/18/1 8/17/1 

