# Alias OBJ Model File
# Exported from SketchUp, (c) 2000-2012 Trimble Navigation Limited
# File units = meters

mtllib modularBuildings_044.mtl

g Mesh1 Group1 Model

usemtl Brick
v 1 0 -0
vt 39.3701 0
vn 0 0 1
v 1 0.46875 -0
vt 39.3701 18.4547
v 0 0 -0
vt 0 0
f 1/1/1 2/2/1 3/3/1

v 1 0 -1
vt 39.3701 6.36425e-030
vn 1 -1.61652e-031 -1.44382e-015
v 1 0.46875 -1
v 1 0.51875 -1
vt 39.3701 20.4232
v 1 0.51875 -0
vt -5.68434e-014 20.4232
vt -5.68434e-014 18.4547
vt -5.68434e-014 6.36425e-030
f 4/4/2 5/2/2 6/5/2 7/6/2 2/7/2 1/8/2 

vt -39.3701 0
vn 0 0 -1
v -2.88765e-015 0 -1
vt 1.13687e-013 0
vt -39.3701 18.4547
f 4/9/3 8/10/3 5/11/3

vn 0 -1 -0
vt 1.13687e-013 39.3701
vt -39.3701 39.3701
f 1/9/4 3/3/4 8/12/4 4/13/4 

usemtl Roof
v -1.44382e-015 0.0734375 -0
vt -4.23516e-022 2.89124
vn -1 -1.01455e-007 7.45058e-009
v -1.49012e-008 0.0734375 -1
vt -39.3701 2.89124
vt -39.3701 -2.97597e-014
f 9/14/5 10/15/5 8/16/5 3/3/5 

usemtl Brick
v -1.52197e-008 0.0734375 -1.02137
vt -40.2116 2.89124
vn -1 1.79911e-015 1.49012e-008
vt -8.47032e-022 2.89124
v 3.18503e-010 0.0734375 0.0213744
vt 0.841513 2.89124
v -7.45058e-009 0.51875 -0.5
vt -19.685 20.4232
f 11/17/6 10/15/6 9/18/6 12/19/6 13/20/6 

usemtl Roof
vt 40.2116 1.22714
vn 0.424434 -0.905459 3.44159e-014
v 0.0389466 0.0916937 -1
vt 39.3701 2.92057
vt 39.3701 1.22714
f 11/21/7 14/22/7 10/23/7

vt -1.53333 -27.5922
vn 1.01871e-008 0.760394 -0.649462
vt 1.22993e-006 -28.6989
vt 6.02098e-007 -1.70427
v 0.95 0.51875 -0.5
vt -37.4016 -1.70427
f 14/24/8 11/25/8 13/26/8 15/27/8 

v 0.0389465 0.0916937 -0
vt 1.53333 2.34455
vn -1.01871e-008 0.760394 0.649462
vt 37.4016 28.2325
vt -6.02098e-007 28.2325
vt 2.5739e-008 1.23787
f 16/28/9 15/29/9 13/30/9 12/31/9 

v 0.95 0.51875 -0
vt 1.04807e-013 42.5339
vn -0.424434 0.905459 1.18935e-015
vt -19.685 42.5339
vt 4.29668e-015 2.92057
f 17/32/10 15/33/10 16/34/10

v 0.95 0.51875 -1
vt 37.4016 39.3701
vn 0 1 -0
vt 37.4016 19.685
vt 37.4016 0
vt 39.3701 39.3701
f 18/35/11 15/36/11 17/37/11 7/1/11 6/38/11 

vt -39.3701 42.5339
vn -0.424434 0.905459 -0
vt -39.3701 2.92057
f 18/39/12 14/40/12 15/33/12

vn 1.20542e-014 -2.1946e-014 -1
vt 5.88263e-013 8.64014e-013
vt 5.8666e-007 2.89124
vt -1.53333 3.60999
vt -37.4016 20.4232
vt -39.3701 20.4232
f 5/11/13 8/41/13 10/42/13 14/43/13 18/44/13 6/45/13 

usemtl FrontColor
vt -2.48474e-029 1.22714
vn -0.424434 0.905459 1.86265e-016
vt 6.72908e-016 2.92057
vt -39.3701 1.22714
f 9/46/14 16/47/14 15/33/14 14/40/14 10/48/14 

usemtl Roof
vt 37.4016 20.4232
vt 1.53333 3.60999
vt -5.68434e-014 2.89124
f 17/49/1 16/50/1 9/51/1 3/3/1 2/2/1 7/5/1 

vt -0.841513 1.22714
vn 0.424434 -0.905459 -2.67178e-014
vt 3.57825e-027 1.22714
vt -9.65219e-014 2.92057
f 12/52/15 9/53/15 16/54/15

