# Alias OBJ Model File
# Exported from SketchUp, (c) 2000-2012 Trimble Navigation Limited
# File units = meters

mtllib modularBuildings_054.mtl

g Mesh1 Group1 Model

usemtl Brick
v 0 0.5 -0.09375
vt 0 3.69094
vn 0 -1 -0
v 0 0.5 -0.28125
vt 0 11.0728
v 0.1 0.5 -0.28125
vt -3.93701 11.0728
v 0.1 0.5 -0.09375
vt -3.93701 3.69094
f 1/1/1 2/2/1 3/3/1 4/4/1 

vt -3.69094 19.685
vn -1 0 -0
v 0 0.625 -1
vt -39.3701 24.6063
vt -11.0728 19.685
f 1/5/2 5/6/2 2/7/2

v 0 0.625 -0
vt 0 24.6063
f 1/5/2 6/8/2 5/6/2

v 0 0 -0
vt 0 0
f 6/8/2 1/5/2 7/9/2

v 0 0.078125 -0.09375
vt -3.69094 3.07579
f 8/10/2 7/9/2 1/5/2

v 0 0 -0.375
vt -14.7638 0
f 7/9/2 8/10/2 9/11/2

v 0 0.078125 -0.28125
vt -11.0728 3.07579
f 9/11/2 8/10/2 10/12/2

vn 0 1 -2.40637e-016
v 0.1 0.078125 -0.09375
vt 3.93701 3.69094
v 0.1 0.078125 -0.28125
vt 3.93701 11.0728
f 10/2/3 8/1/3 11/13/3 12/14/3 

vt 0 3.07579
vn 0 0 -1
vt 0 19.685
vt -3.93701 19.685
vt -3.93701 3.07579
f 8/15/4 1/16/4 4/17/4 11/18/4 

usemtl Glass
f 3/7/2 12/12/2 11/10/2 4/5/2 

usemtl Brick
vn 0 0 1
vt 3.93701 3.07579
vt 3.93701 19.685
f 2/16/5 10/15/5 12/19/5 3/20/5 

v 0 0.5 -0.375
vt -14.7638 19.685
f 2/7/2 13/21/2 10/12/2

f 2/7/2 5/6/2 13/21/2

v 0 0.5 -0.625
vt -24.6063 19.685
f 13/21/2 5/6/2 14/22/2

v 0 0.5 -0.71875
vt -28.2972 19.685
f 14/22/2 5/6/2 15/23/2

v 0 0.5 -0.90625
vt -35.6791 19.685
f 15/23/2 5/6/2 16/24/2

v 0 0.078125 -0.90625
vt -35.6791 3.07579
f 16/24/2 5/6/2 17/25/2

v 0 0 -1
vt -39.3701 0
f 18/26/2 17/25/2 5/6/2

v 0 0.078125 -0.71875
vt -28.2972 3.07579
f 18/26/2 19/27/2 17/25/2

v 0 0 -0.625
vt -24.6063 0
f 20/28/2 19/27/2 18/26/2

f 19/27/2 20/28/2 15/23/2

f 14/22/2 15/23/2 20/28/2

v 0.1 0 -0.625
vt 3.93701 0
v 0.1 0.5 -0.625
f 14/16/5 20/9/5 21/29/5 22/20/5 

v 1 0 -0
vt 0 14.7638
v 0.1 0 -0.375
vt -3.93701 14.7638
vt -3.93701 24.6063
vt 0 39.3701
v 1 0 -1
vt -39.3701 39.3701
f 23/26/1 7/9/1 9/30/1 24/31/1 21/32/1 20/8/1 18/33/1 25/34/1 

vt 39.3701 0
v 1 0.625 -0
vt 39.3701 24.6063
f 23/35/5 26/36/5 6/8/5 7/9/5 

vn 1 0 -0
v 1 0.625 -1
f 25/35/6 27/36/6 26/8/6 23/9/6 

f 18/9/4 5/8/4 27/6/4 25/26/4 

vt 39.3701 39.3701
vn 4.06075e-016 1 4.06075e-016
vt -9.99201e-015 39.3701
vt -9.99201e-015 9.99201e-015
vt 39.3701 9.99201e-015
f 27/37/7 5/38/7 6/39/7 26/40/7 

v 0.1 0.5 -0.375
vt -3.93701 0
f 9/9/4 13/16/4 28/17/4 24/41/4 

f 9/11/2 10/12/2 13/21/2

f 13/30/1 14/8/1 22/32/1 28/31/1 

usemtl Glass
f 28/21/2 22/22/2 21/28/2 24/11/2 

usemtl Brick
v 0.1 0.5 -0.71875
v 0.1 0.078125 -0.71875
f 19/15/4 15/16/4 29/17/4 30/18/4 

vt 0 28.2972
vt 0 35.6791
v 0.1 0.5 -0.90625
vt -3.93701 35.6791
vt -3.93701 28.2972
f 15/42/1 16/43/1 31/44/1 29/45/1 

v 0.1 0.078125 -0.90625
f 16/16/5 17/15/5 32/19/5 31/20/5 

vn 0 1 -0
vt 3.93701 28.2972
vt 3.93701 35.6791
f 17/43/8 19/42/8 30/46/8 32/47/8 

usemtl Glass
f 29/23/2 31/24/2 32/25/2 30/27/2 

