# Alias OBJ Model File
# Exported from SketchUp, (c) 2000-2012 Trimble Navigation Limited
# File units = meters

mtllib modularBuildings_058.mtl

g Mesh1 Group1 Model

usemtl Glass
v 0.1 0.5 -1
vt -39.3701 19.685
vn -1 0 -0
v 0.1 0 -1
vt -39.3701 0
v 0.1 0 -0.125
vt -4.92126 0
v 0.1 0.5 -0.125
vt -4.92126 19.685
f 1/1/1 2/2/1 3/3/1 4/4/1 

usemtl Brick
v 1 0 -1
vn 0 0 -1
vt -3.93701 0
vt -3.93701 19.685
v 0 0.5 -1
vt 0 19.685
v 0 0.625 -1
vt 0 24.6063
v 1 0.625 -1
vt -39.3701 24.6063
f 5/2/2 2/5/2 1/6/2 6/7/2 7/8/2 8/9/2 

vt -3.93701 4.92126
vn 0 -1 -0
vt -3.93701 39.3701
vt -39.3701 39.3701
v 1 0 -0
v 0 0 -0
vt 0 0
v 0 0 -0.125
vt 0 4.92126
f 3/10/3 2/11/3 5/12/3 9/2/3 10/13/3 11/14/3 

vt 39.3701 0
vn 1 0 -0
vt 39.3701 24.6063
v 1 0.625 -0
f 5/15/4 8/16/4 12/8/4 9/13/4 

vt 0 39.3701
vn 0 1 -0
v 0 0.625 -0
vt 39.3701 39.3701
f 7/17/5 13/13/5 12/15/5 8/18/5 

v 0 0.5 -0.125
f 7/9/1 6/1/1 14/4/1 11/3/1 10/13/1 13/8/1 

vn 0 -1 -2.0626e-016
f 6/17/6 1/11/6 4/10/6 14/14/6 

f 11/13/2 14/7/2 4/6/2 3/5/2 

vn 0 0 1
f 9/15/7 12/16/7 13/8/7 10/13/7 

