# Alias OBJ Model File
# Exported from SketchUp, (c) 2000-2012 Trimble Navigation Limited
# File units = meters

mtllib modularBuildings_013.mtl

g Mesh1 Group1 Model

usemtl Brick
v 1 0 -0
vt 39.3701 0
vn 0 0 1
v 1 0.2125 -0
vt 39.3701 8.36614
v 0 0.2125 -0
vt 0 8.36614
v 0 0 -0
vt 0 0
f 1/1/1 2/2/1 3/3/1 4/4/1 

vt -1.07786e-031 1.04492e-015
vn 1 -2.65409e-017 -2.73775e-033
v 1 0 -1
vt 39.3701 1.04492e-015
v 1 0.2125 -1
v 1 0.2125 -0.875
vt 34.4488 8.36614
v 1 0.10625 -0.875
vt 34.4488 4.18307
v 1 0.10625 -0.125
vt 4.92126 4.18307
v 1 0.2125 -0.125
vt 4.92126 8.36614
vt -1.07786e-031 8.36614
f 1/5/2 5/6/2 6/2/2 7/7/2 8/8/2 9/9/2 10/10/2 2/11/2 

vt -39.3701 0
vn 0 -1 -0
v 0 0 -1
vt 0 39.3701
vt -39.3701 39.3701
f 1/12/3 4/4/3 11/13/3 5/14/3 

vn -1 0 -0
v 0 0.2125 -0.125
vt -4.92126 8.36614
v 0 0.10625 -0.125
vt -4.92126 4.18307
v 0 0.10625 -0.875
vt -34.4488 4.18307
v 0 0.2125 -0.875
vt -34.4488 8.36614
v 0 0.2125 -1
vt -39.3701 8.36614
f 4/4/4 3/3/4 12/15/4 13/16/4 14/17/4 15/18/4 16/19/4 11/12/4 

vt 39.3701 4.92126
vn 0 1 -0
vt 0 4.92126
f 10/20/5 12/21/5 3/4/5 2/1/5 

vn 0 0 -1
vt -39.3701 4.18307
vt 0 4.18307
f 12/3/6 10/19/6 9/22/6 13/23/6 

vt 39.3701 34.4488
vt 0 34.4488
f 9/20/5 8/24/5 14/25/5 13/21/5 

vt 39.3701 4.18307
f 7/2/1 15/3/1 14/23/1 8/26/1 

vt 39.3701 39.3701
f 16/13/5 15/25/5 7/24/5 6/27/5 

f 11/4/6 16/3/6 6/19/6 5/12/6 

