# Alias OBJ Model File
# Exported from SketchUp, (c) 2000-2012 Trimble Navigation Limited
# File units = meters

mtllib modularBuildings_078.mtl

g Mesh1 Group1 Model

usemtl Metal
v 0.05 0 -0.25
vt -1.9685 0
vn 0 0 -1
v 0 0 -0.25
vt 0 0
v 0 0.5 -0.25
vt 0 19.685
v 0.05 0.5 -0.25
vt -1.9685 19.685
f 1/1/1 2/2/1 3/3/1 4/4/1 

vt 0 9.84252
vn 0 -1 -0
vt -1.9685 9.84252
v 0.05 0 -0
v 0 0 -0
f 2/5/2 1/6/2 5/1/2 6/2/2 

vn 1 0 -0
vt 9.84252 0
vt 9.84252 19.685
v 0.05 0.5 -0
f 5/2/3 1/7/3 4/8/3 7/3/3 

vt 1.9685 9.84252
vn 0 1 -0
v 0 0.5 -0
vt 1.9685 0
f 4/9/4 3/5/4 8/2/4 7/10/4 

v 0 0.445764 -0.0542359
vt -2.13527 17.5498
vn -1 0 -0
vt -9.84252 19.685
f 9/11/5 8/3/5 3/12/5

f 8/3/5 9/11/5 6/2/5

v 0 0.0542359 -0.0542359
vt -2.13527 2.13527
f 10/13/5 6/2/5 9/11/5

vt -9.84252 0
f 6/2/5 10/13/5 2/14/5

v 0 0.0542359 -0.195764
vt -7.70725 2.13527
f 2/14/5 10/13/5 11/15/5

vt 0 7.70725
vn 0 1 1.59401e-016
vt 0 2.13527
v 0.025 0.0542359 -0.0542359
vt 0.984252 2.13527
v 0.025 0.0542359 -0.195764
vt 0.984252 7.70725
f 11/16/6 10/17/6 12/18/6 13/19/6 

vt 0 17.5498
v 0.025 0.445764 -0.0542359
vt -0.984252 17.5498
vt -0.984252 2.13527
f 10/17/1 9/20/1 14/21/1 12/22/1 

v 0 0.445764 -0.195764
v 0.025 0.445764 -0.195764
vt -0.984252 7.70725
f 9/17/2 15/16/2 16/23/2 14/22/2 

vt -7.70725 17.5498
f 9/11/5 3/12/5 15/24/5

f 15/24/5 3/12/5 11/15/5

f 2/14/5 11/15/5 3/12/5

vn 0 0 1
vt 0.984252 17.5498
f 15/20/7 11/17/7 13/18/7 16/25/7 

f 14/11/5 16/24/5 13/15/5 12/13/5 

vt 1.9685 19.685
f 6/2/7 5/10/7 7/26/7 8/3/7 

