# Alias OBJ Model File
# Exported from SketchUp, (c) 2000-2012 Trimble Navigation Limited
# File units = meters

mtllib modularBuildings_071.mtl

g Mesh1 Group1 Model

usemtl Brick
v 0 0 -1
vt 0 0
vn 0 0 -1
v 0 0.625 -1
vt 0 24.6063
v 1 0.625 -1
vt -39.3701 24.6063
v 1 0 -1
vt -39.3701 0
f 1/1/1 2/2/1 3/3/1 4/4/1 

v 0 0.5 -0.875
vt -34.4488 19.685
vn -1 0 -0
v 0 0.5 -2.88765e-015
vt -1.13687e-013 19.685
v 0 0.625 -0
v 0 0 -0.875
vt -34.4488 0
f 5/5/2 6/6/2 7/2/2 2/3/2 1/4/2 8/7/2 

vt -8.46408e-043 34.4488
vn 4.29975e-044 -1 -2.0626e-016
v 0.1 0.5 -0.875
vt -3.93701 34.4488
v 0.1 0.5 -2.88765e-015
vt -3.93701 1.17747e-013
vt -8.46408e-043 1.17747e-013
f 5/8/3 9/9/3 10/10/3 6/11/3 

vt 0 19.685
vn 0 0 1
v 0.1 0 -0.875
vt 3.93701 0
vt 3.93701 19.685
f 5/12/4 8/1/4 11/13/4 9/14/4 

v 1 0 -0
vn 0 -1 -0
v 0.1 0 -2.88765e-015
vt -3.93701 1.13687e-013
vt 0 34.4488
vt 0 39.3701
vt -39.3701 39.3701
f 12/4/5 13/15/5 11/9/5 8/16/5 1/17/5 4/18/5 

vt 39.3701 -2.29075e-029
vn -1.35468e-015 -4.29511e-016 1
v 1 0.625 -0
vt 39.3701 24.6063
vt -1.54009e-028 19.685
vt 3.93701 -5.11205e-029
f 12/19/6 14/20/6 7/2/6 6/21/6 10/14/6 13/22/6 

vt 39.3701 0
vn 1 0 -0
f 4/23/7 3/20/7 14/2/7 12/1/7 

vn 0 1 -0
vt 39.3701 39.3701
f 2/17/8 7/1/8 14/23/8 3/24/8 

usemtl Glass
vt -1.13687e-013 0
f 9/5/2 11/7/2 13/25/2 10/6/2 

