# Alias OBJ Model File
# Exported from SketchUp, (c) 2000-2012 Trimble Navigation Limited
# File units = meters

mtllib modularBuildings_017.mtl

g Mesh1 Group1 Model

usemtl Brick
v 1 0 -0
vt -39.3701 1.57025e-033
vn -1.54695e-017 -1 -2.57826e-018
v 0.5 0 -0
vt -19.685 7.85126e-034
v 0 4.51195e-017 -0.5
vt 2.74794e-032 19.685
v 0 0 -1
vt 0 39.3701
v 1 0 -1
vt -39.3701 39.3701
f 1/1/1 2/2/1 3/3/1 4/4/1 5/5/1 

v 0.5 0.10625 -0
vt 19.685 4.18307
vn 0 0 1
vt 19.685 0
vt 39.3701 0
v 1 0.10625 -0
vt 39.3701 4.18307
f 6/6/2 2/7/2 1/8/2 7/9/2 

vt 13.9194 4.18307
vn -0.707107 1.43567e-016 0.707107
v 0 0.10625 -0.5
vt -13.9194 4.18307
vt -13.9194 3.77473e-015
vt 13.9194 1.99837e-015
f 6/10/3 8/11/3 3/12/3 2/13/3 

v 0 0.10625 -1
vt 1.44023e-031 39.3701
vn -3.44299e-032 1 9.02389e-017
vt 1.44023e-031 19.685
vt 19.685 3.77476e-016
vt 39.3701 3.77476e-016
v 1 0.10625 -1
vt 39.3701 39.3701
f 9/14/4 8/15/4 6/16/4 7/17/4 10/18/4 

vt -39.3701 0
vn -1 0 -0
vt -19.685 1.77636e-015
vt -19.685 4.18307
vt -39.3701 4.18307
f 4/19/5 3/20/5 8/21/5 9/22/5 

vt 0 0
vn 0 0 -1
vt 0 4.18307
f 4/23/6 9/24/6 10/22/6 5/19/6 

vn 1 0 -0
f 1/23/7 5/8/7 10/9/7 7/24/7 

