# Alias OBJ Model File
# Exported from SketchUp, (c) 2000-2012 Trimble Navigation Limited
# File units = meters

mtllib modularBuildings_053.mtl

g Mesh1 Group1 Model

usemtl Brick
v 1 0 -1
vt 39.3701 0
vn 1 0 -0
v 1 0.625 -1
vt 39.3701 24.6063
v 1 0.625 -0
vt 0 24.6063
v 1 0 -0
vt 0 0
f 1/1/1 2/2/1 3/3/1 4/4/1 

v 0 0 -1
vn 0 0 -1
v 0 0.625 -1
vt -39.3701 24.6063
vt -39.3701 0
f 5/4/2 6/3/2 2/5/2 1/6/2 

vn -1 0 -0
v 0 0.078125 -0.90625
vt -35.6791 3.07579
f 5/6/3 7/7/3 6/5/3

v 0 0.078125 -0.71875
vt -28.2972 3.07579
f 5/6/3 8/8/3 7/7/3

v 0 0 -0.625
vt -24.6063 0
f 9/9/3 8/8/3 5/6/3

v 0 0.40625 -0.71875
vt -28.2972 15.9941
f 8/8/3 9/9/3 10/10/3

v 0 0.430514 -0.721944
vt -28.423 16.9494
f 9/9/3 11/11/3 10/10/3

v 0 0.5 -0.625
vt -24.6063 19.685
f 12/12/3 11/11/3 9/9/3

v 0 0.453125 -0.73131
vt -28.7917 17.8396
f 12/12/3 13/13/3 11/11/3

v 0 0.472541 -0.746209
vt -29.3783 18.604
f 12/12/3 14/14/3 13/13/3

v 0 0.48744 -0.765625
vt -30.1427 19.1905
f 12/12/3 15/15/3 14/14/3

f 12/12/3 6/5/3 15/15/3

v 0 0.5 -0.375
vt -14.7638 19.685
f 16/16/3 6/5/3 12/12/3

v 0 0.48744 -0.234375
vt -9.22736 19.1905
f 17/17/3 6/5/3 16/16/3

v 0 0.496806 -0.211764
vt -8.33718 19.5593
f 18/18/3 6/5/3 17/17/3

v 0 0.5 -0.1875
vt -7.38189 19.685
f 19/19/3 6/5/3 18/18/3

v 0 0.496806 -0.163236
vt -6.4266 19.5593
f 20/20/3 6/5/3 19/19/3

v 0 0.625 -0
f 20/20/3 21/3/3 6/5/3

v 0 0.48744 -0.140625
vt -5.53642 19.1905
f 22/21/3 21/3/3 20/20/3

v 0 0.472541 -0.121209
vt -4.772 18.604
f 23/22/3 21/3/3 22/21/3

v 0 0.453125 -0.10631
vt -4.18544 17.8396
f 24/23/3 21/3/3 23/22/3

v 0 0.430514 -0.0969445
vt -3.81671 16.9494
f 25/24/3 21/3/3 24/23/3

v 0 0 -0
f 21/3/3 25/24/3 26/4/3

v 0 0.40625 -0.09375
vt -3.69094 15.9941
f 26/4/3 25/24/3 27/25/3

vt 0 16.339
vn 0 -0.130526 -0.991445
vt 0 17.3026
vn 0 -0.258819 -0.965926
v 0.1 0.430514 -0.0969445
vt -3.93701 17.3026
v 0.1 0.40625 -0.09375
vt -3.93701 16.339
f 27/26/4 25/27/5 28/28/5 29/29/4 

vt 0 17.1198
vt 0 18.0833
vn 0 -0.5 -0.866025
v 0.1 0.453125 -0.10631
vt -3.93701 18.0833
vt -3.93701 17.1198
f 25/30/5 24/31/6 30/32/6 28/33/5 

vt 0 16.701
vt 0 17.6645
vn 0 -0.707107 -0.707107
v 0.1 0.472541 -0.121209
vt -3.93701 17.6645
vt -3.93701 16.701
f 24/34/6 23/35/7 31/36/7 30/37/6 

vt 0 15.1113
vt 0 16.0748
vn 0 -0.866025 -0.5
v 0.1 0.48744 -0.140625
vt -3.93701 16.0748
vt -3.93701 15.1113
f 23/38/7 22/39/8 32/40/8 31/41/7 

vt 0 12.4589
vt 0 13.4224
vn 0 -0.965926 -0.258819
v 0.1 0.496806 -0.163236
vt -3.93701 13.4224
vt -3.93701 12.4589
f 22/42/8 20/43/9 33/44/9 32/45/8 

vt 0 8.92462
vt 0 9.88815
vn 0 -1 -0
v 0.1 0.5 -0.1875
vt -3.93701 9.88815
vt -3.93701 8.92462
f 20/46/9 19/47/10 34/48/10 33/49/9 

vt 0 -4.74932
vt 0 -5.71285
vn 0 -0.965926 0.258819
v 0.1 0.496806 -0.211764
vt 3.93701 -5.71285
vt 3.93701 -4.74932
f 19/50/10 18/51/11 35/52/11 34/53/10 

vt 0 -0.217537
vt 0 -1.18107
vn 0 -0.866025 0.5
v 0.1 0.48744 -0.234375
vt 3.93701 -1.18107
vt 3.93701 -0.217537
f 18/54/11 17/55/12 36/56/12 35/57/11 

vt 0 4.36191
v 0 0.472541 -0.253791
vt 0 3.39838
vn 0 -0.707107 0.707107
v 0.1 0.472541 -0.253791
vt 3.93701 3.39838
vt 3.93701 4.36191
f 17/58/12 37/59/13 38/60/13 36/61/12 

vt -9.99178 18.604
f 17/17/3 16/16/3 37/62/3

v 0 0.453125 -0.26869
vt -10.5783 17.8396
f 37/62/3 16/16/3 39/63/3

v 0 0.430514 -0.278056
vt -10.9471 16.9494
f 39/63/3 16/16/3 40/64/3

v 0 0.40625 -0.28125
vt -11.0728 15.9941
f 40/64/3 16/16/3 41/65/3

v 0 0.078125 -0.28125
vt -11.0728 3.07579
f 41/65/3 16/16/3 42/66/3

v 0 0 -0.375
vt -14.7638 0
f 43/67/3 42/66/3 16/16/3

v 0 0.078125 -0.09375
vt -3.69094 3.07579
f 43/67/3 44/68/3 42/66/3

f 26/4/3 44/68/3 43/67/3

f 44/68/3 26/4/3 27/25/3

vt 0 3.07579
vt 0 15.9941
vt -3.93701 15.9941
v 0.1 0.078125 -0.09375
vt -3.93701 3.07579
f 44/69/2 27/70/2 29/71/2 45/72/2 

usemtl Glass
v 0.1 0.453125 -0.26869
v 0.1 0.430514 -0.278056
v 0.1 0.40625 -0.28125
v 0.1 0.078125 -0.28125
f 45/68/3 29/25/3 28/24/3 30/23/3 31/22/3 32/21/3 33/20/3 34/19/3 35/18/3 36/17/3 38/62/3 46/63/3 47/64/3 48/65/3 49/66/3 

usemtl Brick
vt 0 8.67692
vt 0 7.71339
vn 0 -0.5 0.866025
vt 3.93701 7.71339
vt 3.93701 8.67692
f 37/73/13 39/74/14 46/75/14 38/76/13 

vt 0 12.4335
vt 0 11.4699
vn 0 -0.258819 0.965926
vt 3.93701 11.4699
vt 3.93701 12.4335
f 39/77/14 40/78/15 47/79/15 46/80/14 

vt 0 15.3755
vt 0 14.412
vn 0 -0.130526 0.991445
vt 3.93701 14.412
vt 3.93701 15.3755
f 40/81/15 41/82/16 48/83/16 47/84/15 

vn 0 0 1
vt 3.93701 3.07579
vt 3.93701 15.9941
f 41/70/17 42/69/17 49/85/17 48/86/17 

vt 0 11.0728
vn 0 1 -2.40637e-016
vt 0 3.69094
vt 3.93701 3.69094
vt 3.93701 11.0728
f 42/87/18 44/88/18 45/89/18 49/90/18 

vt 0 14.7638
v 0.1 0 -0.375
vt -3.93701 14.7638
v 0.1 0 -0.625
vt -3.93701 24.6063
vt 0 39.3701
vt -39.3701 39.3701
f 4/6/10 26/4/10 43/91/10 50/92/10 51/93/10 9/3/10 5/94/10 1/95/10 

f 4/1/17 3/2/17 21/3/17 26/4/17 

vt 39.3701 39.3701
vn 4.06075e-016 1 4.06075e-016
vt -9.99201e-015 39.3701
vt -9.99201e-015 9.99201e-015
vt 39.3701 9.99201e-015
f 2/96/19 6/97/19 21/98/19 3/99/19 

vt 0 19.685
v 0.1 0.5 -0.375
vt -3.93701 19.685
vt -3.93701 0
f 43/4/2 16/100/2 52/101/2 50/102/2 

v 0.1 0.5 -0.625
f 16/91/10 12/3/10 53/93/10 52/92/10 

vt 3.93701 0
vt 3.93701 19.685
f 12/100/17 9/4/17 51/103/17 53/104/17 

usemtl Glass
f 52/16/3 53/12/3 51/9/3 50/67/3 

usemtl Brick
v 0 0.496806 -0.788236
vt -31.0329 19.5593
f 15/15/3 6/5/3 54/105/3

v 0 0.5 -0.8125
vt -31.9882 19.685
f 54/105/3 6/5/3 55/106/3

v 0 0.496806 -0.836764
vt -32.9435 19.5593
f 55/106/3 6/5/3 56/107/3

v 0 0.48744 -0.859375
vt -33.8337 19.1905
f 56/107/3 6/5/3 57/108/3

v 0 0.472541 -0.878791
vt -34.5981 18.604
f 57/108/3 6/5/3 58/109/3

v 0 0.453125 -0.89369
vt -35.1846 17.8396
f 58/109/3 6/5/3 59/110/3

v 0 0.430514 -0.903056
vt -35.5534 16.9494
f 59/110/3 6/5/3 60/111/3

v 0 0.40625 -0.90625
vt -35.6791 15.9941
f 60/111/3 6/5/3 61/112/3

f 61/112/3 6/5/3 7/7/3

v 0.1 0.078125 -0.90625
v 0.1 0.40625 -0.90625
f 61/70/17 7/69/17 62/85/17 63/86/17 

vt 0 35.6791
vn 0 1 -0
vt 0 28.2972
v 0.1 0.078125 -0.71875
vt 3.93701 28.2972
vt 3.93701 35.6791
f 7/113/20 8/114/20 64/115/20 62/116/20 

v 0.1 0.40625 -0.71875
f 8/69/2 10/70/2 65/71/2 64/72/2 

vt 0 19.5508
vt 0 20.5143
v 0.1 0.430514 -0.721944
vt -3.93701 20.5143
vt -3.93701 19.5508
f 10/117/4 11/118/5 66/119/5 65/120/4 

vt 0 26.5362
vt 0 27.4997
v 0.1 0.453125 -0.73131
vt -3.93701 27.4997
vt -3.93701 26.5362
f 11/121/5 13/122/6 67/123/6 66/124/5 

vt 0 31.6804
vt 0 32.6439
v 0.1 0.472541 -0.746209
vt -3.93701 32.6439
vt -3.93701 31.6804
f 13/125/6 14/126/7 68/127/7 67/128/6 

vt 0 34.6328
vt 0 35.5963
v 0.1 0.48744 -0.765625
vt -3.93701 35.5963
vt -3.93701 34.6328
f 14/129/7 15/130/8 69/131/8 68/132/7 

vt 0 35.1921
vt 0 36.1557
v 0.1 0.496806 -0.788236
vt -3.93701 36.1557
vt -3.93701 35.1921
f 15/133/8 54/134/9 70/135/9 69/136/8 

vt 0 33.3204
vt 0 34.2839
v 0.1 0.5 -0.8125
vt -3.93701 34.2839
vt -3.93701 33.3204
f 54/137/9 55/138/10 71/139/10 70/140/9 

vt 0 -29.1451
vt 0 -30.1086
v 0.1 0.496806 -0.836764
vt 3.93701 -30.1086
vt 3.93701 -29.1451
f 55/141/10 56/142/11 72/143/11 71/144/10 

vt 0 -22.9508
vt 0 -23.9143
v 0.1 0.48744 -0.859375
vt 3.93701 -23.9143
vt 3.93701 -22.9508
f 56/145/11 57/146/12 73/147/12 72/148/11 

vt 0 -15.1596
vt 0 -16.1231
v 0.1 0.472541 -0.878791
vt 3.93701 -16.1231
vt 3.93701 -15.1596
f 57/149/12 58/150/13 74/151/13 73/152/12 

vt 0 -6.30244
vt 0 -7.26597
v 0.1 0.453125 -0.89369
vt 3.93701 -7.26597
vt 3.93701 -6.30244
f 58/153/13 59/154/14 75/155/14 74/156/13 

vt 0 3.01703
vt 0 2.0535
v 0.1 0.430514 -0.903056
vt 3.93701 2.0535
vt 3.93701 3.01703
f 59/157/14 60/158/15 76/159/15 75/160/14 

vt 0 12.1637
vt 0 11.2002
vt 3.93701 11.2002
vt 3.93701 12.1637
f 60/161/15 61/162/16 63/163/16 76/164/15 

usemtl Glass
f 64/8/3 65/10/3 66/11/3 67/13/3 68/14/3 69/15/3 70/105/3 71/106/3 72/107/3 73/108/3 74/109/3 75/110/3 76/111/3 63/112/3 62/7/3 

