# Alias OBJ Model File
# Exported from SketchUp, (c) 2000-2012 Trimble Navigation Limited
# File units = meters

mtllib modularBuildings_073.mtl

g Mesh1 Group1 Model

usemtl Metal
v 0 0 -0
vt 0 0
vn -4.69242e-014 0 1
v 0 0.2 -0
vt 0 7.87402
v -0.1 0.2 -4.69242e-015
vt -3.93701 7.87402
v -0.1 0 -4.69242e-015
vt -3.93701 0
f 1/1/1 2/2/1 3/3/1 4/4/1 

vn 1 0 4.65749e-014
v 1.44382e-014 0 -0.31
vt 12.2047 0
v 1.44382e-014 0.2 -0.31
vt 12.2047 7.87402
f 1/1/2 5/5/2 6/6/2 2/2/2 

vt -5.68434e-013 12.2047
vn 0 -1 -0
vt 3.93701 1.84741e-013
v -0.1 0 -0.31
vt 3.93701 12.2047
f 5/7/3 1/1/3 4/8/3 7/9/3 

vt -1.37524e-015 0
vn -1 0 -4.65749e-014
v -0.1 0.0275556 -0.193089
vt -7.60191 1.08486
vt -12.2047 0
f 4/10/4 8/11/4 7/12/4

v -0.1 0.0350481 -0.175
vt -6.88976 1.37985
f 8/11/4 4/10/4 9/13/4

v -0.1 0.046967 -0.159467
vt -6.27823 1.84909
f 9/13/4 4/10/4 10/14/4

v -0.1 0.0625 -0.147548
vt -5.80898 2.46063
f 10/14/4 4/10/4 11/15/4

v -0.1 0.0805886 -0.140056
vt -5.514 3.17278
f 11/15/4 4/10/4 12/16/4

v -0.1 0.1 -0.1375
vt -5.41339 3.93701
f 12/16/4 4/10/4 13/17/4

v -0.1 0.119411 -0.140056
vt -5.514 4.70124
f 4/10/4 14/18/4 13/17/4

v -0.1 0.1375 -0.147548
vt -5.80898 5.41339
f 4/10/4 15/19/4 14/18/4

v -0.1 0.153033 -0.159467
vt -6.27823 6.02492
f 4/10/4 16/20/4 15/19/4

vt -1.37524e-015 7.87402
f 3/21/4 16/20/4 4/10/4

v -0.1 0.164952 -0.175
vt -6.88976 6.49417
f 16/20/4 3/21/4 17/22/4

v -0.1 0.172444 -0.193089
vt -7.60191 6.78915
f 17/22/4 3/21/4 18/23/4

v -0.1 0.2 -0.31
vt -12.2047 7.87402
f 18/23/4 3/21/4 19/24/4

vn 0 1 -0
vt 5.68434e-013 12.2047
vt -3.93701 12.2047
vt -3.93701 1.84741e-013
f 2/1/5 6/25/5 19/26/5 3/27/5 

vt 4.83169e-014 7.87402
vn 5.05338e-014 0 -1
vt 4.83169e-014 0
vt 3.93701 0
vt 3.93701 7.87402
f 6/28/6 5/29/6 7/30/6 19/31/6 

v -0.1 0.1 -0.2875
vt -11.3189 3.93701
f 7/12/4 20/32/4 19/24/4

v -0.1 0.0805886 -0.284944
vt -11.2183 3.17278
f 7/12/4 21/33/4 20/32/4

v -0.1 0.0625 -0.277452
vt -10.9233 2.46063
f 7/12/4 22/34/4 21/33/4

v -0.1 0.046967 -0.265533
vt -10.4541 1.84909
f 7/12/4 23/35/4 22/34/4

v -0.1 0.0350481 -0.25
vt -9.84252 1.37985
f 7/12/4 24/36/4 23/35/4

v -0.1 0.0275556 -0.231911
vt -9.13037 1.08486
f 7/12/4 25/37/4 24/36/4

v -0.1 0.025 -0.2125
vt -8.36614 0.984252
f 7/12/4 26/38/4 25/37/4

f 7/12/4 8/11/4 26/38/4

usemtl Roof
vn -1 -1.74716e-030 -4.7081e-014
v -0.1 0.175 -0.2125
vt -8.36614 6.88976
v -0.1 0.172444 -0.231911
vt -9.13037 6.78915
v -0.1 0.164952 -0.25
vt -9.84252 6.49417
v -0.1 0.153033 -0.265533
vt -10.4541 6.02492
v -0.1 0.1375 -0.277452
vt -10.9233 5.41339
v -0.1 0.119411 -0.284944
vt -11.2183 4.70124
f 8/11/7 9/13/7 10/14/7 11/15/7 12/16/7 13/17/7 14/18/7 15/19/7 16/20/7 17/22/7 18/23/7 27/39/7 28/40/7 29/41/7 30/42/7 31/43/7 32/44/7 20/32/7 21/33/7 22/34/7 23/35/7 24/36/7 25/37/7 26/38/7 

usemtl Metal
f 18/23/4 19/24/4 27/39/4

f 27/39/4 19/24/4 28/40/4

f 28/40/4 19/24/4 29/41/4

f 29/41/4 19/24/4 30/42/4

f 30/42/4 19/24/4 31/43/4

f 31/43/4 19/24/4 32/44/4

f 32/44/4 19/24/4 20/32/4

