# Alias OBJ Model File
# Exported from SketchUp, (c) 2000-2012 Trimble Navigation Limited
# File units = meters

mtllib modularBuildings_048.mtl

g Mesh1 Group1 Model

usemtl Brick
v 1 0 -0
vt -39.3701 0
vn 0 -1 -0
v 0 0 -0
vt 0 0
v 0 0 -1
vt 0 39.3701
v 1 0 -1
vt -39.3701 39.3701
f 1/1/1 2/2/1 3/3/1 4/4/1 

vt 39.3701 0
vn 0 0 1
v 1 0.625 -0
vt 39.3701 24.6063
v 0 0.625 -0
vt 0 24.6063
f 1/5/2 5/6/2 6/7/2 2/2/2 

vn 1 0 -0
v 1 0.625 -1
f 4/5/3 7/6/3 5/7/3 1/2/3 

vn 0 0 -1
v 0 0.625 -1
vt -39.3701 24.6063
f 3/2/4 8/7/4 7/8/4 4/1/4 

vn -1 0 -0
v 0 0.12 -0.65625
vt -25.8366 4.72441
f 3/1/5 9/9/5 8/8/5

v 0 0.12 -0.34375
vt -13.5335 4.72441
f 3/1/5 10/10/5 9/9/5

f 2/2/5 10/10/5 3/1/5

v 0 0.5 -0.34375
vt -13.5335 19.685
f 10/10/5 2/2/5 11/11/5

f 6/7/5 11/11/5 2/2/5

f 11/11/5 6/7/5 8/8/5

vt 4.44089e-015 39.3701
vn -1.80478e-016 1 -1.80478e-016
vt 4.44089e-015 -4.44089e-015
vt 39.3701 -4.44089e-015
vt 39.3701 39.3701
f 8/12/6 6/13/6 5/14/6 7/15/6 

v 0 0.5 -0.65625
vt -25.8366 19.685
f 11/11/5 8/8/5 12/16/5

f 12/16/5 8/8/5 9/9/5

vt 0 19.685
vt 0 4.72441
v 0.1 0.12 -0.65625
vt 3.93701 4.72441
v 0.1 0.5 -0.65625
vt 3.93701 19.685
f 12/17/2 9/18/2 13/19/2 14/20/2 

vt 0 25.8366
vn 0 1 -0
vt 0 13.5335
v 0.1 0.12 -0.34375
vt 3.93701 13.5335
vt 3.93701 25.8366
f 9/21/7 10/22/7 15/23/7 13/24/7 

v 0.1 0.5 -0.34375
vt -3.93701 19.685
vt -3.93701 4.72441
f 10/18/4 11/17/4 16/25/4 15/26/4 

vt -3.93701 25.8366
vt -3.93701 13.5335
f 11/22/1 12/21/1 14/27/1 16/28/1 

usemtl Glass
f 15/10/5 16/11/5 14/16/5 13/9/5 

